GeoramaSemiCondensed-MediumItalic.ufo
<glyph name="exclam" format="2">
  <advance width="187.478"/>
  <unicode hex="0021"/>
  <outline>
    <contour>
      <point x="51.004" y="261.85" type="line"/>
      <point x="129.892" y="261.85" type="line"/>
      <point x="213.578" y="740.0" type="line"/>
      <point x="122.22" y="740.0" type="line"/>
    </contour>
    <contour>
      <point x="5.518000000000001" y="35.542" type="curve" smooth="yes"/>
      <point x="4.948" y="8.25"/>
      <point x="17.040000000000003" y="-4.3"/>
      <point x="48.651999999999994" y="-4.3" type="curve" smooth="yes"/>
      <point x="95.926" y="-4.3"/>
      <point x="110.57400000000001" y="32.046"/>
      <point x="112.28399999999999" y="75.77199999999999" type="curve" smooth="yes"/>
      <point x="112.85400000000001" y="103.52"/>
      <point x="99.85" y="115.61399999999999"/>
      <point x="68.78" y="115.61399999999999" type="curve" smooth="yes"/>
      <point x="22.676000000000002" y="115.61399999999999"/>
      <point x="7.2280000000000015" y="79.526"/>
    </contour>
  </outline>
</glyph>
<glyph name="numbersign" format="2">
  <advance width="466.656"/>
  <unicode hex="0023"/>
  <outline>
    <contour>
      <point x="97.06799999999998" y="445.188" type="line"/>
      <point x="159.732" y="445.188" type="line"/>
      <point x="104.352" y="250.546" type="line"/>
      <point x="44.446" y="250.546" type="line"/>
      <point x="31.471999999999998" y="171.772" type="line"/>
      <point x="85.278" y="171.772" type="line"/>
      <point x="38.202000000000005" y="0.0" type="line"/>
      <point x="113.096" y="0.0" type="line"/>
      <point x="159.602" y="171.772" type="line"/>
      <point x="238.238" y="171.772" type="line"/>
      <point x="191.73200000000003" y="0.0" type="line"/>
      <point x="265.826" y="0.0" type="line"/>
      <point x="312.33200000000005" y="171.772" type="line"/>
      <point x="381.012" y="171.772" type="line"/>
      <point x="393.444" y="250.546" type="line"/>
      <point x="331.69199999999995" y="250.546" type="line"/>
      <point x="386.786" y="445.188" type="line"/>
      <point x="446.066" y="445.188" type="line"/>
      <point x="459.042" y="524.4780000000001" type="line"/>
      <point x="405.974" y="524.4780000000001" type="line"/>
      <point x="454.252" y="700.0" type="line"/>
      <point x="379.814" y="700.0" type="line"/>
      <point x="331.536" y="524.4780000000001" type="line"/>
      <point x="252.9" y="524.4780000000001" type="line"/>
      <point x="301.178" y="700.0" type="line"/>
      <point x="227.084" y="700.0" type="line"/>
      <point x="178.80599999999998" y="524.4780000000001" type="line"/>
      <point x="109.958" y="524.4780000000001" type="line"/>
    </contour>
    <contour>
      <point x="233.82600000000002" y="445.188" type="line"/>
      <point x="312.462" y="445.188" type="line"/>
      <point x="257.42600000000004" y="250.546" type="line"/>
      <point x="178.79000000000002" y="250.546" type="line"/>
    </contour>
  </outline>
</glyph>
<glyph name="dollar" format="2">
  <advance width="466.656"/>
  <unicode hex="0024"/>
  <outline>
    <contour>
      <point x="450.80800000000005" y="681.948" type="line"/>
      <point x="428.65" y="692.556"/>
      <point x="390.868" y="704.844"/>
      <point x="342.92" y="708.538" type="curve"/>
      <point x="358.12" y="804.312" type="line"/>
      <point x="281.64" y="804.312" type="line"/>
      <point x="265.06600000000003" y="703.4380000000001" type="line"/>
      <point x="159.68599999999998" y="688.0060000000001"/>
      <point x="91.25200000000001" y="604.456"/>
      <point x="91.25200000000001" y="506.65599999999995" type="curve" smooth="yes"/>
      <point x="91.25200000000001" y="332.048"/>
      <point x="306.5" y="297.47200000000004"/>
      <point x="306.5" y="186.618" type="curve" smooth="yes"/>
      <point x="306.5" y="120.90400000000001"/>
      <point x="251.156" y="74.902"/>
      <point x="182.44600000000003" y="74.902" type="curve" smooth="yes"/>
      <point x="129.95399999999998" y="74.902"/>
      <point x="74.634" y="87.758"/>
      <point x="35.984" y="105.32" type="curve"/>
      <point x="4.256" y="24.569999999999997" type="line"/>
      <point x="36.054" y="9.956"/>
      <point x="86.828" y="-5.102"/>
      <point x="139.246" y="-7.85" type="curve"/>
      <point x="124.24600000000001" y="-105.0" type="line"/>
      <point x="200.64" y="-105.0" type="line"/>
      <point x="215.64" y="-5.932" type="line"/>
      <point x="327.54" y="9.242"/>
      <point x="400.288" y="93.008"/>
      <point x="400.288" y="194.22799999999998" type="curve" smooth="yes"/>
      <point x="400.288" y="367.838"/>
      <point x="187.248" y="397.94599999999997"/>
      <point x="187.248" y="510.9480000000001" type="curve" smooth="yes"/>
      <point x="187.248" y="571.9520000000001"/>
      <point x="239.376" y="622.9139999999999"/>
      <point x="305.55" y="622.9139999999999" type="curve" smooth="yes"/>
      <point x="348.7" y="622.9139999999999"/>
      <point x="385.158" y="615.5479999999999"/>
      <point x="420.39599999999996" y="600.9920000000001" type="curve"/>
    </contour>
  </outline>
</glyph>
<glyph name="ampersand" format="2">
  <advance width="532.9680000000001"/>
  <unicode hex="0026"/>
  <outline>
    <contour>
      <point x="208.432" y="-10.0" type="curve" smooth="yes"/>
      <point x="356.064" y="-10.0"/>
      <point x="466.576" y="138.752"/>
      <point x="449.24" y="295.3" type="curve"/>
      <point x="375.168" y="292.16" type="line"/>
      <point x="398.91999999999996" y="180.77199999999996"/>
      <point x="309.05600000000004" y="70.464"/>
      <point x="221.04" y="70.464" type="curve" smooth="yes"/>
      <point x="145.452" y="70.464"/>
      <point x="106.832" y="112.448"/>
      <point x="106.832" y="179.412" type="curve" smooth="yes"/>
      <point x="106.832" y="291.212"/>
      <point x="186.54399999999998" y="371.768"/>
      <point x="285.64" y="371.768" type="curve" smooth="yes"/>
      <point x="303.956" y="371.768" type="line"/>
      <point x="318.05199999999996" y="434.02799999999996" type="line"/>
      <point x="304.632" y="435.748" type="line" smooth="yes"/>
      <point x="244.716" y="439.876"/>
      <point x="212.252" y="472.684"/>
      <point x="212.252" y="531.016" type="curve" smooth="yes"/>
      <point x="212.252" y="588.052"/>
      <point x="251.472" y="633.088"/>
      <point x="307.14000000000004" y="633.088" type="curve" smooth="yes"/>
      <point x="340.06" y="633.088"/>
      <point x="368.896" y="623.2719999999999"/>
      <point x="397.092" y="600.572" type="curve"/>
      <point x="440.432" y="667.0840000000001" type="line"/>
      <point x="400.84799999999996" y="694.8600000000001"/>
      <point x="354.52" y="710.0"/>
      <point x="299.70799999999997" y="710.0" type="curve" smooth="yes"/>
      <point x="191.85600000000002" y="710.0"/>
      <point x="124.424" y="632.164"/>
      <point x="124.424" y="541.6279999999999" type="curve" smooth="yes"/>
      <point x="124.424" y="479.236"/>
      <point x="153.972" y="433.452"/>
      <point x="206.196" y="409.74" type="curve"/>
      <point x="96.35600000000001" y="386.41999999999996"/>
      <point x="17.112000000000002" y="297.13200000000006"/>
      <point x="17.112000000000002" y="163.992" type="curve" smooth="yes"/>
      <point x="17.112000000000002" y="61.228"/>
      <point x="80.68400000000001" y="-10.0"/>
    </contour>
    <contour>
      <point x="305.53999999999996" y="237.32000000000002" type="line"/>
      <point x="309.28000000000003" y="266.784"/>
      <point x="324.868" y="281.3879999999999"/>
      <point x="350.49999999999994" y="281.3879999999999" type="curve" smooth="yes"/>
      <point x="390.40399999999994" y="281.3879999999999"/>
      <point x="419.552" y="270.308"/>
      <point x="460.14799999999997" y="270.308" type="curve" smooth="yes"/>
      <point x="514.64" y="270.308"/>
      <point x="550.396" y="318.68800000000005"/>
      <point x="546.588" y="374.944" type="curve"/>
      <point x="489.568" y="379.048" type="line"/>
      <point x="485.688" y="340.488"/>
      <point x="465.396" y="329.67600000000004"/>
      <point x="429.396" y="329.67600000000004" type="curve" smooth="yes"/>
      <point x="398.68" y="329.67600000000004"/>
      <point x="372.468" y="341.788"/>
      <point x="339.984" y="341.788" type="curve" smooth="yes"/>
      <point x="282.18399999999997" y="341.788"/>
      <point x="254.22800000000004" y="300.308"/>
      <point x="248.664" y="250.65200000000002" type="curve"/>
    </contour>
  </outline>
</glyph>
<glyph name="parenleft" format="2">
  <advance width="251.52800000000002"/>
  <unicode hex="0028"/>
  <outline>
    <contour>
      <point x="32.868" y="32.68000000000001" type="curve" smooth="yes"/>
      <point x="32.868" y="-102.55600000000001"/>
      <point x="69.708" y="-197.92600000000002"/>
      <point x="153.474" y="-220.0" type="curve"/>
      <point x="171.268" y="-142.54" type="line"/>
      <point x="130.926" y="-123.534"/>
      <point x="106.96799999999999" y="-61.918"/>
      <point x="106.96799999999999" y="37.822" type="curve" smooth="yes"/>
      <point x="106.96799999999999" y="204.544"/>
      <point x="182.99999999999997" y="631.306"/>
      <point x="299.124" y="670.0279999999999" type="curve"/>
      <point x="307.11" y="749.544" type="line"/>
      <point x="114.01400000000001" y="706.624"/>
      <point x="32.868" y="266.834"/>
    </contour>
  </outline>
</glyph>
<glyph name="parenright" format="2">
  <advance width="251.52800000000002"/>
  <unicode hex="0029"/>
  <outline>
    <contour>
      <point x="216.02999999999997" y="497.09200000000004" type="curve" smooth="yes"/>
      <point x="216.02999999999997" y="633.442"/>
      <point x="179.418" y="727.926"/>
      <point x="95.538" y="750.0" type="curve"/>
      <point x="78.656" y="670.514" type="line"/>
      <point x="121.05" y="648.544"/>
      <point x="141.92999999999998" y="589.322"/>
      <point x="141.92999999999998" y="497.44800000000004" type="curve" smooth="yes"/>
      <point x="141.92999999999998" y="328.104"/>
      <point x="66.24" y="-101.762"/>
      <point x="-50.91" y="-140.71200000000002" type="curve"/>
      <point x="-58.44" y="-220.0" type="line"/>
      <point x="129.526" y="-174.454"/>
      <point x="216.02999999999997" y="259.12399999999997"/>
    </contour>
  </outline>
</glyph>
<glyph name="asterisk" format="2">
  <advance width="284.91600000000005"/>
  <unicode hex="002A"/>
  <outline>
    <contour>
      <point x="100.624" y="387.96999999999997" type="line"/>
      <point x="174.28199999999998" y="477.06600000000003" type="line"/>
      <point x="218.412" y="388.426" type="line"/>
      <point x="258.812" y="415.39799999999997" type="line"/>
      <point x="223.112" y="513.9639999999999" type="line"/>
      <point x="318.0679999999999" y="558.644" type="line"/>
      <point x="310.828" y="603.426" type="line"/>
      <point x="216.55" y="571.806" type="line"/>
      <point x="230.07000000000002" y="687.384" type="line"/>
      <point x="185.032" y="687.384" type="line"/>
      <point x="161.53600000000003" y="572.2620000000001" type="line"/>
      <point x="77.936" y="603.882" type="line"/>
      <point x="56.662" y="559.556" type="line"/>
      <point x="135.444" y="514.876" type="line"/>
      <point x="68.21600000000001" y="415.62600000000003" type="line"/>
    </contour>
  </outline>
</glyph>
<glyph name="plus" format="2">
  <advance width="410.34799999999996"/>
  <unicode hex="002B"/>
  <outline>
    <contour>
      <point x="138.488" y="104.594" type="line"/>
      <point x="218.606" y="104.594" type="line"/>
      <point x="243.838" y="264.06399999999996" type="line"/>
      <point x="364.022" y="264.06399999999996" type="line"/>
      <point x="377.25600000000003" y="347.45" type="line"/>
      <point x="257.072" y="347.45" type="line"/>
      <point x="282.504" y="507.29" type="line"/>
      <point x="202.558" y="507.29" type="line"/>
      <point x="176.95399999999998" y="347.45" type="line"/>
      <point x="56.571999999999996" y="347.45" type="line"/>
      <point x="43.33800000000001" y="264.06399999999996" type="line"/>
      <point x="163.892" y="264.06399999999996" type="line"/>
    </contour>
  </outline>
</glyph>
<glyph name="comma" format="2">
  <advance width="162.816"/>
  <unicode hex="002C"/>
  <outline>
    <contour>
      <point x="6.014000000000001" y="66.426" type="line"/>
      <point x="6.496" y="45.65"/>
      <point x="5.0040000000000004" y="25.938"/>
      <point x="3.6280000000000014" y="12.616" type="curve" smooth="yes"/>
      <point x="-0.6719999999999995" y="-48.198"/>
      <point x="-35.896" y="-130.496"/>
      <point x="-78.124" y="-170.316" type="curve"/>
      <point x="-16.740000000000002" y="-193.456" type="line"/>
      <point x="54.220000000000006" y="-131.26800000000003"/>
      <point x="91.57000000000001" y="-34.536"/>
      <point x="91.57000000000001" y="35.766" type="curve" smooth="yes"/>
      <point x="91.57000000000001" y="47.794000000000004"/>
      <point x="90.798" y="58.908"/>
      <point x="89.058" y="71.074" type="curve"/>
    </contour>
  </outline>
</glyph>
<glyph name="hyphen" format="2">
  <advance width="272.664"/>
  <unicode hex="002D"/>
  <outline>
    <contour>
      <point x="26.75" y="243.33800000000002" type="line"/>
      <point x="235.41599999999997" y="243.33800000000002" type="line"/>
      <point x="250.482" y="331.912" type="line"/>
      <point x="41.815999999999995" y="331.912" type="line"/>
    </contour>
  </outline>
</glyph>
<glyph name="period" format="2">
  <advance width="163.934"/>
  <unicode hex="002E"/>
  <outline>
    <contour>
      <point x="-5.966000000000001" y="36.574" type="curve" smooth="yes"/>
      <point x="-6.536000000000001" y="8.937999999999999"/>
      <point x="5.212000000000001" y="-3.268"/>
      <point x="37.168" y="-3.268" type="curve" smooth="yes"/>
      <point x="84.442" y="-3.268"/>
      <point x="98.74600000000001" y="33.077999999999996"/>
      <point x="100.45599999999999" y="77.492" type="curve" smooth="yes"/>
      <point x="101.02599999999998" y="104.896"/>
      <point x="88.366" y="116.646"/>
      <point x="57.29599999999999" y="116.646" type="curve" smooth="yes"/>
      <point x="10.848" y="116.646"/>
      <point x="-4.256" y="80.55799999999999"/>
    </contour>
  </outline>
</glyph>
<glyph name="slash" format="2">
  <advance width="314.90999999999997"/>
  <unicode hex="002F"/>
  <outline>
    <contour>
      <point x="-73.424" y="-210.0" type="line"/>
      <point x="3.426" y="-210.0" type="line"/>
      <point x="385.334" y="740.0" type="line"/>
      <point x="307.71" y="740.0" type="line"/>
    </contour>
  </outline>
</glyph>
<glyph name="zero" format="2">
  <advance width="467.17199999999997"/>
  <unicode hex="0030"/>
  <outline>
    <contour>
      <point x="196.904" y="-10.86" type="curve" smooth="yes"/>
      <point x="380.12399999999997" y="-10.86"/>
      <point x="462.33" y="279.202"/>
      <point x="462.33" y="500.19000000000005" type="curve" smooth="yes"/>
      <point x="462.33" y="642.7159999999999"/>
      <point x="411.5160000000001" y="710.43"/>
      <point x="294.01599999999996" y="710.43" type="curve" smooth="yes"/>
      <point x="106.898" y="710.43"/>
      <point x="28.188" y="419.134"/>
      <point x="28.188" y="200.726" type="curve" smooth="yes"/>
      <point x="28.188" y="58.629999999999995"/>
      <point x="79.46000000000001" y="-10.86"/>
    </contour>
    <contour>
      <point x="205.504" y="75.64999999999999" type="curve" smooth="yes"/>
      <point x="143.11599999999999" y="75.64999999999999"/>
      <point x="120.60600000000001" y="119.50000000000001"/>
      <point x="121.14800000000001" y="201.474" type="curve" smooth="yes"/>
      <point x="121.80199999999999" y="354.324"/>
      <point x="176.694" y="624.35"/>
      <point x="285.416" y="624.35" type="curve" smooth="yes"/>
      <point x="347.85999999999996" y="624.35"/>
      <point x="369.912" y="581.416"/>
      <point x="369.37" y="499.442" type="curve" smooth="yes"/>
      <point x="368.716" y="347.47999999999996"/>
      <point x="313.33799999999997" y="75.64999999999999"/>
    </contour>
  </outline>
</glyph>
<glyph name="one" format="2">
  <advance width="466.656"/>
  <unicode hex="0031"/>
  <outline>
    <contour>
      <point x="27.152" y="0.0" type="line"/>
      <point x="383.874" y="0.0" type="line"/>
      <point x="397.366" y="83.52599999999998" type="line"/>
      <point x="271.678" y="83.52599999999998" type="line"/>
      <point x="370.446" y="701.14" type="line"/>
      <point x="324.358" y="701.14" type="line"/>
      <point x="103.156" y="591.492" type="line"/>
      <point x="111.612" y="501.958" type="line"/>
      <point x="259.53" y="582.054" type="line"/>
      <point x="180.036" y="83.52599999999998" type="line"/>
      <point x="40.3" y="83.52599999999998" type="line"/>
    </contour>
  </outline>
</glyph>
<glyph name="two" format="2">
  <advance width="467.17199999999997"/>
  <unicode hex="0032"/>
  <outline>
    <contour>
      <point x="28.236" y="67.74" type="curve"/>
      <point x="19.860000000000003" y="0.0" type="line"/>
      <point x="374.18800000000005" y="0.0" type="line"/>
      <point x="386.994" y="78.77" type="line"/>
      <point x="149.004" y="78.77" type="line"/>
      <point x="313.056" y="280.02599999999995"/>
      <point x="419.08799999999997" y="419.65599999999995"/>
      <point x="419.08799999999997" y="565.0419999999999" type="curve" smooth="yes"/>
      <point x="419.08799999999997" y="655.278"/>
      <point x="364.114" y="710.0"/>
      <point x="280.588" y="710.0" type="curve" smooth="yes"/>
      <point x="218.34200000000004" y="710.0"/>
      <point x="155.48800000000003" y="688.5319999999998"/>
      <point x="106.59799999999998" y="650.644" type="curve"/>
      <point x="129.35800000000003" y="574.724" type="line"/>
      <point x="170.12400000000002" y="603.4140000000001"/>
      <point x="209.21799999999996" y="619.6759999999999"/>
      <point x="248.80599999999998" y="619.6759999999999" type="curve" smooth="yes"/>
      <point x="295.53200000000004" y="619.6759999999999"/>
      <point x="324.4080000000001" y="588.0699999999999"/>
      <point x="324.4080000000001" y="539.636" type="curve" smooth="yes"/>
      <point x="324.29600000000005" y="425.234"/>
      <point x="214.59799999999998" y="281.49"/>
    </contour>
  </outline>
</glyph>
<glyph name="three" format="2">
  <advance width="467.20000000000005"/>
  <unicode hex="0033"/>
  <outline>
    <contour>
      <point x="-4.4" y="41.635" type="line"/>
      <point x="37.690000000000005" y="8.069999999999999"/>
      <point x="92.84" y="-10.0"/>
      <point x="164.355" y="-10.0" type="curve" smooth="yes"/>
      <point x="288.78999999999996" y="-10.0"/>
      <point x="400.615" y="77.80999999999999"/>
      <point x="400.615" y="234.125" type="curve" smooth="yes"/>
      <point x="400.615" y="315.135"/>
      <point x="365.895" y="355.555"/>
      <point x="320.69" y="371.0" type="curve"/>
      <point x="382.075" y="399.965"/>
      <point x="431.20500000000004" y="465.01"/>
      <point x="431.20500000000004" y="561.485" type="curve" smooth="yes"/>
      <point x="431.20500000000004" y="653.58"/>
      <point x="374.825" y="710.0"/>
      <point x="269.695" y="710.0" type="curve" smooth="yes"/>
      <point x="213.49" y="710.0"/>
      <point x="150.88000000000002" y="695.275"/>
      <point x="107.07" y="664.605" type="curve"/>
      <point x="127.175" y="591.055" type="line"/>
      <point x="160.51500000000001" y="611.045"/>
      <point x="199.94000000000003" y="621.555"/>
      <point x="242.105" y="621.555" type="curve" smooth="yes"/>
      <point x="301.635" y="621.555"/>
      <point x="337.6" y="585.46"/>
      <point x="337.6" y="528.7350000000001" type="curve" smooth="yes"/>
      <point x="337.6" y="457.64"/>
      <point x="292.59000000000003" y="397.78"/>
      <point x="223.01500000000001" y="397.78" type="curve" smooth="yes"/>
      <point x="153.97" y="397.78" type="line"/>
      <point x="141.72500000000002" y="325.6" type="line"/>
      <point x="220.71" y="325.6" type="line" smooth="yes"/>
      <point x="280.835" y="325.6"/>
      <point x="310.025" y="293.04999999999995"/>
      <point x="310.025" y="233.495" type="curve" smooth="yes"/>
      <point x="310.025" y="139.84000000000003"/>
      <point x="254.36999999999998" y="77.15500000000002"/>
      <point x="167.43" y="77.15500000000002" type="curve" smooth="yes"/>
      <point x="114.32000000000001" y="77.15500000000002"/>
      <point x="72.32499999999999" y="89.715"/>
      <point x="37.404999999999994" y="114.835" type="curve"/>
    </contour>
  </outline>
</glyph>
<glyph name="four" format="2">
  <advance width="467.20000000000005"/>
  <unicode hex="0034"/>
  <outline>
    <contour>
      <point x="11.81" y="146.125" type="line"/>
      <point x="244.43499999999997" y="146.125" type="line"/>
      <point x="221.39" y="-0.64" type="line"/>
      <point x="316.28499999999997" y="-0.64" type="line"/>
      <point x="339.26000000000005" y="146.125" type="line"/>
      <point x="419.67" y="146.125" type="line"/>
      <point x="431.7" y="223.96" type="line"/>
      <point x="351.935" y="223.96" type="line"/>
      <point x="427.79" y="699.0749999999999" type="line"/>
      <point x="338.105" y="702.28" type="line"/>
      <point x="20.490000000000002" y="218.595" type="line"/>
    </contour>
    <contour>
      <point x="98.315" y="223.96" type="line"/>
      <point x="313.855" y="556.42" type="line"/>
      <point x="259.69" y="223.96" type="line"/>
    </contour>
  </outline>
</glyph>
<glyph name="five" format="2">
  <advance width="467.172"/>
  <unicode hex="0035"/>
  <outline>
    <contour>
      <point x="5.524" y="40.877" type="line"/>
      <point x="45.20799999999999" y="7.130000000000001"/>
      <point x="94.47099999999999" y="-10.0"/>
      <point x="164.323" y="-10.0" type="curve" smooth="yes"/>
      <point x="343.10300000000007" y="-10.0"/>
      <point x="409.097" y="137.31499999999997"/>
      <point x="409.097" y="260.469" type="curve" smooth="yes"/>
      <point x="409.097" y="356.696"/>
      <point x="363.563" y="406.182"/>
      <point x="271.73900000000003" y="407.47200000000004" type="curve" smooth="yes"/>
      <point x="181.76500000000001" y="407.902" type="line"/>
      <point x="228.63" y="611.873" type="line"/>
      <point x="439.1700000000001" y="611.873" type="line"/>
      <point x="452.73300000000006" y="700.0" type="line"/>
      <point x="171.976" y="700.0" type="line"/>
      <point x="83.95400000000001" y="338.917" type="line"/>
      <point x="91.178" y="327.515" type="line"/>
      <point x="223.982" y="327.515" type="line" smooth="yes"/>
      <point x="289.194" y="327.515"/>
      <point x="314.5760000000001" y="297.499"/>
      <point x="314.5760000000001" y="239.325" type="curve" smooth="yes"/>
      <point x="314.5760000000001" y="175.284"/>
      <point x="276.43000000000006" y="76.94000000000001"/>
      <point x="165.743" y="76.94000000000001" type="curve" smooth="yes"/>
      <point x="109.445" y="76.94000000000001"/>
      <point x="69.62199999999999" y="96.584"/>
      <point x="40.846000000000004" y="118.19" type="curve"/>
    </contour>
  </outline>
</glyph>
<glyph name="six" format="2">
  <advance width="467.20000000000005"/>
  <unicode hex="0036"/>
  <note>
14
</note>
  <outline>
    <contour>
      <point x="216.17" y="-10.0" type="curve" smooth="yes"/>
      <point x="339.07" y="-10.0"/>
      <point x="429.7" y="97.63999999999999"/>
      <point x="429.7" y="270.71" type="curve" smooth="yes"/>
      <point x="429.7" y="377.93"/>
      <point x="370.80999999999995" y="431.66"/>
      <point x="282.23999999999995" y="431.66" type="curve" smooth="yes"/>
      <point x="224.82999999999998" y="431.66"/>
      <point x="168.46" y="409.21"/>
      <point x="125.82" y="355.22" type="curve"/>
      <point x="119.17" y="261.63" type="line"/>
      <point x="150.57" y="317.89"/>
      <point x="200.93" y="353.32"/>
      <point x="252.64000000000004" y="353.32" type="curve" smooth="yes"/>
      <point x="313.65" y="353.32"/>
      <point x="339.68" y="318.28999999999996"/>
      <point x="339.68" y="252.3" type="curve" smooth="yes"/>
      <point x="339.68" y="153.71"/>
      <point x="289.67" y="71.71000000000001"/>
      <point x="221.82999999999998" y="71.71000000000001" type="curve" smooth="yes"/>
      <point x="158.26999999999998" y="71.71000000000001"/>
      <point x="123.31" y="113.22"/>
      <point x="123.31" y="197.39999999999998" type="curve" smooth="yes"/>
      <point x="123.31" y="310.26"/>
      <point x="149.14000000000001" y="420.59000000000003"/>
      <point x="194.75" y="510.58" type="curve" smooth="yes"/>
      <point x="230.94" y="581.93"/>
      <point x="280.7" y="624.35"/>
      <point x="349.85" y="624.35" type="curve" smooth="yes"/>
      <point x="383.12" y="624.35"/>
      <point x="416.34000000000003" y="614.49"/>
      <point x="445.83" y="598.4300000000001" type="curve"/>
      <point x="482.2" y="674.63" type="line"/>
      <point x="451.5" y="694.48"/>
      <point x="403.59999999999997" y="710.0"/>
      <point x="345.91" y="710.0" type="curve" smooth="yes"/>
      <point x="149.51999999999998" y="710.0"/>
      <point x="35.08" y="481.65999999999997"/>
      <point x="35.08" y="201.5" type="curve" smooth="yes"/>
      <point x="35.08" y="55.43"/>
      <point x="100.05" y="-10.0"/>
    </contour>
  </outline>
</glyph>
<glyph name="seven" format="2">
  <advance width="466.656"/>
  <unicode hex="0037"/>
  <note>
9
</note>
  <outline>
    <contour>
      <point x="91.94800000000001" y="0.0" type="curve"/>
      <point x="188.632" y="0.0" type="line"/>
      <point x="209.436" y="120.488"/>
      <point x="244.63200000000003" y="216.99200000000002"/>
      <point x="340.896" y="397.076" type="curve" smooth="yes"/>
      <point x="466.18399999999997" y="631.1999999999999" type="line"/>
      <point x="477.26800000000003" y="700.0" type="line"/>
      <point x="107.764" y="700.0" type="line"/>
      <point x="93.928" y="611.8880000000001" type="line"/>
      <point x="361.252" y="611.8880000000001" type="line"/>
      <point x="248.512" y="410.88" type="line" smooth="yes"/>
      <point x="157.964" y="249.99200000000002"/>
      <point x="114.46000000000001" y="140.52"/>
    </contour>
  </outline>
</glyph>
<glyph name="eight" format="2">
  <advance width="467.20000000000005"/>
  <unicode hex="0038"/>
  <outline>
    <contour>
      <point x="205.97000000000003" y="-10.0" type="curve" smooth="yes"/>
      <point x="338.01" y="-10.0"/>
      <point x="421.83" y="66.75999999999999"/>
      <point x="421.83" y="201.03" type="curve" smooth="yes"/>
      <point x="421.83" y="397.80999999999995"/>
      <point x="176.24" y="383.09999999999997"/>
      <point x="176.24" y="532.8599999999999" type="curve" smooth="yes"/>
      <point x="176.24" y="590.52"/>
      <point x="214.94" y="629.0799999999999"/>
      <point x="282.07" y="629.0799999999999" type="curve" smooth="yes"/>
      <point x="344.41999999999996" y="629.0799999999999"/>
      <point x="367.58" y="595.12"/>
      <point x="367.58" y="545.5400000000001" type="curve" smooth="yes"/>
      <point x="367.58" y="474.2"/>
      <point x="328.89" y="428.21"/>
      <point x="268.98999999999995" y="392.26" type="curve"/>
      <point x="323.12" y="352.59" type="line"/>
      <point x="400.8" y="397.86"/>
      <point x="454.52" y="464.26"/>
      <point x="454.52" y="563.17" type="curve" smooth="yes"/>
      <point x="454.52" y="644.82"/>
      <point x="406.94" y="710.0"/>
      <point x="286.01" y="710.0" type="curve" smooth="yes"/>
      <point x="161.52" y="710.0"/>
      <point x="85.86" y="636.7099999999999"/>
      <point x="85.86" y="520.91" type="curve" smooth="yes"/>
      <point x="85.86" y="314.76"/>
      <point x="328.87000000000006" y="346.53"/>
      <point x="328.87000000000006" y="186.20000000000002" type="curve" smooth="yes"/>
      <point x="328.87000000000006" y="111.52"/>
      <point x="283.8" y="67.47999999999999"/>
      <point x="212.99" y="67.47999999999999" type="curve" smooth="yes"/>
      <point x="140.21" y="67.47999999999999"/>
      <point x="106.2" y="104.22"/>
      <point x="106.2" y="164.43" type="curve" smooth="yes"/>
      <point x="106.2" y="246.86"/>
      <point x="150.94" y="304.46"/>
      <point x="222.26999999999998" y="334.62" type="curve"/>
      <point x="165.42" y="379.22999999999996" type="line"/>
      <point x="72.02" y="341.84999999999997"/>
      <point x="13.17" y="253.0"/>
      <point x="13.17" y="151.26" type="curve" smooth="yes"/>
      <point x="13.17" y="55.39"/>
      <point x="69.81" y="-10.0"/>
    </contour>
  </outline>
</glyph>
<glyph name="nine" format="2">
  <advance width="467.20000000000005"/>
  <unicode hex="0039"/>
  <outline>
    <contour>
      <point x="275.75" y="710.0" type="curve" smooth="yes"/>
      <point x="152.85000000000002" y="710.0"/>
      <point x="61.79" y="602.36"/>
      <point x="61.79" y="429.29" type="curve" smooth="yes"/>
      <point x="61.79" y="322.07"/>
      <point x="119.38999999999999" y="268.77"/>
      <point x="207.53" y="268.77" type="curve" smooth="yes"/>
      <point x="265.37000000000006" y="268.77"/>
      <point x="323.46" y="289.5"/>
      <point x="365.67" y="349.08" type="curve"/>
      <point x="372.32" y="438.8" type="line"/>
      <point x="341.35" y="382.53999999999996"/>
      <point x="290.56" y="347.11"/>
      <point x="238.85" y="347.11" type="curve" smooth="yes"/>
      <point x="178.26999999999998" y="347.11"/>
      <point x="152.24" y="381.71000000000004"/>
      <point x="152.24" y="447.7" type="curve" smooth="yes"/>
      <point x="152.24" y="546.72"/>
      <point x="202.25" y="628.29"/>
      <point x="269.65999999999997" y="628.29" type="curve" smooth="yes"/>
      <point x="332.79" y="628.29"/>
      <point x="368.18" y="586.78"/>
      <point x="368.18" y="503.03" type="curve" smooth="yes"/>
      <point x="368.18" y="394.03999999999996"/>
      <point x="344.07" y="278.55"/>
      <point x="298.03" y="188.13" type="curve" smooth="yes"/>
      <point x="262.27" y="116.78"/>
      <point x="212.94" y="74.36"/>
      <point x="145.0" y="74.36" type="curve" smooth="yes"/>
      <point x="112.16" y="74.36"/>
      <point x="75.64999999999999" y="85.44"/>
      <point x="45.66" y="104.85" type="curve"/>
      <point x="9.290000000000001" y="28.22" type="line"/>
      <point x="40.92" y="5.45"/>
      <point x="90.82000000000001" y="-10.0"/>
      <point x="149.37" y="-10.0" type="curve" smooth="yes"/>
      <point x="341.68999999999994" y="-10.0"/>
      <point x="456.41" y="218.34000000000003"/>
      <point x="456.41" y="498.93" type="curve" smooth="yes"/>
      <point x="456.41" y="645.0"/>
      <point x="391.44" y="710.0"/>
    </contour>
  </outline>
</glyph>
<glyph name="less" format="2">
  <advance width="409.198"/>
  <unicode hex="003C"/>
  <outline>
    <contour>
      <point x="341.76399999999995" y="87.408" type="line"/>
      <point x="353.966" y="167.0" type="line"/>
      <point x="121.51" y="299.406" type="line"/>
      <point x="396.514" y="432.526" type="line"/>
      <point x="408.71599999999995" y="512.972" type="line"/>
      <point x="48.884" y="344.08199999999994" type="line"/>
      <point x="35.108000000000004" y="257.586" type="line"/>
    </contour>
  </outline>
</glyph>
<glyph name="equal" format="2">
  <advance width="396.442"/>
  <unicode hex="003D"/>
  <outline>
    <contour>
      <point x="344.4" y="234.324" type="line"/>
      <point x="39.54" y="234.324" type="line"/>
      <point x="26.994" y="150.48200000000003" type="line"/>
      <point x="331.85400000000004" y="150.48200000000003" type="line"/>
    </contour>
    <contour>
      <point x="376.83000000000004" y="450.47" type="line"/>
      <point x="72.228" y="450.47" type="line"/>
      <point x="59.424" y="366.628" type="line"/>
      <point x="364.28400000000005" y="366.628" type="line"/>
    </contour>
  </outline>
</glyph>
<glyph name="greater" format="2">
  <advance width="409.198"/>
  <unicode hex="003E"/>
  <outline>
    <contour>
      <point x="368.58000000000004" y="256.218" type="line"/>
      <point x="382.18399999999997" y="341.42400000000004" type="line"/>
      <point x="75.588" y="511.2" type="line"/>
      <point x="63.214000000000006" y="432.64" type="line"/>
      <point x="296.5559999999999" y="299.86199999999997" type="line"/>
      <point x="21.294" y="167.57000000000002" type="line"/>
      <point x="8.55" y="86.49600000000001" type="line"/>
    </contour>
  </outline>
</glyph>
<glyph name="question" format="2">
  <advance width="355.51"/>
  <unicode hex="003F"/>
  <outline>
    <contour>
      <point x="117.63" y="261.93799999999993" type="line"/>
      <point x="196.43200000000002" y="261.93799999999993" type="line"/>
      <point x="208.14600000000002" y="333.496" type="line"/>
      <point x="310.468" y="402.01200000000006"/>
      <point x="385.178" y="469.662"/>
      <point x="385.178" y="600.9879999999999" type="curve" smooth="yes"/>
      <point x="385.178" y="697.9499999999999"/>
      <point x="324.096" y="750.0"/>
      <point x="239.15" y="750.0" type="curve" smooth="yes"/>
      <point x="185.074" y="750.0"/>
      <point x="122.38" y="728.002"/>
      <point x="75.08399999999999" y="690.5699999999999" type="curve"/>
      <point x="94.52" y="610.348" type="line"/>
      <point x="135.534" y="640.012"/>
      <point x="174.16400000000002" y="655.978"/>
      <point x="213.96200000000002" y="655.978" type="curve" smooth="yes"/>
      <point x="255.006" y="655.978"/>
      <point x="288.54999999999995" y="637.1560000000001"/>
      <point x="288.54999999999995" y="577.636" type="curve" smooth="yes"/>
      <point x="288.54999999999995" y="491.984"/>
      <point x="244.674" y="438.628"/>
      <point x="134.096" y="378.038" type="curve"/>
    </contour>
    <contour>
      <point x="72.566" y="34.942" type="curve" smooth="yes"/>
      <point x="72.53999999999999" y="7.476"/>
      <point x="83.858" y="-4.3"/>
      <point x="115.012" y="-4.3" type="curve" smooth="yes"/>
      <point x="162.488" y="-4.3"/>
      <point x="178.99599999999998" y="30.669999999999998"/>
      <point x="179.074" y="75.22600000000001" type="curve" smooth="yes"/>
      <point x="179.1" y="103.52"/>
      <point x="166.78400000000002" y="115.184"/>
      <point x="136.602" y="115.184" type="curve" smooth="yes"/>
      <point x="89.69400000000002" y="115.184"/>
      <point x="72.644" y="79.956"/>
    </contour>
  </outline>
</glyph>
<glyph name="at" format="2">
  <advance width="647.85"/>
  <unicode hex="0040"/>
  <outline>
    <contour>
      <point x="262.3" y="-122.93" type="curve" smooth="yes"/>
      <point x="318.35" y="-122.93"/>
      <point x="382.24" y="-102.59"/>
      <point x="426.75" y="-64.99000000000001" type="curve"/>
      <point x="412.46000000000004" y="-28.61" type="line"/>
      <point x="368.65" y="-60.64"/>
      <point x="317.5" y="-77.62"/>
      <point x="264.8" y="-77.62" type="curve" smooth="yes"/>
      <point x="145.46" y="-77.62"/>
      <point x="67.32" y="-4.340000000000001"/>
      <point x="67.32" y="153.37" type="curve" smooth="yes"/>
      <point x="67.32" y="413.82"/>
      <point x="201.59" y="669.0400000000001"/>
      <point x="399.65999999999997" y="669.0400000000001" type="curve" smooth="yes"/>
      <point x="525.4100000000001" y="669.0400000000001"/>
      <point x="595.16" y="605.5600000000001"/>
      <point x="595.16" y="458.72" type="curve" smooth="yes"/>
      <point x="595.16" y="313.40000000000003"/>
      <point x="543.2499999999999" y="117.83"/>
      <point x="471.87" y="117.83" type="curve" smooth="yes"/>
      <point x="430.71999999999997" y="117.83"/>
      <point x="432.90999999999997" y="172.33999999999997"/>
      <point x="444.13" y="220.06" type="curve" smooth="yes"/>
      <point x="514.0600000000001" y="520.5" type="line"/>
      <point x="471.89" y="539.4499999999999"/>
      <point x="430.26" y="549.5400000000001"/>
      <point x="385.34000000000003" y="549.5400000000001" type="curve" smooth="yes"/>
      <point x="245.41999999999996" y="549.5400000000001"/>
      <point x="153.42999999999998" y="332.09"/>
      <point x="153.42999999999998" y="168.91000000000003" type="curve" smooth="yes"/>
      <point x="153.42999999999998" y="96.42999999999999"/>
      <point x="187.1" y="60.690000000000005"/>
      <point x="243.07000000000002" y="60.690000000000005" type="curve" smooth="yes"/>
      <point x="292.88" y="60.690000000000005"/>
      <point x="339.31" y="92.4"/>
      <point x="372.18" y="146.43" type="curve"/>
      <point x="379.35999999999996" y="102.98"/>
      <point x="396.29" y="58.040000000000006"/>
      <point x="455.74" y="58.040000000000006" type="curve" smooth="yes"/>
      <point x="571.28" y="58.040000000000006"/>
      <point x="643.62" y="283.14000000000004"/>
      <point x="643.62" y="467.09" type="curve" smooth="yes"/>
      <point x="643.62" y="629.84"/>
      <point x="549.66" y="714.56"/>
      <point x="408.33" y="714.56" type="curve" smooth="yes"/>
      <point x="172.38" y="714.56"/>
      <point x="18.07" y="446.09"/>
      <point x="18.07" y="142.14000000000001" type="curve" smooth="yes"/>
      <point x="18.07" y="-26.8"/>
      <point x="107.73" y="-122.93"/>
    </contour>
    <contour>
      <point x="282.68999999999994" y="140.17999999999998" type="curve" smooth="yes"/>
      <point x="255.36" y="140.17999999999998"/>
      <point x="240.73" y="158.66"/>
      <point x="240.73" y="193.76" type="curve" smooth="yes"/>
      <point x="240.73" y="304.65000000000003"/>
      <point x="313.66" y="483.15999999999997"/>
      <point x="376.82" y="483.15999999999997" type="curve" smooth="yes"/>
      <point x="394.45" y="483.15999999999997"/>
      <point x="409.57" y="480.09000000000003"/>
      <point x="426.12" y="473.31" type="curve"/>
      <point x="369.92" y="234.42" type="line" smooth="yes"/>
      <point x="351.09" y="176.10999999999999"/>
      <point x="314.36" y="140.17999999999998"/>
    </contour>
  </outline>
</glyph>
<glyph name="A" format="2">
  <advance width="459.565"/>
  <unicode hex="0041"/>
  <anchor x="184.96499999999997" y="0.0" name="bottom"/>
  <anchor x="403.875" y="0.0" name="ogonek"/>
  <anchor x="293.03" y="700.0" name="top"/>
  <outline>
    <contour>
      <point x="-32.31" y="0.0" type="line"/>
      <point x="66.165" y="0.0" type="line"/>
      <point x="128.65" y="167.465" type="line"/>
      <point x="295.28499999999997" y="167.465" type="line"/>
      <point x="305.04" y="0.0" type="line"/>
      <point x="403.875" y="0.0" type="line"/>
      <point x="357.21" y="706.5600000000001" type="line"/>
      <point x="231.56" y="706.5600000000001" type="line"/>
    </contour>
    <contour>
      <point x="154.64" y="249.89000000000001" type="line"/>
      <point x="280.58000000000004" y="613.64" type="line"/>
      <point x="295.93500000000006" y="249.89000000000001" type="line"/>
    </contour>
  </outline>
</glyph>
<glyph name="B" format="2">
  <advance width="454.41999999999996"/>
  <unicode hex="0042"/>
  <outline>
    <contour>
      <point x="5.876000000000003" y="-0.016000000000000347" type="line"/>
      <point x="81.604" y="-7.34"/>
      <point x="116.032" y="-10.0"/>
      <point x="176.72800000000004" y="-10.0" type="curve" smooth="yes"/>
      <point x="331.624" y="-10.0"/>
      <point x="423.60400000000004" y="103.10000000000002"/>
      <point x="423.60400000000004" y="242.148" type="curve" smooth="yes"/>
      <point x="423.60400000000004" y="310.96000000000004"/>
      <point x="391.884" y="356.084"/>
      <point x="345.112" y="371.61199999999997" type="curve"/>
      <point x="413.26399999999995" y="404.544"/>
      <point x="453.42400000000004" y="493.224"/>
      <point x="453.42400000000004" y="575.1200000000001" type="curve" smooth="yes"/>
      <point x="453.42400000000004" y="662.216"/>
      <point x="401.5160000000001" y="710.0"/>
      <point x="282.07200000000006" y="710.0" type="curve" smooth="yes"/>
      <point x="245.74" y="710.0"/>
      <point x="193.62400000000002" y="707.2560000000001"/>
      <point x="116.416" y="699.104" type="curve"/>
    </contour>
    <contour>
      <point x="160.416" y="392.284" type="line"/>
      <point x="196.684" y="624.052" type="line"/>
      <point x="225.2" y="627.164"/>
      <point x="247.444" y="629.392"/>
      <point x="273.676" y="629.392" type="curve" smooth="yes"/>
      <point x="335.004" y="629.392"/>
      <point x="363.188" y="607.8720000000001"/>
      <point x="363.188" y="549.6" type="curve" smooth="yes"/>
      <point x="363.188" y="470.47999999999996"/>
      <point x="313.44" y="392.284"/>
      <point x="254.248" y="392.284" type="curve" smooth="yes"/>
    </contour>
    <contour>
      <point x="148.12800000000001" y="316.37999999999994" type="line"/>
      <point x="249.656" y="316.37999999999994" type="line" smooth="yes"/>
      <point x="293.796" y="316.37999999999994"/>
      <point x="330.47200000000004" y="289.872"/>
      <point x="330.47200000000004" y="232.096" type="curve" smooth="yes"/>
      <point x="330.47200000000004" y="138.808"/>
      <point x="277.456" y="70.57600000000001"/>
      <point x="187.67200000000003" y="70.57600000000001" type="curve" smooth="yes"/>
      <point x="161.72" y="70.57600000000001"/>
      <point x="139.42" y="72.116"/>
      <point x="109.748" y="74.94400000000002" type="curve"/>
    </contour>
  </outline>
</glyph>
<glyph name="C" format="2">
  <advance width="424.19399999999996"/>
  <unicode hex="0043"/>
  <anchor x="226.60900000000004" y="0.0" name="bottom"/>
  <anchor x="329.1530000000001" y="700.0" name="top"/>
  <outline>
    <contour>
      <point x="246.62199999999999" y="-10.0" type="curve" smooth="yes"/>
      <point x="294.557" y="-10.0"/>
      <point x="334.651" y="-4.457999999999999"/>
      <point x="370.849" y="7.3740000000000006" type="curve"/>
      <point x="364.74600000000004" y="87.58399999999997" type="line"/>
      <point x="335.24100000000004" y="79.78999999999999"/>
      <point x="301.41900000000004" y="74.57499999999999"/>
      <point x="265.523" y="74.57499999999999" type="curve" smooth="yes"/>
      <point x="175.33999999999997" y="74.57499999999999"/>
      <point x="127.36999999999999" y="116.18799999999999"/>
      <point x="127.36999999999999" y="225.18400000000003" type="curve" smooth="yes"/>
      <point x="127.36999999999999" y="448.265"/>
      <point x="207.15000000000003" y="625.4250000000001"/>
      <point x="332.958" y="625.4250000000001" type="curve" smooth="yes"/>
      <point x="369.369" y="625.4250000000001"/>
      <point x="402.575" y="619.565"/>
      <point x="437.705" y="608.537" type="curve"/>
      <point x="464.2420000000001" y="685.877" type="line"/>
      <point x="423.89500000000004" y="702.8499999999999"/>
      <point x="378.4160000000001" y="710.0"/>
      <point x="329.10600000000005" y="710.0" type="curve" smooth="yes"/>
      <point x="147.71" y="710.0"/>
      <point x="32.26" y="508.17999999999995"/>
      <point x="32.26" y="211.52700000000002" type="curve" smooth="yes"/>
      <point x="32.26" y="59.431"/>
      <point x="105.674" y="-10.0"/>
    </contour>
  </outline>
</glyph>
<glyph name="D" format="2">
  <advance width="487.767"/>
  <unicode hex="0044"/>
  <anchor x="187.70700000000005" y="0.0" name="bottom"/>
  <anchor x="251.259985" y="350.0" name="center"/>
  <anchor x="280.687" y="700.0" name="top"/>
  <outline>
    <contour>
      <point x="166.53099999999998" y="-10.0" type="curve" smooth="yes"/>
      <point x="359.79800000000006" y="-10.0"/>
      <point x="475.42300000000006" y="176.466"/>
      <point x="475.42300000000006" y="454.953" type="curve" smooth="yes"/>
      <point x="475.42300000000006" y="633.979"/>
      <point x="396.488" y="710.0"/>
      <point x="256.60400000000004" y="710.0" type="curve" smooth="yes"/>
      <point x="210.77" y="710.0"/>
      <point x="168.62699999999998" y="707.654"/>
      <point x="116.28699999999999" y="702.289" type="curve"/>
      <point x="4.745" y="-0.8870000000000006" type="line"/>
      <point x="56.19599999999999" y="-6.8500000000000005"/>
      <point x="101.957" y="-10.0"/>
    </contour>
    <contour>
      <point x="176.87900000000002" y="68.546" type="curve" smooth="yes"/>
      <point x="150.049" y="68.546"/>
      <point x="132.649" y="70.00399999999999"/>
      <point x="108.76299999999999" y="71.92899999999999" type="curve"/>
      <point x="196.684" y="624.575" type="line"/>
      <point x="213.79500000000002" y="626.145"/>
      <point x="236.849" y="627.36"/>
      <point x="259.82899999999995" y="627.36" type="curve" smooth="yes"/>
      <point x="332.973" y="627.36"/>
      <point x="382.22" y="578.7260000000001"/>
      <point x="382.22" y="453.383" type="curve" smooth="yes"/>
      <point x="382.22" y="236.86899999999997"/>
      <point x="294.787" y="68.546"/>
    </contour>
  </outline>
</glyph>
<glyph name="E" format="2">
  <advance width="405.243"/>
  <unicode hex="0045"/>
  <anchor x="175.56400000000002" y="0.0" name="bottom"/>
  <anchor x="342.23400000000004" y="0.0" name="ogonek"/>
  <anchor x="279.90999999999997" y="700.0" name="top"/>
  <anchor x="89.40329500000001" y="700.0" name="topleft"/>
  <outline>
    <contour>
      <point x="5.072000000000001" y="0.0" type="line"/>
      <point x="342.23400000000004" y="0.0" type="line"/>
      <point x="355.984" y="85.005" type="line"/>
      <point x="110.49199999999999" y="85.005" type="line"/>
      <point x="146.61900000000003" y="316.71999999999997" type="line"/>
      <point x="359.5590000000001" y="316.71999999999997" type="line"/>
      <point x="373.73900000000003" y="399.575" type="line"/>
      <point x="160.12600000000003" y="399.575" type="line"/>
      <point x="194.31" y="613.9200000000001" type="line"/>
      <point x="426.858" y="613.9200000000001" type="line"/>
      <point x="441.365" y="700.0" type="line"/>
      <point x="115.53000000000002" y="700.0" type="line"/>
    </contour>
  </outline>
</glyph>
<glyph name="F" format="2">
  <advance width="385.71999999999997"/>
  <unicode hex="0046"/>
  <outline>
    <contour>
      <point x="5.072000000000001" y="0.0" type="line"/>
      <point x="96.888" y="0.0" type="line"/>
      <point x="142.544" y="283.524" type="line"/>
      <point x="337.64000000000004" y="283.524" type="line"/>
      <point x="351.27600000000007" y="370.2920000000001" type="line"/>
      <point x="156.00799999999998" y="370.2920000000001" type="line"/>
      <point x="194.22400000000002" y="613.232" type="line"/>
      <point x="425.508" y="613.232" type="line"/>
      <point x="439.86" y="700.0" type="line"/>
      <point x="115.96000000000001" y="700.0" type="line"/>
    </contour>
  </outline>
</glyph>
<glyph name="G" format="2">
  <advance width="454.95000000000005"/>
  <unicode hex="0047"/>
  <anchor x="227.6" y="0.0" name="bottom"/>
  <anchor x="329.69399999999996" y="700.0" name="top"/>
  <outline>
    <contour>
      <point x="235.72400000000002" y="-10.0" type="curve" smooth="yes"/>
      <point x="291.82800000000003" y="-10.0"/>
      <point x="344.61600000000004" y="1.1239999999999999"/>
      <point x="379.30400000000003" y="19.868" type="curve"/>
      <point x="434.91800000000006" y="369.378" type="line"/>
      <point x="253.35600000000002" y="369.378" type="line"/>
      <point x="241.49800000000002" y="294.22" type="line"/>
      <point x="340.50600000000003" y="294.22" type="line"/>
      <point x="306.31800000000004" y="79.79" type="line"/>
      <point x="291.11" y="73.45400000000001"/>
      <point x="266.81800000000004" y="69.372"/>
      <point x="240.644" y="69.372" type="curve" smooth="yes"/>
      <point x="166.58" y="69.372"/>
      <point x="122.182" y="110.262"/>
      <point x="122.182" y="216.756" type="curve" smooth="yes"/>
      <point x="122.182" y="439.876"/>
      <point x="203.648" y="626.0699999999999"/>
      <point x="332.158" y="626.0699999999999" type="curve" smooth="yes"/>
      <point x="373.89" y="626.0699999999999"/>
      <point x="407.246" y="617.974"/>
      <point x="442.836" y="607.52" type="curve"/>
      <point x="471.394" y="686.466" type="line"/>
      <point x="430.554" y="702.1700000000001"/>
      <point x="382.094" y="710.0"/>
      <point x="330.97200000000004" y="710.0" type="curve" smooth="yes"/>
      <point x="132.056" y="710.0"/>
      <point x="31.028000000000002" y="474.922"/>
      <point x="31.028000000000002" y="210.57000000000002" type="curve" smooth="yes"/>
      <point x="31.028000000000002" y="61.43"/>
      <point x="107.578" y="-10.0"/>
    </contour>
  </outline>
</glyph>
<glyph name="H" format="2">
  <advance width="493.262"/>
  <unicode hex="0048"/>
  <anchor x="203.15753600000002" y="0.0" name="bottom"/>
  <anchor x="258.85017600000003" y="350.0" name="center"/>
  <anchor x="314.086272" y="700.0" name="top"/>
  <anchor x="86.25827199999999" y="700.0" name="topleft"/>
  <outline>
    <contour>
      <point x="4.986000000000001" y="0.0" type="line"/>
      <point x="97.8" y="0.0" type="line"/>
      <point x="140.016" y="267.952" type="line"/>
      <point x="351.192" y="267.952" type="line"/>
      <point x="309.148" y="0.0" type="line"/>
      <point x="400.38800000000003" y="0.0" type="line"/>
      <point x="511.732" y="700.0" type="line"/>
      <point x="420.23400000000004" y="700.0" type="line"/>
      <point x="364.68399999999997" y="351.96799999999996" type="line"/>
      <point x="153.052" y="351.96799999999996" type="line"/>
      <point x="208.68800000000002" y="700.0" type="line"/>
      <point x="115.87400000000001" y="700.0" type="line"/>
    </contour>
  </outline>
</glyph>
<glyph name="I" format="2">
  <advance width="190.21800000000002"/>
  <unicode hex="0049"/>
  <anchor x="51.369352000000006" y="0.0" name="bottom"/>
  <anchor x="98.385632" y="3.4399999999999995" name="ogonek"/>
  <anchor x="162.309354" y="700.0" name="top"/>
  <anchor x="89.615672" y="700.0" name="topleft"/>
  <outline>
    <contour>
      <point x="4.986000000000001" y="0.0" type="line"/>
      <point x="97.34400000000001" y="0.0" type="line"/>
      <point x="208.68800000000002" y="700.0" type="line"/>
      <point x="115.87400000000001" y="700.0" type="line"/>
    </contour>
  </outline>
</glyph>
<glyph name="J" format="2">
  <advance width="345.428"/>
  <unicode hex="004A"/>
  <anchor x="106.336736" y="0.0" name="bottom"/>
  <anchor x="239.49200000000002" y="700.0" name="top"/>
  <outline>
    <contour>
      <point x="-33.318000000000005" y="14.83" type="line"/>
      <point x="2.0000000000000018" y="0.8399999999999999"/>
      <point x="41.958" y="-10.0"/>
      <point x="94.684" y="-10.0" type="curve" smooth="yes"/>
      <point x="206.342" y="-10.0"/>
      <point x="265.952" y="55.882"/>
      <point x="285.138" y="173.994" type="curve" smooth="yes"/>
      <point x="368.922" y="700.0" type="line"/>
      <point x="105.622" y="700.0" type="line"/>
      <point x="92.30199999999999" y="617.5319999999999" type="line"/>
      <point x="263.244" y="617.5319999999999" type="line"/>
      <point x="196.682" y="200.576" type="line" smooth="yes"/>
      <point x="182.22600000000003" y="110.126"/>
      <point x="142.73000000000002" y="80.638"/>
      <point x="81.146" y="80.638" type="curve" smooth="yes"/>
      <point x="49.43000000000001" y="80.638"/>
      <point x="20.222" y="88.522"/>
      <point x="-7.936" y="97.524" type="curve"/>
    </contour>
  </outline>
</glyph>
<glyph name="K" format="2">
  <advance width="456.752"/>
  <unicode hex="004B"/>
  <anchor x="201.62" y="0.0" name="bottom"/>
  <anchor x="293.34" y="700.0" name="top"/>
  <outline>
    <contour>
      <point x="4.428000000000001" y="0.0" type="line"/>
      <point x="97.54400000000001" y="0.0" type="line"/>
      <point x="208.388" y="700.0" type="line"/>
      <point x="116.132" y="700.0" type="line"/>
    </contour>
    <contour>
      <point x="376.592" y="-9.687999999999999" type="curve" smooth="yes"/>
      <point x="387.284" y="-9.687999999999999"/>
      <point x="404.48" y="-6.264"/>
      <point x="411.184" y="-2.904" type="curve"/>
      <point x="420.224" y="96.968" type="line"/>
      <point x="416.348" y="97.156"/>
      <point x="412.144" y="96.156"/>
      <point x="407.628" y="96.156" type="curve" smooth="yes"/>
      <point x="382.392" y="96.156"/>
      <point x="358.4" y="108.828"/>
      <point x="323.448" y="168.852" type="curve" smooth="yes"/>
      <point x="156.108" y="457.524" type="line"/>
      <point x="131.98399999999998" y="324.548" type="line"/>
      <point x="275.364" y="75.50800000000001" type="line" smooth="yes"/>
      <point x="311.392" y="10.16"/>
      <point x="336.33599999999996" y="-9.687999999999999"/>
    </contour>
    <contour>
      <point x="227.232" y="287.55199999999996" type="line"/>
      <point x="319.732" y="369.408"/>
      <point x="437.56399999999996" y="508.20000000000005"/>
      <point x="499.69199999999995" y="675.9960000000001" type="curve"/>
      <point x="427.996" y="707.4200000000001" type="line"/>
      <point x="359.92799999999994" y="548.3960000000001"/>
      <point x="259.836" y="422.82399999999996"/>
      <point x="187.364" y="358.808" type="curve"/>
    </contour>
  </outline>
</glyph>
<glyph name="L" format="2">
  <advance width="369.99399999999997"/>
  <unicode hex="004C"/>
  <anchor x="164.41400000000002" y="0.0" name="bottom"/>
  <anchor x="191.744176" y="350.0" name="center"/>
  <anchor x="161.768" y="700.0" name="top"/>
  <anchor x="307.706" y="700.0" name="topright"/>
  <outline>
    <contour>
      <point x="4.53" y="0.0" type="line"/>
      <point x="314.78400000000005" y="0.0" type="line"/>
      <point x="328.534" y="84.532" type="line"/>
      <point x="110.466" y="84.532" type="line"/>
      <point x="208.232" y="700.0" type="line"/>
      <point x="115.87400000000001" y="700.0" type="line"/>
    </contour>
  </outline>
</glyph>
<glyph name="M" format="2">
  <advance width="558.206"/>
  <unicode hex="004D"/>
  <outline>
    <contour>
      <point x="4.686" y="0.0" type="line"/>
      <point x="90.234" y="0.0" type="line"/>
      <point x="173.97" y="539.584" type="line"/>
      <point x="244.42400000000004" y="211.974" type="line"/>
      <point x="290.96" y="211.974" type="line"/>
      <point x="466.762" y="539.1220000000001" type="line"/>
      <point x="380.112" y="0.0" type="line"/>
      <point x="465.33200000000005" y="0.0" type="line"/>
      <point x="576.676" y="700.0" type="line"/>
      <point x="474.51800000000003" y="700.0" type="line"/>
      <point x="287.61" y="347.172" type="line"/>
      <point x="211.184" y="700.0" type="line"/>
      <point x="115.87400000000001" y="700.0" type="line"/>
    </contour>
  </outline>
</glyph>
<glyph name="N" format="2">
  <advance width="491.62"/>
  <unicode hex="004E"/>
  <anchor x="207.06" y="0.0" name="bottom"/>
  <anchor x="313.56" y="700.0" name="top"/>
  <outline>
    <contour>
      <point x="5.1000000000000005" y="0.0" type="line"/>
      <point x="88.67" y="0.0" type="line"/>
      <point x="169.595" y="511.21" type="line"/>
      <point x="309.0" y="-1.1400000000000001" type="line"/>
      <point x="398.66" y="-1.1400000000000001" type="line"/>
      <point x="510.0900000000001" y="700.0" type="line"/>
      <point x="426.59" y="700.0" type="line"/>
      <point x="343.58500000000004" y="177.45999999999998" type="line"/>
      <point x="207.04500000000002" y="701.14" type="line"/>
      <point x="116.245" y="701.14" type="line"/>
    </contour>
  </outline>
</glyph>
<glyph name="O" format="2">
  <advance width="501.69999999999993"/>
  <unicode hex="004F"/>
  <note>
8
</note>
  <anchor x="209.13" y="0.0" name="bottom"/>
  <anchor x="264.7" y="350.0" name="center"/>
  <anchor x="271.69000000000005" y="1.29" name="ogonek"/>
  <anchor x="318.84" y="700.0" name="top"/>
  <anchor x="90.28" y="700.0" name="topleft"/>
  <anchor x="414.97999999999996" y="693.51" name="topright"/>
  <outline>
    <contour>
      <point x="217.85999999999999" y="-8.71" type="curve" smooth="yes"/>
      <point x="407.70000000000005" y="-8.71"/>
      <point x="492.51" y="261.15999999999997"/>
      <point x="492.51" y="481.01000000000005" type="curve" smooth="yes"/>
      <point x="492.51" y="636.98"/>
      <point x="427.96999999999997" y="708.71"/>
      <point x="307.84000000000003" y="708.71" type="curve" smooth="yes"/>
      <point x="118.0" y="708.71"/>
      <point x="33.190000000000005" y="438.84000000000003"/>
      <point x="33.190000000000005" y="218.99" type="curve" smooth="yes"/>
      <point x="33.190000000000005" y="63.02000000000001"/>
      <point x="97.73" y="-8.71"/>
    </contour>
    <contour>
      <point x="226.03" y="77.23" type="curve" smooth="yes"/>
      <point x="164.48" y="77.23"/>
      <point x="127.44" y="113.5"/>
      <point x="127.44" y="215.32999999999998" type="curve" smooth="yes"/>
      <point x="127.44" y="371.72"/>
      <point x="186.17" y="622.77"/>
      <point x="300.1" y="622.77" type="curve" smooth="yes"/>
      <point x="361.21999999999997" y="622.77"/>
      <point x="398.26" y="586.5"/>
      <point x="398.26" y="484.66999999999996" type="curve" smooth="yes"/>
      <point x="398.26" y="328.28"/>
      <point x="339.53000000000003" y="77.23"/>
    </contour>
  </outline>
</glyph>
<glyph name="P" format="2">
  <advance width="453.92499999999995"/>
  <unicode hex="0050"/>
  <outline>
    <contour>
      <point x="5.315" y="0.0" type="line"/>
      <point x="97.415" y="0.0" type="line"/>
      <point x="134.53" y="231.39" type="line"/>
      <point x="168.54" y="228.815"/>
      <point x="185.23499999999999" y="228.53"/>
      <point x="225.695" y="228.53" type="curve" smooth="yes"/>
      <point x="380.83000000000004" y="228.53"/>
      <point x="468.365" y="347.07500000000005"/>
      <point x="468.65000000000003" y="535.35" type="curve" smooth="yes"/>
      <point x="468.65000000000003" y="655.115"/>
      <point x="411.84" y="710.0"/>
      <point x="277.06" y="710.0" type="curve" smooth="yes"/>
      <point x="242.95499999999998" y="710.0"/>
      <point x="190.155" y="707.57"/>
      <point x="116.745" y="702.355" type="curve"/>
    </contour>
    <contour>
      <point x="196.88500000000002" y="624.08" type="line"/>
      <point x="230.07999999999998" y="626.935"/>
      <point x="247.34" y="628.22"/>
      <point x="269.76" y="628.22" type="curve" smooth="yes"/>
      <point x="346.95" y="628.22"/>
      <point x="376.54999999999995" y="597.315"/>
      <point x="376.54999999999995" y="520.315" type="curve" smooth="yes"/>
      <point x="376.54999999999995" y="403.57"/>
      <point x="323.31" y="310.52500000000003"/>
      <point x="222.035" y="310.52500000000003" type="curve" smooth="yes"/>
      <point x="198.07000000000002" y="310.52500000000003"/>
      <point x="177.96" y="311.595"/>
      <point x="147.42000000000002" y="313.31" type="curve"/>
    </contour>
  </outline>
</glyph>
<glyph name="Q" format="2">
  <advance width="501.492"/>
  <unicode hex="0051"/>
  <note>
14
</note>
  <outline>
    <contour>
      <point x="348.302" y="-180.776" type="curve" smooth="yes"/>
      <point x="371.244" y="-180.776"/>
      <point x="394.33000000000004" y="-177.20600000000002"/>
      <point x="415.874" y="-168.84" type="curve"/>
      <point x="420.018" y="-90.436" type="line"/>
      <point x="404.66" y="-96.914"/>
      <point x="387.09999999999997" y="-100.054"/>
      <point x="369.05199999999996" y="-100.054" type="curve" smooth="yes"/>
      <point x="319.278" y="-100.054"/>
      <point x="278.024" y="-72.312"/>
      <point x="271.968" y="10.266" type="curve"/>
      <point x="193.71200000000002" y="5.855999999999999" type="line"/>
      <point x="201.252" y="-134.608"/>
      <point x="272.762" y="-180.776"/>
    </contour>
    <component base="O"/>
  </outline>
</glyph>
<glyph name="R" format="2">
  <advance width="467.78000000000003"/>
  <unicode hex="0052"/>
  <anchor x="208.39" y="0.0" name="bottom"/>
  <anchor x="275.15999999999997" y="700.0" name="top"/>
  <outline>
    <contour>
      <point x="4.670000000000001" y="0.0" type="line"/>
      <point x="97.63000000000001" y="0.0" type="line"/>
      <point x="139.24999999999997" y="262.21" type="line"/>
      <point x="167.16" y="261.64"/>
      <point x="194.78000000000003" y="261.07"/>
      <point x="237.77" y="260.64" type="curve"/>
      <point x="247.01000000000002" y="264.51" type="line"/>
      <point x="376.25" y="265.01"/>
      <point x="467.87" y="368.89"/>
      <point x="467.87" y="532.8399999999999" type="curve" smooth="yes"/>
      <point x="467.87" y="648.8"/>
      <point x="411.03000000000003" y="710.0"/>
      <point x="275.9" y="710.0" type="curve" smooth="yes"/>
      <point x="225.65" y="710.0"/>
      <point x="177.88000000000002" y="707.14"/>
      <point x="116.53" y="701.78" type="curve"/>
    </contour>
    <contour>
      <point x="387.33" y="-10.0" type="curve" smooth="yes"/>
      <point x="396.41" y="-10.0"/>
      <point x="414.45" y="-6.64"/>
      <point x="420.96" y="-3.42" type="curve"/>
      <point x="429.07" y="88.83" type="line"/>
      <point x="424.5" y="87.69"/>
      <point x="420.14" y="87.69"/>
      <point x="417.28" y="87.69" type="curve" smooth="yes"/>
      <point x="381.55" y="87.83"/>
      <point x="346.32" y="125.53"/>
      <point x="301.72999999999996" y="304.23" type="curve"/>
      <point x="216.51" y="282.59999999999997" type="line"/>
      <point x="282.8" y="30.27"/>
      <point x="323.85" y="-10.0"/>
    </contour>
    <contour>
      <point x="234.51999999999998" y="340.77" type="curve" smooth="yes"/>
      <point x="199.65" y="340.77"/>
      <point x="175.32" y="341.63"/>
      <point x="151.85" y="343.63" type="curve"/>
      <point x="197.17000000000002" y="625.9399999999999" type="line"/>
      <point x="229.44" y="629.01"/>
      <point x="244.42000000000002" y="630.08"/>
      <point x="272.61" y="630.08" type="curve" smooth="yes"/>
      <point x="349.36" y="630.08"/>
      <point x="373.19" y="595.38"/>
      <point x="373.19" y="530.1800000000001" type="curve" smooth="yes"/>
      <point x="373.19" y="411.26"/>
      <point x="317.72999999999996" y="340.77"/>
    </contour>
  </outline>
</glyph>
<glyph name="S" format="2">
  <advance width="421.19499999999994"/>
  <unicode hex="0053"/>
  <anchor x="167.785" y="0.0" name="bottom"/>
  <anchor x="285.52500000000003" y="700.0" name="top"/>
  <outline>
    <contour>
      <point x="434.29" y="682.12" type="line"/>
      <point x="392.125" y="699.5600000000001"/>
      <point x="344.645" y="710.0"/>
      <point x="290.67" y="710.0" type="curve" smooth="yes"/>
      <point x="150.365" y="710.0"/>
      <point x="66.305" y="632.47"/>
      <point x="66.305" y="509.07" type="curve" smooth="yes"/>
      <point x="66.305" y="328.02500000000003"/>
      <point x="289.135" y="308.06999999999994"/>
      <point x="289.06500000000005" y="182.76500000000001" type="curve" smooth="yes"/>
      <point x="289.06500000000005" y="118.86"/>
      <point x="243.68" y="73.64000000000001"/>
      <point x="163.47500000000002" y="73.64000000000001" type="curve" smooth="yes"/>
      <point x="110.24499999999999" y="73.64000000000001"/>
      <point x="59.809999999999995" y="84.14500000000001"/>
      <point x="10.334999999999997" y="104.01499999999999" type="curve"/>
      <point x="-20.805" y="24.67" type="line"/>
      <point x="26.865000000000002" y="2.08"/>
      <point x="90.19000000000001" y="-10.0"/>
      <point x="156.89499999999998" y="-10.0" type="curve" smooth="yes"/>
      <point x="301.185" y="-10.0"/>
      <point x="383.4549999999999" y="71.385"/>
      <point x="383.4549999999999" y="191.21" type="curve" smooth="yes"/>
      <point x="383.955" y="367.89"/>
      <point x="161.91500000000002" y="393.22"/>
      <point x="161.91500000000002" y="515.01" type="curve" smooth="yes"/>
      <point x="161.91500000000002" y="583.7049999999999"/>
      <point x="210.87" y="625.78"/>
      <point x="285.73499999999996" y="625.78" type="curve" smooth="yes"/>
      <point x="329.465" y="625.78"/>
      <point x="367.495" y="618.9200000000001"/>
      <point x="404.15" y="603.63" type="curve"/>
    </contour>
  </outline>
</glyph>
<glyph name="T" format="2">
  <advance width="399.652"/>
  <unicode hex="0054"/>
  <anchor x="155.97873600000003" y="0.0" name="bottom"/>
  <anchor x="211.770582" y="350.0" name="center"/>
  <anchor x="266.969354" y="700.0" name="top"/>
  <outline>
    <contour>
      <point x="445.324" y="618.8219999999999" type="line"/>
      <point x="458.98800000000006" y="700.0" type="line"/>
      <point x="75.61" y="700.0" type="line"/>
      <point x="61.86" y="618.8219999999999" type="line"/>
      <point x="207.50000000000003" y="618.8219999999999" type="line"/>
      <point x="109.39" y="0.0" type="line"/>
      <point x="201.748" y="0.0" type="line"/>
      <point x="299.772" y="618.8219999999999" type="line"/>
    </contour>
  </outline>
</glyph>
<glyph name="U" format="2">
  <advance width="481.524"/>
  <unicode hex="0055"/>
  <anchor x="197.05292" y="0.0" name="bottom"/>
  <anchor x="253.47200000000004" y="0.0" name="ogonek"/>
  <anchor x="306.62859000000003" y="700.0" name="top"/>
  <anchor x="494.52599999999995" y="700.0" name="topright"/>
  <outline>
    <contour>
      <point x="193.916" y="-10.0" type="curve" smooth="yes"/>
      <point x="328.618" y="-10.0"/>
      <point x="401.506" y="52.85"/>
      <point x="423.516" y="189.452" type="curve" smooth="yes"/>
      <point x="505.01800000000003" y="700.0" type="line"/>
      <point x="412.80600000000004" y="700.0" type="line"/>
      <point x="329.9" y="179.13200000000003" type="line" smooth="yes"/>
      <point x="318.946" y="107.61"/>
      <point x="279.372" y="72.12400000000001"/>
      <point x="209.09400000000002" y="72.12400000000001" type="curve" smooth="yes"/>
      <point x="141.952" y="72.12400000000001"/>
      <point x="108.97" y="107.7"/>
      <point x="119.328" y="170.354" type="curve" smooth="yes"/>
      <point x="202.978" y="700.0" type="line"/>
      <point x="111.22200000000001" y="700.0" type="line"/>
      <point x="28.922000000000004" y="179.192" type="line" smooth="yes"/>
      <point x="25.49" y="157.712"/>
      <point x="24.602" y="147.292"/>
      <point x="24.602" y="131.832" type="curve" smooth="yes"/>
      <point x="24.602" y="38.297999999999995"/>
      <point x="82.678" y="-10.0"/>
    </contour>
  </outline>
</glyph>
<glyph name="V" format="2">
  <advance width="444.381"/>
  <unicode hex="0056"/>
  <outline>
    <contour>
      <point x="230.991" y="0.0" type="line"/>
      <point x="429.90500000000003" y="421.921"/>
      <point x="479.28499999999997" y="544.6899999999999"/>
      <point x="491.11" y="669.5899999999999" type="curve" smooth="yes"/>
      <point x="491.54" y="680.241"/>
      <point x="491.40000000000003" y="689.236"/>
      <point x="489.991" y="700.0" type="curve"/>
      <point x="391.151" y="700.0" type="line"/>
      <point x="392.205" y="690.655"/>
      <point x="393.076" y="682.891"/>
      <point x="393.076" y="674.595" type="curve" smooth="yes"/>
      <point x="390.281" y="564.53"/>
      <point x="340.208" y="448.653"/>
      <point x="193.182" y="100.28" type="curve"/>
      <point x="173.62" y="701.226" type="line"/>
      <point x="70.69999999999999" y="700.285" type="line"/>
      <point x="115.896" y="0.0" type="line"/>
    </contour>
  </outline>
</glyph>
<glyph name="W" format="2">
  <advance width="664.4599999999999"/>
  <unicode hex="0057"/>
  <anchor x="284.3" y="0.0" name="bottom"/>
  <anchor x="402.01" y="700.0" name="top"/>
  <outline>
    <contour>
      <point x="482.69" y="-0.5700000000000001" type="line"/>
      <point x="665.03" y="457.8"/>
      <point x="707.76" y="589.4399999999999"/>
      <point x="710.34" y="673.45" type="curve" smooth="yes"/>
      <point x="710.34" y="682.87"/>
      <point x="710.2" y="691.0100000000001"/>
      <point x="708.5600000000001" y="700.0" type="curve"/>
      <point x="612.95" y="700.0" type="line"/>
      <point x="614.0899999999999" y="691.1500000000001"/>
      <point x="614.8000000000001" y="683.51"/>
      <point x="614.8000000000001" y="674.59" type="curve" smooth="yes"/>
      <point x="610.9300000000001" y="570.8000000000001"/>
      <point x="580.79" y="483.46"/>
      <point x="441.77000000000004" y="113.52" type="curve"/>
      <point x="444.65000000000003" y="643.0300000000001" type="line"/>
      <point x="342.25" y="643.0300000000001" type="line"/>
      <point x="289.82" y="470.1"/>
      <point x="228.72" y="279.12"/>
      <point x="170.7" y="120.31" type="curve"/>
      <point x="170.82" y="700.0" type="line"/>
      <point x="72.2" y="700.0" type="line"/>
      <point x="88.77000000000001" y="-0.5700000000000001" type="line"/>
      <point x="195.78000000000003" y="-0.5700000000000001" type="line"/>
      <point x="261.03000000000003" y="175.2"/>
      <point x="320.26" y="341.09000000000003"/>
      <point x="370.46000000000004" y="496.65000000000003" type="curve"/>
      <point x="372.1" y="-0.5700000000000001" type="line"/>
    </contour>
  </outline>
</glyph>
<glyph name="X" format="2">
  <advance width="455.04"/>
  <unicode hex="0058"/>
  <outline>
    <contour>
      <point x="314.05" y="-3.4899999999999998" type="line"/>
      <point x="414.54" y="0.0" type="line"/>
      <point x="294.37999999999994" y="338.88" type="line"/>
      <point x="393.59" y="472.8"/>
      <point x="477.71" y="593.76"/>
      <point x="490.15" y="700.14" type="curve"/>
      <point x="389.15999999999997" y="701.21" type="line"/>
      <point x="383.61" y="610.23"/>
      <point x="330.95" y="522.27"/>
      <point x="258.64" y="421.3" type="curve"/>
      <point x="170.7" y="704.35" type="line"/>
      <point x="72.92999999999999" y="700.72" type="line"/>
      <point x="185.16" y="370.03999999999996" type="line"/>
      <point x="86.66" y="242.1"/>
      <point x="-12.219999999999999" y="109.48999999999998"/>
      <point x="-13.479999999999997" y="0.0" type="curve"/>
      <point x="88.44" y="0.0" type="line"/>
      <point x="89.7" y="90.68"/>
      <point x="148.32999999999998" y="185.53"/>
      <point x="221.04" y="287.62" type="curve"/>
    </contour>
  </outline>
</glyph>
<glyph name="Y" format="2">
  <advance width="426.64399999999995"/>
  <unicode hex="0059"/>
  <anchor x="168.62" y="0.0" name="bottom"/>
  <anchor x="281.62" y="700.0" name="top"/>
  <anchor x="89.32799999999999" y="700.0" name="topleft"/>
  <outline>
    <contour>
      <point x="123.576" y="0.0" type="line"/>
      <point x="214.47200000000004" y="0.0" type="line"/>
      <point x="258.59200000000004" y="268.82800000000003" type="line"/>
      <point x="372.72400000000005" y="411.788"/>
      <point x="436.628" y="525.8240000000001"/>
      <point x="476.276" y="662.504" type="curve" smooth="yes"/>
      <point x="479.432" y="674.94"/>
      <point x="483.276" y="688.22"/>
      <point x="486.44800000000004" y="701.1560000000001" type="curve"/>
      <point x="383.15200000000004" y="703.592" type="line"/>
      <point x="380.84000000000003" y="691.328"/>
      <point x="378.35600000000005" y="679.22"/>
      <point x="375.716" y="666.956" type="curve" smooth="yes"/>
      <point x="349.78000000000003" y="556.164"/>
      <point x="309.54" y="461.964"/>
      <point x="226.448" y="353.38800000000003" type="curve"/>
      <point x="173.388" y="702.764" type="line"/>
      <point x="69.372" y="700.0000000000001" type="line"/>
      <point x="166.712" y="268.82800000000003" type="line"/>
    </contour>
  </outline>
</glyph>
<glyph name="Z" format="2">
  <advance width="414.33000000000004"/>
  <unicode hex="005A"/>
  <anchor x="165.73" y="0.0" name="bottom"/>
  <anchor x="217.17000000000002" y="350.0" name="center"/>
  <anchor x="273.65999999999997" y="700.0" name="top"/>
  <outline>
    <contour>
      <point x="-26.79" y="0.0" type="line"/>
      <point x="356.53" y="0.0" type="line"/>
      <point x="370.28000000000003" y="82.21" type="line"/>
      <point x="87.5" y="82.21" type="line"/>
      <point x="442.59000000000003" y="618.78" type="line"/>
      <point x="455.34000000000003" y="700.0" type="line"/>
      <point x="101.91" y="700.0" type="line"/>
      <point x="88.58999999999999" y="617.79" type="line"/>
      <point x="341.19" y="617.79" type="line"/>
      <point x="-13.899999999999999" y="79.5" type="line"/>
    </contour>
  </outline>
</glyph>
<glyph name="bracketleft" format="2">
  <advance width="251.52800000000002"/>
  <unicode hex="005B"/>
  <outline>
    <contour>
      <point x="64.032" y="-135.23999999999998" type="line"/>
      <point x="192.17600000000002" y="665.354" type="line"/>
      <point x="301.206" y="665.354" type="line"/>
      <point x="313.666" y="740.0" type="line"/>
      <point x="129.796" y="740.0" type="line"/>
      <point x="-22.726000000000003" y="-210.0" type="line"/>
      <point x="160.258" y="-210.0" type="line"/>
      <point x="173.06199999999998" y="-135.23999999999998" type="line"/>
    </contour>
  </outline>
</glyph>
<glyph name="backslash" format="2">
  <advance width="333.736"/>
  <unicode hex="005C"/>
  <outline>
    <contour>
      <point x="150.08599999999998" y="740.0" type="line"/>
      <point x="76.044" y="740.0" type="line"/>
      <point x="218.90800000000002" y="-210.0" type="line"/>
      <point x="292.606" y="-210.0" type="line"/>
    </contour>
  </outline>
</glyph>
<glyph name="bracketright" format="2">
  <advance width="251.52800000000002"/>
  <unicode hex="005D"/>
  <outline>
    <contour>
      <point x="-52.108000000000004" y="-135.23999999999998" type="line"/>
      <point x="-64.482" y="-210.0" type="line"/>
      <point x="117.93199999999999" y="-210.0" type="line"/>
      <point x="271.34000000000003" y="740.0" type="line"/>
      <point x="87.92600000000002" y="740.0" type="line"/>
      <point x="75.12200000000001" y="665.24" type="line"/>
      <point x="184.152" y="665.24" type="line"/>
      <point x="55.663999999999994" y="-135.23999999999998" type="line"/>
    </contour>
  </outline>
</glyph>
<glyph name="asciicircum" format="2">
  <advance width="409.77799999999996"/>
  <unicode hex="005E"/>
  <outline>
    <contour>
      <point x="40.63399999999999" y="259.30799999999994" type="line"/>
      <point x="109.05400000000002" y="259.30799999999994" type="line"/>
      <point x="256.904" y="608.7959999999999" type="line"/>
      <point x="296.704" y="259.30799999999994" type="line"/>
      <point x="364.552" y="259.30799999999994" type="line"/>
      <point x="312.102" y="705.7" type="line"/>
      <point x="229.72199999999998" y="705.7" type="line"/>
    </contour>
  </outline>
</glyph>
<glyph name="underscore" format="2">
  <advance width="639.128"/>
  <unicode hex="005F"/>
  <outline>
    <contour>
      <point x="-65.818" y="-167.476" type="line"/>
      <point x="563.9380000000001" y="-167.476" type="line"/>
      <point x="577.946" y="-84.06400000000001" type="line"/>
      <point x="-51.81" y="-84.06400000000001" type="line"/>
    </contour>
  </outline>
</glyph>
<glyph name="a" format="2">
  <advance width="420.574"/>
  <unicode hex="0061"/>
  <note>
15
</note>
  <anchor x="170.89500000000004" y="0.0" name="bottom"/>
  <anchor x="383.76" y="5.159999999999999" name="ogonek"/>
  <anchor x="257.31399999999996" y="538.6" name="top"/>
  <outline>
    <contour>
      <point x="321.802" y="-10.0" type="curve" smooth="yes"/>
      <point x="344.43" y="-10.0"/>
      <point x="368.535" y="-3.9059999999999997"/>
      <point x="383.788" y="5.076" type="curve"/>
      <point x="388.97700000000003" y="79.35999999999999" type="line"/>
      <point x="380.68800000000005" y="76.10799999999999"/>
      <point x="373.10900000000004" y="74.641"/>
      <point x="365.57700000000006" y="74.641" type="curve" smooth="yes"/>
      <point x="349.849" y="74.641"/>
      <point x="343.887" y="83.117"/>
      <point x="343.887" y="100.555" type="curve" smooth="yes"/>
      <point x="343.887" y="107.882"/>
      <point x="352.03600000000006" y="157.40099999999998"/>
      <point x="410.016" y="520.206" type="curve"/>
      <point x="372.90099999999995" y="536.515"/>
      <point x="319.42900000000003" y="548.6"/>
      <point x="268.836" y="548.6" type="curve" smooth="yes"/>
      <point x="116.253" y="548.6"/>
      <point x="18.466" y="401.26699999999994"/>
      <point x="18.466" y="159.329" type="curve" smooth="yes"/>
      <point x="18.466" y="48.842"/>
      <point x="64.21499999999999" y="-10.0"/>
      <point x="141.03799999999995" y="-10.0" type="curve" smooth="yes"/>
      <point x="184.69299999999998" y="-10.0"/>
      <point x="222.562" y="5.916"/>
      <point x="253.14200000000005" y="32.263" type="curve"/>
      <point x="264.985" y="4.972"/>
      <point x="288.912" y="-10.0"/>
    </contour>
    <contour>
      <point x="251.24499999999998" y="97.825" type="line"/>
      <point x="230.957" y="84.16299999999998"/>
      <point x="203.025" y="74.678"/>
      <point x="178.476" y="74.678" type="curve" smooth="yes"/>
      <point x="137.74200000000002" y="74.678"/>
      <point x="112.95899999999997" y="108.39399999999999"/>
      <point x="112.95899999999997" y="173.397" type="curve" smooth="yes"/>
      <point x="112.95899999999997" y="344.89"/>
      <point x="176.63600000000002" y="469.652"/>
      <point x="258.31100000000004" y="469.652" type="curve" smooth="yes"/>
      <point x="277.739" y="469.652"/>
      <point x="294.476" y="466.587"/>
      <point x="308.12" y="459.40999999999997" type="curve"/>
    </contour>
  </outline>
</glyph>
<glyph name="b" format="2">
  <advance width="417.636"/>
  <unicode hex="0062"/>
  <note>
12
</note>
  <outline>
    <contour>
      <point x="212.203" y="740.0" type="line"/>
      <point x="121.17800000000001" y="740.0" type="line"/>
      <point x="6.266" y="12.818" type="line"/>
      <point x="42.009" y="0.6290000000000002"/>
      <point x="87.779" y="-10.0"/>
      <point x="145.429" y="-10.0" type="curve" smooth="yes"/>
      <point x="312.33700000000005" y="-10.0"/>
      <point x="400.24899999999997" y="176.986"/>
      <point x="399.604" y="378.10400000000004" type="curve" smooth="yes"/>
      <point x="399.38899999999995" y="492.95799999999997"/>
      <point x="360.40500000000003" y="548.6"/>
      <point x="283.219" y="548.6" type="curve" smooth="yes"/>
      <point x="245.10199999999998" y="548.6"/>
      <point x="211.50600000000003" y="534.838"/>
      <point x="175.69500000000002" y="511.63599999999997" type="curve"/>
    </contour>
    <contour>
      <point x="242.177" y="463.191" type="curve" smooth="yes"/>
      <point x="288.95399999999995" y="463.191"/>
      <point x="307.074" y="422.971"/>
      <point x="307.074" y="363.06399999999996" type="curve" smooth="yes"/>
      <point x="307.074" y="216.386"/>
      <point x="247.685" y="67.66900000000001"/>
      <point x="158.505" y="67.66900000000001" type="curve" smooth="yes"/>
      <point x="139.20600000000002" y="67.66900000000001"/>
      <point x="121.06" y="71.29099999999998"/>
      <point x="107.575" y="76.35600000000001" type="curve"/>
      <point x="164.095" y="435.684" type="line"/>
      <point x="189.29600000000002" y="453.02200000000005"/>
      <point x="217.953" y="463.191"/>
    </contour>
  </outline>
</glyph>
<glyph name="c" format="2">
  <advance width="350.46"/>
  <unicode hex="0063"/>
  <note>
10
</note>
  <anchor x="173.80800000000002" y="0.0" name="bottom"/>
  <anchor x="256.36" y="538.6" name="top"/>
  <outline>
    <contour>
      <point x="179.006" y="-10.0" type="curve" smooth="yes"/>
      <point x="222.764" y="-10.0"/>
      <point x="267.384" y="-2.682"/>
      <point x="300.61" y="9.674000000000001" type="curve"/>
      <point x="291.10400000000004" y="85.5" type="line"/>
      <point x="263.776" y="78.846"/>
      <point x="235.46800000000002" y="74.566"/>
      <point x="204.04799999999997" y="74.566" type="curve" smooth="yes"/>
      <point x="145.34999999999997" y="74.566"/>
      <point x="110.426" y="114.78"/>
      <point x="110.426" y="183.34599999999998" type="curve" smooth="yes"/>
      <point x="110.426" y="329.474"/>
      <point x="174.356" y="463.38"/>
      <point x="261.146" y="463.38" type="curve" smooth="yes"/>
      <point x="288.82800000000003" y="463.38"/>
      <point x="313.604" y="460.754"/>
      <point x="344.904" y="451.324" type="curve"/>
      <point x="373.376" y="533.02" type="line"/>
      <point x="340.31" y="543.31"/>
      <point x="302.896" y="548.6"/>
      <point x="264.146" y="548.6" type="curve" smooth="yes"/>
      <point x="108.60600000000001" y="548.6"/>
      <point x="18.438000000000002" y="383.59400000000005"/>
      <point x="18.438000000000002" y="162.744" type="curve" smooth="yes"/>
      <point x="18.438000000000002" y="53.32"/>
      <point x="74.412" y="-10.0"/>
    </contour>
  </outline>
</glyph>
<glyph name="d" format="2">
  <advance width="420.77"/>
  <unicode hex="0064"/>
  <note>
17
</note>
  <anchor x="174.96300000000002" y="0.0" name="bottom"/>
  <anchor x="213.76299999999998" y="318.105" name="center"/>
  <anchor x="272.8" y="740.0" name="top"/>
  <anchor x="494.80499999999995" y="740.0" name="topright"/>
  <outline>
    <contour>
      <point x="320.587" y="-10.0" type="curve" smooth="yes"/>
      <point x="340.70099999999996" y="-10.0"/>
      <point x="364.993" y="-4.448"/>
      <point x="382.031" y="5.076" type="curve"/>
      <point x="386.706" y="79.35999999999999" type="line"/>
      <point x="379.28599999999994" y="76.435"/>
      <point x="371.2679999999999" y="74.641"/>
      <point x="363.40900000000005" y="74.641" type="curve" smooth="yes"/>
      <point x="348.821" y="74.641"/>
      <point x="342.26099999999997" y="82.36"/>
      <point x="342.26099999999997" y="97.723" type="curve" smooth="yes"/>
      <point x="342.26099999999997" y="110.39699999999999"/>
      <point x="396.089" y="444.133"/>
      <point x="442.67" y="740.0" type="curve"/>
      <point x="351.43" y="740.0" type="line"/>
      <point x="318.991" y="535.366" type="line"/>
      <point x="296.552" y="543.572"/>
      <point x="272.449" y="548.6"/>
      <point x="243.03799999999998" y="548.6" type="curve" smooth="yes"/>
      <point x="113.72999999999999" y="548.6"/>
      <point x="17.811999999999998" y="387.89400000000006"/>
      <point x="17.811999999999998" y="157.201" type="curve" smooth="yes"/>
      <point x="17.811999999999998" y="44.562000000000005"/>
      <point x="64.45799999999998" y="-10.0"/>
      <point x="140.29099999999997" y="-10.0" type="curve" smooth="yes"/>
      <point x="182.46" y="-10.0"/>
      <point x="224.282" y="9.365000000000002"/>
      <point x="251.273" y="32.833000000000006" type="curve"/>
      <point x="263.47099999999995" y="4.720000000000001"/>
      <point x="286.37" y="-10.0"/>
    </contour>
    <contour>
      <point x="175.63500000000002" y="75.435" type="curve" smooth="yes"/>
      <point x="135.93799999999996" y="75.435"/>
      <point x="110.903" y="107.05800000000002"/>
      <point x="110.903" y="160.11799999999997" type="curve" smooth="yes"/>
      <point x="110.903" y="319.52799999999996"/>
      <point x="169.543" y="469.65200000000004"/>
      <point x="254.67600000000004" y="469.65200000000004" type="curve" smooth="yes"/>
      <point x="275.459" y="469.65200000000004"/>
      <point x="291.168" y="466.07300000000004"/>
      <point x="307.176" y="461.335" type="curve"/>
      <point x="249.78699999999998" y="98.06799999999998" type="line"/>
      <point x="229.44299999999998" y="84.37799999999999"/>
      <point x="202.22099999999998" y="75.435"/>
    </contour>
  </outline>
</glyph>
<glyph name="e" format="2">
  <advance width="389.18"/>
  <unicode hex="0065"/>
  <note>
14 points
</note>
  <anchor x="186.16400000000002" y="0.0" name="bottom"/>
  <anchor x="284.74800000000005" y="2.944" name="ogonek"/>
  <anchor x="256.312" y="539.6840000000001" name="top"/>
  <outline>
    <contour>
      <point x="93.842" y="288.79" type="curve"/>
      <point x="83.50399999999999" y="220.07799999999997" type="line"/>
      <point x="121.14" y="219.89999999999998"/>
      <point x="163.224" y="225.47"/>
      <point x="204.86" y="236.60999999999999" type="curve" smooth="yes"/>
      <point x="319.59000000000003" y="267.97400000000005"/>
      <point x="393.17" y="342.368"/>
      <point x="393.17" y="438.426" type="curve" smooth="yes"/>
      <point x="393.17" y="504.448"/>
      <point x="347.99" y="548.6"/>
      <point x="270.258" y="548.6" type="curve" smooth="yes"/>
      <point x="110.4" y="548.6"/>
      <point x="21.148" y="392.626"/>
      <point x="21.148" y="189.64799999999997" type="curve" smooth="yes"/>
      <point x="21.148" y="62.27199999999999"/>
      <point x="80.936" y="-10.0"/>
      <point x="189.894" y="-10.0" type="curve" smooth="yes"/>
      <point x="238.52200000000002" y="-10.0"/>
      <point x="292.72" y="0.45799999999999996"/>
      <point x="336.18" y="21.842" type="curve"/>
      <point x="320.72" y="100.99600000000001" type="line"/>
      <point x="276.93399999999997" y="82.594"/>
      <point x="236.95200000000003" y="74.56600000000002"/>
      <point x="203.36399999999998" y="74.56600000000002" type="curve" smooth="yes"/>
      <point x="141.97400000000002" y="74.56600000000002"/>
      <point x="109.696" y="114.57"/>
      <point x="109.696" y="201.79999999999998" type="curve" smooth="yes"/>
      <point x="109.696" y="361.86600000000004"/>
      <point x="172.644" y="470.91400000000004"/>
      <point x="254.414" y="470.91400000000004" type="curve" smooth="yes"/>
      <point x="289.074" y="470.91400000000004"/>
      <point x="306.34200000000004" y="456.31800000000004"/>
      <point x="306.34200000000004" y="422.41400000000004" type="curve" smooth="yes"/>
      <point x="306.34200000000004" y="365.78200000000004"/>
      <point x="259.54200000000003" y="325.656"/>
      <point x="184.818" y="302.90999999999997" type="curve" smooth="yes"/>
      <point x="155.278" y="293.91999999999996"/>
      <point x="123.90599999999999" y="288.584"/>
    </contour>
  </outline>
</glyph>
<glyph name="f" format="2">
  <advance width="267.09800000000007"/>
  <unicode hex="0066"/>
  <outline>
    <contour>
      <point x="-39.193999999999996" y="-220.0" type="curve" smooth="yes"/>
      <point x="49.106" y="-220.0"/>
      <point x="94.26200000000001" y="-157.604"/>
      <point x="114.556" y="-29.298" type="curve" smooth="yes"/>
      <point x="185.83599999999998" y="421.656" type="line"/>
      <point x="288.074" y="421.656" type="line"/>
      <point x="300.53400000000005" y="499.48" type="line"/>
      <point x="198.20999999999998" y="499.48" type="line"/>
      <point x="216.838" y="619.208"/>
      <point x="247.144" y="663.92"/>
      <point x="303.074" y="663.92" type="curve" smooth="yes"/>
      <point x="325.63" y="663.92"/>
      <point x="347.43" y="659.15"/>
      <point x="368.10400000000004" y="652.78" type="curve"/>
      <point x="393.824" y="729.6899999999999" type="line"/>
      <point x="362.7" y="742.244"/>
      <point x="331.73199999999997" y="750.0"/>
      <point x="294.744" y="750.0" type="curve" smooth="yes"/>
      <point x="195.146" y="750.0"/>
      <point x="133.558" y="673.822"/>
      <point x="107.19999999999999" y="499.48" type="curve"/>
      <point x="44.43" y="492.046" type="line"/>
      <point x="32.797999999999995" y="421.656" type="line"/>
      <point x="94.74" y="421.656" type="line"/>
      <point x="24.548000000000002" y="-24.258000000000006" type="line" smooth="yes"/>
      <point x="12.818" y="-97.604"/>
      <point x="-7.370000000000001" y="-134.888"/>
      <point x="-51.254000000000005" y="-134.888" type="curve" smooth="yes"/>
      <point x="-62.788000000000004" y="-134.888"/>
      <point x="-74.15800000000002" y="-133.46200000000002"/>
      <point x="-89.29599999999999" y="-128.406" type="curve"/>
      <point x="-111.75600000000001" y="-207.15400000000002" type="line"/>
      <point x="-88.272" y="-215.994"/>
      <point x="-65.276" y="-220.0"/>
    </contour>
  </outline>
</glyph>
<glyph name="g" format="2">
  <advance width="416.10600000000005"/>
  <unicode hex="0067"/>
  <note>
16
</note>
  <anchor x="123.82" y="-214.58" name="bottom"/>
  <anchor x="255.57600000000002" y="538.6" name="top"/>
  <outline>
    <contour>
      <point x="-12.096" y="-192.446" type="line"/>
      <point x="30.524000000000004" y="-210.21399999999997"/>
      <point x="80.004" y="-220.0"/>
      <point x="125.82000000000001" y="-220.0" type="curve" smooth="yes"/>
      <point x="237.452" y="-220.0"/>
      <point x="300.474" y="-155.05399999999997"/>
      <point x="322.428" y="-14.386000000000001" type="curve" smooth="yes"/>
      <point x="409.07199999999995" y="525.076" type="line"/>
      <point x="377.454" y="538.02"/>
      <point x="320.074" y="548.6"/>
      <point x="274.108" y="548.6" type="curve" smooth="yes"/>
      <point x="96.176" y="548.6"/>
      <point x="17.064" y="368.15400000000005"/>
      <point x="17.064" y="154.73000000000002" type="curve" smooth="yes"/>
      <point x="17.064" y="60.638"/>
      <point x="57.17600000000001" y="-0.97"/>
      <point x="135.42999999999998" y="-0.97" type="curve" smooth="yes"/>
      <point x="164.962" y="-0.97"/>
      <point x="206.486" y="9.768000000000002"/>
      <point x="238.40200000000002" y="27.898" type="curve"/>
      <point x="232.27199999999996" y="-16.490000000000006" type="line" smooth="yes"/>
      <point x="219.46" y="-104.71799999999999"/>
      <point x="183.10599999999997" y="-137.18200000000002"/>
      <point x="122.93200000000002" y="-137.18200000000002" type="curve" smooth="yes"/>
      <point x="89.632" y="-137.18200000000002"/>
      <point x="46.647999999999996" y="-128.228"/>
      <point x="13.543999999999999" y="-115.592" type="curve"/>
    </contour>
    <contour>
      <point x="307.232" y="462.532" type="curve"/>
      <point x="250.05799999999996" y="103.47999999999999" type="line"/>
      <point x="231.34" y="90.22"/>
      <point x="200.39000000000001" y="79.408"/>
      <point x="178.392" y="79.408" type="curve" smooth="yes"/>
      <point x="136.882" y="79.408"/>
      <point x="110.912" y="110.366"/>
      <point x="110.912" y="171.04999999999998" type="curve" smooth="yes"/>
      <point x="110.912" y="316.49799999999993"/>
      <point x="168.776" y="472.204"/>
      <point x="257.516" y="472.204" type="curve" smooth="yes"/>
      <point x="278.038" y="472.204"/>
      <point x="292.96200000000005" y="467.438"/>
    </contour>
  </outline>
</glyph>
<glyph name="h" format="2">
  <advance width="422.16"/>
  <unicode hex="0068"/>
  <note>
16
</note>
  <anchor x="171.986" y="0.0" name="bottom"/>
  <anchor x="227.379" y="372.15" name="center"/>
  <anchor x="284.752" y="740.0" name="top"/>
  <outline>
    <contour>
      <point x="345.9309999999999" y="98.06899999999999" type="curve" smooth="yes"/>
      <point x="345.9309999999999" y="123.824"/>
      <point x="398.73299999999995" y="419.98199999999997"/>
      <point x="398.73299999999995" y="453.86" type="curve" smooth="yes"/>
      <point x="398.73299999999995" y="510.936"/>
      <point x="369.648" y="548.6"/>
      <point x="303.572" y="548.6" type="curve" smooth="yes"/>
      <point x="258.507" y="548.6"/>
      <point x="219.387" y="533.61"/>
      <point x="175.134" y="507.15099999999995" type="curve"/>
      <point x="212.461" y="740.0" type="line"/>
      <point x="121.00600000000001" y="740.0" type="line"/>
      <point x="3.3609999999999998" y="0.0" type="line"/>
      <point x="94.816" y="0.0" type="line"/>
      <point x="163.637" y="434.71" type="line"/>
      <point x="193.16700000000003" y="451.886"/>
      <point x="224.87399999999997" y="464.137"/>
      <point x="252.71200000000002" y="464.137" type="curve" smooth="yes"/>
      <point x="290.138" y="464.137"/>
      <point x="301.978" y="443.569"/>
      <point x="301.978" y="415.927" type="curve" smooth="yes"/>
      <point x="301.978" y="386.686"/>
      <point x="250.073" y="97.92999999999999"/>
      <point x="250.073" y="59.379" type="curve" smooth="yes"/>
      <point x="250.073" y="17.526"/>
      <point x="280.87899999999996" y="-10.0"/>
      <point x="325.229" y="-10.0" type="curve" smooth="yes"/>
      <point x="345.203" y="-10.0"/>
      <point x="367.121" y="-5.317"/>
      <point x="385.262" y="4.262999999999999" type="curve"/>
      <point x="390.7219999999999" y="79.762" type="line"/>
      <point x="381.919" y="76.482"/>
      <point x="374.826" y="75.211"/>
      <point x="368.9759999999999" y="75.211" type="curve" smooth="yes"/>
      <point x="353.05199999999996" y="75.211"/>
      <point x="345.9309999999999" y="83.014"/>
    </contour>
  </outline>
</glyph>
<glyph name="i" format="2">
  <advance width="186.594"/>
  <unicode hex="0069"/>
  <note>
Ajuster pts sur points
8
</note>
  <anchor x="49.222184" y="0.0" name="bottom"/>
  <anchor x="95.04599999999999" y="0.0" name="ogonek"/>
  <anchor x="134.635816" y="538.6" name="top"/>
  <outline>
    <contour>
      <point x="4.433999999999999" y="0.0" type="line"/>
      <point x="95.04599999999999" y="0.0" type="line"/>
      <point x="180.25" y="538.6" type="line"/>
      <point x="89.354" y="538.6" type="line"/>
    </contour>
    <contour>
      <point x="168.316" y="744.4" type="curve" smooth="yes"/>
      <point x="122.008" y="744.4"/>
      <point x="105.442" y="714.85"/>
      <point x="103.96" y="669.81" type="curve" smooth="yes"/>
      <point x="103.50399999999999" y="642.144"/>
      <point x="119.282" y="630.076"/>
      <point x="148.64600000000002" y="630.076" type="curve" smooth="yes"/>
      <point x="193.45999999999998" y="630.076"/>
      <point x="211.548" y="659.11"/>
      <point x="213.144" y="705.21" type="curve" smooth="yes"/>
      <point x="213.6" y="732.6759999999999"/>
      <point x="197.82" y="744.4"/>
    </contour>
  </outline>
</glyph>
<glyph name="j" format="2">
  <advance width="194.078"/>
  <unicode hex="006A"/>
  <note>
idem /i
12
</note>
  <outline>
    <contour>
      <point x="175.886" y="744.4" type="curve" smooth="yes"/>
      <point x="129.492" y="744.4"/>
      <point x="113.24000000000001" y="714.85"/>
      <point x="111.75800000000001" y="669.81" type="curve" smooth="yes"/>
      <point x="111.302" y="642.144"/>
      <point x="127.28200000000001" y="630.076"/>
      <point x="156.64600000000002" y="630.076" type="curve" smooth="yes"/>
      <point x="200.774" y="630.076"/>
      <point x="218.89000000000001" y="659.11"/>
      <point x="220.48599999999996" y="705.21" type="curve" smooth="yes"/>
      <point x="220.942" y="732.6759999999999"/>
      <point x="205.39000000000001" y="744.4"/>
    </contour>
    <contour>
      <point x="188.24999999999997" y="538.6" type="line"/>
      <point x="96.924" y="538.6" type="line"/>
      <point x="6.622000000000002" y="-30.912" type="line" smooth="yes"/>
      <point x="-3.8260000000000014" y="-96.31"/>
      <point x="-22.925999999999995" y="-134.888"/>
      <point x="-65.96" y="-134.888" type="curve" smooth="yes"/>
      <point x="-77.94999999999999" y="-134.888"/>
      <point x="-90.11800000000001" y="-133.662"/>
      <point x="-105.538" y="-128.23600000000002" type="curve"/>
      <point x="-126.766" y="-208.876" type="line"/>
      <point x="-103.424" y="-217.026"/>
      <point x="-75.368" y="-220.0"/>
      <point x="-55.13" y="-220.0" type="curve" smooth="yes"/>
      <point x="37.076" y="-220.0"/>
      <point x="77.648" y="-157.538"/>
      <point x="97.37800000000001" y="-32.042" type="curve" smooth="yes"/>
    </contour>
  </outline>
</glyph>
<glyph name="l" format="2">
  <advance width="207.458"/>
  <unicode hex="006C"/>
  <anchor x="93.204" y="0.0" name="bottom"/>
  <anchor x="115.00651599999999" y="372.15" name="center"/>
  <anchor x="166.41199999999998" y="740.0" name="top"/>
  <anchor x="264.28000000000003" y="740.0" name="topright"/>
  <outline>
    <contour>
      <point x="121.09200000000001" y="740.0" type="line"/>
      <point x="20.394000000000002" y="104.33" type="line" smooth="yes"/>
      <point x="18.592" y="92.148"/>
      <point x="16.991999999999997" y="78.026"/>
      <point x="16.991999999999997" y="66.336" type="curve" smooth="yes"/>
      <point x="16.991999999999997" y="18.596"/>
      <point x="40.908" y="-10.0"/>
      <point x="94.89800000000001" y="-10.0" type="curve" smooth="yes"/>
      <point x="121.444" y="-10.0"/>
      <point x="151.28" y="-3.3040000000000003"/>
      <point x="172.928" y="6.739999999999999" type="curve"/>
      <point x="178.10200000000003" y="82.654" type="line"/>
      <point x="163.454" y="78.45800000000001"/>
      <point x="151.92" y="76.43199999999999"/>
      <point x="141.672" y="76.43199999999999" type="curve" smooth="yes"/>
      <point x="119.53" y="76.43199999999999"/>
      <point x="112.62" y="87.532"/>
      <point x="112.62" y="103.26799999999999" type="curve" smooth="yes"/>
      <point x="112.62" y="113.626"/>
      <point x="114.78799999999998" y="125.67"/>
      <point x="117.356" y="141.934" type="curve" smooth="yes"/>
      <point x="212.188" y="740.0" type="line"/>
    </contour>
  </outline>
</glyph>
<glyph name="m" format="2">
  <advance width="628.416"/>
  <unicode hex="006D"/>
  <note>
24&gt;23 points
un point de trop dans la jointure avec 2e jambage
</note>
  <outline>
    <contour>
      <point x="530.754" y="-10.0" type="curve" smooth="yes"/>
      <point x="550.556" y="-10.0"/>
      <point x="574.194" y="-5.532"/>
      <point x="591.604" y="4.1339999999999995" type="curve"/>
      <point x="596.8919999999999" y="78.988" type="line"/>
      <point x="588.3900000000001" y="75.708"/>
      <point x="580.91" y="74.824"/>
      <point x="575.146" y="74.824" type="curve" smooth="yes"/>
      <point x="559.308" y="74.824"/>
      <point x="551.4580000000001" y="83.58800000000001"/>
      <point x="551.4580000000001" y="99.71800000000002" type="curve" smooth="yes"/>
      <point x="551.4580000000001" y="131.794"/>
      <point x="604.862" y="422.132"/>
      <point x="604.862" y="455.66600000000005" type="curve" smooth="yes"/>
      <point x="604.862" y="509.904"/>
      <point x="575.732" y="548.6"/>
      <point x="509.57" y="548.6" type="curve" smooth="yes"/>
      <point x="467.16400000000004" y="548.6"/>
      <point x="423.83" y="533.434"/>
      <point x="375.274" y="498.33000000000004" type="curve"/>
      <point x="363.41599999999994" y="529.196"/>
      <point x="335.956" y="548.6"/>
      <point x="292.168" y="548.6" type="curve" smooth="yes"/>
      <point x="252.28" y="548.6"/>
      <point x="210.846" y="533.1800000000001"/>
      <point x="166.366" y="503.61199999999997" type="curve"/>
      <point x="172.14000000000001" y="538.6" type="line"/>
      <point x="88.81200000000001" y="538.6" type="line"/>
      <point x="3.636000000000002" y="0.0" type="line"/>
      <point x="94.618" y="0.0" type="line"/>
      <point x="163.596" y="436.484" type="line"/>
      <point x="189.868" y="453.28399999999993"/>
      <point x="216.85399999999998" y="464.18"/>
      <point x="242.09799999999998" y="464.18" type="curve" smooth="yes"/>
      <point x="276.444" y="464.18"/>
      <point x="289.17" y="443.5"/>
      <point x="289.17" y="415.82400000000007" type="curve" smooth="yes"/>
      <point x="289.17" y="394.48199999999997"/>
      <point x="241.03400000000002" y="104.294"/>
      <point x="224.526" y="0.0" type="curve"/>
      <point x="315.276" y="0.0" type="line"/>
      <point x="329.118" y="88.214"/>
      <point x="370.54600000000005" y="345.692"/>
      <point x="378.802" y="412.24600000000004" type="curve" smooth="yes"/>
      <point x="379.232" y="418.846"/>
      <point x="379.69399999999996" y="428.8"/>
      <point x="379.44" y="434.42800000000005" type="curve"/>
      <point x="405.06" y="451.51800000000003"/>
      <point x="432.3" y="463.922"/>
      <point x="460.90599999999995" y="463.922" type="curve" smooth="yes"/>
      <point x="495.824" y="463.922"/>
      <point x="508.03599999999994" y="443.584"/>
      <point x="508.03599999999994" y="415.028" type="curve" smooth="yes"/>
      <point x="508.03599999999994" y="384.946"/>
      <point x="456.288" y="100.94"/>
      <point x="456.288" y="60.368" type="curve" smooth="yes"/>
      <point x="456.288" y="15.376000000000001"/>
      <point x="486.576" y="-10.0"/>
    </contour>
  </outline>
</glyph>
<glyph name="n" format="2">
  <advance width="421.248"/>
  <unicode hex="006E"/>
  <note>
16
</note>
  <anchor x="179.618" y="0.0" name="bottom"/>
  <anchor x="248.428" y="538.6" name="top"/>
  <outline>
    <contour>
      <point x="88.81200000000001" y="538.6" type="line"/>
      <point x="3.636000000000002" y="0.0" type="line"/>
      <point x="94.532" y="0.0" type="line"/>
      <point x="163.82600000000002" y="435.14" type="line"/>
      <point x="192.836" y="452.142"/>
      <point x="223.962" y="464.636"/>
      <point x="252.574" y="464.636" type="curve" smooth="yes"/>
      <point x="289.628" y="464.636"/>
      <point x="302.44000000000005" y="444.186"/>
      <point x="302.44000000000005" y="415.458" type="curve" smooth="yes"/>
      <point x="302.44000000000005" y="382.53"/>
      <point x="250.60599999999997" y="101.8"/>
      <point x="250.60599999999997" y="57.616" type="curve" smooth="yes"/>
      <point x="250.60599999999997" y="17.783999999999995"/>
      <point x="280.096" y="-10.0"/>
      <point x="324.27399999999994" y="-10.0" type="curve" smooth="yes"/>
      <point x="344.076" y="-10.0"/>
      <point x="367.026" y="-5.532"/>
      <point x="384.436" y="4.1339999999999995" type="curve"/>
      <point x="389.724" y="78.988" type="line"/>
      <point x="381.222" y="75.708"/>
      <point x="373.742" y="74.824"/>
      <point x="367.978" y="74.824" type="curve" smooth="yes"/>
      <point x="352.14" y="74.824"/>
      <point x="345.088" y="82.67"/>
      <point x="345.088" y="97.76799999999999" type="curve" smooth="yes"/>
      <point x="345.088" y="123.652"/>
      <point x="398.83599999999996" y="419.724"/>
      <point x="398.83599999999996" y="453.602" type="curve" smooth="yes"/>
      <point x="398.83599999999996" y="511.796"/>
      <point x="367.016" y="548.6"/>
      <point x="302.74600000000004" y="548.6" type="curve" smooth="yes"/>
      <point x="256.95" y="548.6"/>
      <point x="211.26000000000002" y="532.5799999999999"/>
      <point x="166.31" y="502.8140000000001" type="curve"/>
      <point x="171.96800000000002" y="538.6" type="line"/>
    </contour>
  </outline>
</glyph>
<glyph name="o" format="2">
  <advance width="408.95"/>
  <unicode hex="006F"/>
  <note>
8
</note>
  <anchor x="166.35000000000002" y="0.0" name="bottom"/>
  <anchor x="206.35999999999999" y="270.44" name="center"/>
  <anchor x="228.63000000000002" y="0.42000000000000004" name="ogonek"/>
  <anchor x="242.35" y="538.6" name="top"/>
  <anchor x="330.01" y="529.74" name="topright"/>
  <outline>
    <contour>
      <point x="176.98000000000002" y="-10.0" type="curve" smooth="yes"/>
      <point x="329.2" y="-10.0"/>
      <point x="386.9" y="210.70000000000002"/>
      <point x="386.9" y="384.17" type="curve" smooth="yes"/>
      <point x="386.9" y="500.07"/>
      <point x="334.15" y="548.96"/>
      <point x="231.05" y="548.96" type="curve" smooth="yes"/>
      <point x="76.46" y="548.96"/>
      <point x="19.410000000000004" y="321.82"/>
      <point x="19.410000000000004" y="154.22" type="curve" smooth="yes"/>
      <point x="19.410000000000004" y="39.04"/>
      <point x="70.66" y="-10.0"/>
    </contour>
    <contour>
      <point x="175.4" y="69.42" type="curve" smooth="yes"/>
      <point x="132.54" y="69.42"/>
      <point x="108.43" y="91.02999999999999"/>
      <point x="108.43" y="153.93" type="curve" smooth="yes"/>
      <point x="108.43" y="247.92"/>
      <point x="147.0" y="469.53999999999996"/>
      <point x="231.41" y="469.53999999999996" type="curve" smooth="yes"/>
      <point x="271.84" y="469.53999999999996"/>
      <point x="297.45" y="448.01"/>
      <point x="297.45" y="388.26000000000005" type="curve" smooth="yes"/>
      <point x="297.45" y="286.18"/>
      <point x="259.16" y="69.42"/>
    </contour>
  </outline>
</glyph>
<glyph name="p" format="2">
  <advance width="417.96500000000003"/>
  <unicode hex="0070"/>
  <note>
14 point
</note>
  <outline>
    <contour>
      <point x="-28.822000000000003" y="-210.0" type="line"/>
      <point x="61.31699999999999" y="-210.0" type="line"/>
      <point x="94.65899999999999" y="-0.4039999999999999" type="line"/>
      <point x="113.64899999999999" y="-5.342"/>
      <point x="136.903" y="-9.355"/>
      <point x="166.131" y="-9.355" type="curve" smooth="yes"/>
      <point x="315.65000000000003" y="-9.355"/>
      <point x="399.604" y="174.13"/>
      <point x="399.604" y="376.257" type="curve" smooth="yes"/>
      <point x="399.604" y="491.694"/>
      <point x="361.78299999999996" y="548.6"/>
      <point x="284.092" y="548.6" type="curve" smooth="yes"/>
      <point x="238.007" y="548.6"/>
      <point x="204.108" y="529.3620000000001"/>
      <point x="170.965" y="506.80500000000006" type="curve"/>
      <point x="171.46" y="543.16" type="line"/>
      <point x="89.80999999999999" y="543.16" type="line"/>
    </contour>
    <contour>
      <point x="157.59300000000002" y="67.66900000000001" type="curve" smooth="yes"/>
      <point x="138.294" y="67.66900000000001"/>
      <point x="121.06" y="70.94899999999998"/>
      <point x="107.119" y="76.01400000000001" type="curve"/>
      <point x="163.981" y="435.785" type="line"/>
      <point x="188.055" y="451.99600000000004"/>
      <point x="217.61100000000002" y="463.191"/>
      <point x="242.607" y="463.191" type="curve" smooth="yes"/>
      <point x="285.4200000000001" y="463.191"/>
      <point x="307.074" y="431.64500000000004"/>
      <point x="307.074" y="360.458" type="curve" smooth="yes"/>
      <point x="307.074" y="216.595"/>
      <point x="248.9" y="67.66900000000001"/>
    </contour>
  </outline>
</glyph>
<glyph name="q" format="2">
  <advance width="415.822"/>
  <unicode hex="0071"/>
  <note>
12
</note>
  <outline>
    <contour>
      <point x="408.54300000000006" y="525.782" type="line"/>
      <point x="372.20699999999994" y="537.059"/>
      <point x="320.22499999999997" y="548.6"/>
      <point x="266.875" y="548.6" type="curve" smooth="yes"/>
      <point x="93.177" y="548.6"/>
      <point x="16.866" y="339.15099999999995"/>
      <point x="16.866" y="149.68200000000002" type="curve" smooth="yes"/>
      <point x="16.866" y="43.981"/>
      <point x="62.068" y="-10.0"/>
      <point x="137.512" y="-10.0" type="curve" smooth="yes"/>
      <point x="175.339" y="-10.0"/>
      <point x="207.505" y="4.381000000000001"/>
      <point x="238.11400000000003" y="26.863000000000003" type="curve"/>
      <point x="199.733" y="-210.0" type="line"/>
      <point x="290.81" y="-210.0" type="line"/>
    </contour>
    <contour>
      <point x="307.133" y="461.53700000000003" type="curve"/>
      <point x="249.929" y="101.701" type="line"/>
      <point x="224.98199999999997" y="83.23599999999999"/>
      <point x="198.833" y="74.549"/>
      <point x="174.58300000000003" y="74.549" type="curve" smooth="yes"/>
      <point x="133.542" y="74.549"/>
      <point x="109.45800000000001" y="110.07199999999999"/>
      <point x="109.45800000000001" y="162.781" type="curve" smooth="yes"/>
      <point x="109.45800000000001" y="296.716"/>
      <point x="157.815" y="470.09700000000004"/>
      <point x="254.734" y="470.09700000000004" type="curve" smooth="yes"/>
      <point x="273.955" y="470.09700000000004"/>
      <point x="292.14" y="466.146"/>
    </contour>
  </outline>
</glyph>
<glyph name="r" format="2">
  <advance width="291.40999999999997"/>
  <unicode hex="0072"/>
  <anchor x="47.895999999999994" y="0.0" name="bottom"/>
  <anchor x="216.19" y="538.6" name="top"/>
  <outline>
    <contour>
      <point x="171.166" y="538.6" type="line"/>
      <point x="88.98400000000001" y="538.6" type="line"/>
      <point x="3.5500000000000016" y="0.0" type="line"/>
      <point x="93.47200000000001" y="0.0" type="line"/>
      <point x="158.308" y="406.39200000000005" type="line"/>
      <point x="196.442" y="439.99399999999997"/>
      <point x="227.72000000000003" y="452.48400000000004"/>
      <point x="258.17600000000004" y="452.48400000000004" type="curve" smooth="yes"/>
      <point x="273.168" y="452.48400000000004"/>
      <point x="291.626" y="449.914"/>
      <point x="308.084" y="444.8" type="curve"/>
      <point x="336.9" y="539.1419999999999" type="line"/>
      <point x="320.55199999999996" y="545.888"/>
      <point x="302.53" y="548.6"/>
      <point x="282.822" y="548.6" type="curve" smooth="yes"/>
      <point x="244.664" y="548.6"/>
      <point x="207.11399999999998" y="529.548"/>
      <point x="162.738" y="486.854" type="curve"/>
    </contour>
  </outline>
</glyph>
<glyph name="s" format="2">
  <advance width="350.27000000000004"/>
  <unicode hex="0073"/>
  <anchor x="133.73000000000002" y="0.0" name="bottom"/>
  <anchor x="227.42" y="538.6" name="top"/>
  <outline>
    <contour>
      <point x="-18.099999999999998" y="18.090000000000003" type="line"/>
      <point x="20.79" y="1.15"/>
      <point x="66.95" y="-10.0"/>
      <point x="127.0" y="-10.0" type="curve" smooth="yes"/>
      <point x="246.24" y="-10.0"/>
      <point x="314.95" y="51.459999999999994"/>
      <point x="314.95" y="159.73" type="curve" smooth="yes"/>
      <point x="314.95" y="306.77"/>
      <point x="134.74" y="304.93"/>
      <point x="134.74" y="395.54" type="curve" smooth="yes"/>
      <point x="134.74" y="437.33"/>
      <point x="161.54000000000002" y="468.18"/>
      <point x="224.10999999999999" y="468.18" type="curve" smooth="yes"/>
      <point x="259.18" y="468.18"/>
      <point x="298.14" y="458.75"/>
      <point x="328.73" y="447.03000000000003" type="curve"/>
      <point x="353.07" y="525.16" type="line"/>
      <point x="323.97999999999996" y="538.81"/>
      <point x="279.17" y="548.6"/>
      <point x="231.91" y="548.6" type="curve" smooth="yes"/>
      <point x="104.62" y="548.6"/>
      <point x="46.58" y="475.44"/>
      <point x="46.58" y="385.36" type="curve" smooth="yes"/>
      <point x="46.58" y="231.74"/>
      <point x="226.65" y="240.43"/>
      <point x="226.65" y="147.05" type="curve" smooth="yes"/>
      <point x="226.65" y="104.69999999999999"/>
      <point x="197.57" y="69.56"/>
      <point x="131.43" y="69.56" type="curve" smooth="yes"/>
      <point x="89.72" y="69.56"/>
      <point x="40.9" y="81.14"/>
      <point x="8.030000000000001" y="95.5" type="curve"/>
    </contour>
  </outline>
</glyph>
<glyph name="t" format="2">
  <advance width="275.828"/>
  <unicode hex="0074"/>
  <anchor x="130.62" y="0.0" name="bottom"/>
  <anchor x="132.21200000000002" y="301.448" name="center"/>
  <anchor x="175.21" y="661.216" name="top"/>
  <anchor x="303.998" y="759.17" name="topright"/>
  <outline>
    <contour>
      <point x="237.03799999999998" y="85.07000000000001" type="line"/>
      <point x="216.844" y="79.532"/>
      <point x="199.11999999999998" y="75.73599999999999"/>
      <point x="182.90800000000002" y="75.73599999999999" type="curve" smooth="yes"/>
      <point x="145.34799999999998" y="75.73599999999999"/>
      <point x="131.194" y="94.862"/>
      <point x="131.194" y="128.736" type="curve" smooth="yes"/>
      <point x="131.194" y="138.756"/>
      <point x="132.564" y="149.69"/>
      <point x="134.248" y="162.422" type="curve" smooth="yes"/>
      <point x="182.202" y="461.00399999999996" type="line"/>
      <point x="298.066" y="461.00399999999996" type="line"/>
      <point x="311.38599999999997" y="538.6" type="line"/>
      <point x="195.26399999999998" y="538.6" type="line"/>
      <point x="214.486" y="661.216" type="line"/>
      <point x="137.102" y="661.216" type="line"/>
      <point x="105.056" y="538.6" type="line"/>
      <point x="42.461999999999996" y="531.3960000000001" type="line"/>
      <point x="30.2" y="461.34799999999996" type="line"/>
      <point x="91.47800000000001" y="461.34799999999996" type="line"/>
      <point x="42.578" y="154.424" type="line" smooth="yes"/>
      <point x="38.718" y="131.376"/>
      <point x="36.142" y="104.2"/>
      <point x="36.142" y="86.58600000000001" type="curve" smooth="yes"/>
      <point x="36.142" y="16.672"/>
      <point x="75.48" y="-10.0"/>
      <point x="134.732" y="-10.0" type="curve" smooth="yes"/>
      <point x="167.172" y="-10.0"/>
      <point x="199.79200000000003" y="-3.964"/>
      <point x="232.51999999999998" y="9.218" type="curve"/>
    </contour>
  </outline>
</glyph>
<glyph name="u" format="2">
  <advance width="417.94"/>
  <unicode hex="0075"/>
  <note>
15
</note>
  <anchor x="166.918" y="0.0" name="bottom"/>
  <anchor x="379.15999999999997" y="7.396" name="ogonek"/>
  <anchor x="246.85526400000003" y="538.6" name="top"/>
  <anchor x="397.044" y="538.6" name="topright"/>
  <outline>
    <contour>
      <point x="115.778" y="-10.0" type="curve" smooth="yes"/>
      <point x="162.578" y="-10.0"/>
      <point x="202.26399999999998" y="6.920000000000001"/>
      <point x="248.516" y="40.938" type="curve"/>
      <point x="255.818" y="8.878"/>
      <point x="281.19" y="-10.0"/>
      <point x="316.366" y="-10.0" type="curve" smooth="yes"/>
      <point x="335.374" y="-10.0"/>
      <point x="362.03000000000003" y="-3.018"/>
      <point x="379.15999999999997" y="8.342" type="curve"/>
      <point x="383.93399999999997" y="79.1" type="line"/>
      <point x="374.716" y="75.562"/>
      <point x="365.414" y="73.85199999999999"/>
      <point x="360.478" y="73.85199999999999" type="curve" smooth="yes"/>
      <point x="345.12600000000003" y="73.85199999999999"/>
      <point x="339.016" y="82.81400000000001"/>
      <point x="339.016" y="99.688" type="curve" smooth="yes"/>
      <point x="339.016" y="108.36399999999999"/>
      <point x="340.92800000000005" y="124.8"/>
      <point x="407.36400000000003" y="538.6" type="curve"/>
      <point x="317.214" y="538.6" type="line"/>
      <point x="248.432" y="103.084" type="line"/>
      <point x="217.57" y="83.574"/>
      <point x="189.92399999999998" y="73.10400000000001"/>
      <point x="160.11200000000002" y="73.10400000000001" type="curve" smooth="yes"/>
      <point x="128.728" y="73.10400000000001"/>
      <point x="112.322" y="92.39"/>
      <point x="113.00999999999999" y="120.52999999999999" type="curve" smooth="yes"/>
      <point x="119.202" y="170.822"/>
      <point x="128.2" y="228.092"/>
      <point x="177.338" y="538.6" type="curve"/>
      <point x="86.958" y="538.6" type="line"/>
      <point x="38.16" y="226.528"/>
      <point x="18.072000000000003" y="125.128"/>
      <point x="18.072000000000003" y="80.7" type="curve" smooth="yes"/>
      <point x="18.072000000000003" y="26.592"/>
      <point x="52.342000000000006" y="-10.0"/>
    </contour>
  </outline>
</glyph>
<glyph name="v" format="2">
  <advance width="376.02200000000005"/>
  <unicode hex="0076"/>
  <outline>
    <contour>
      <point x="195.504" y="-1.6240000000000003" type="line"/>
      <point x="326.682" y="286.294"/>
      <point x="391.548" y="400.77"/>
      <point x="396.606" y="538.6" type="curve"/>
      <point x="302.77" y="538.6" type="line"/>
      <point x="299.372" y="425.238"/>
      <point x="265.23400000000004" y="353.872"/>
      <point x="154.27599999999998" y="88.92" type="curve"/>
      <point x="139.69799999999998" y="539.74" type="line"/>
      <point x="44.141999999999996" y="538.842" type="line"/>
      <point x="83.36" y="-1.6240000000000003" type="line"/>
    </contour>
  </outline>
</glyph>
<glyph name="w" format="2">
  <advance width="584.616"/>
  <unicode hex="0077"/>
  <note>
15
</note>
  <anchor x="255.552" y="0.0" name="bottom"/>
  <anchor x="321.35200000000003" y="538.6" name="top"/>
  <outline>
    <contour>
      <point x="419.948" y="0.0" type="line"/>
      <point x="548.9639999999999" y="304.97599999999994"/>
      <point x="598.06" y="408.472"/>
      <point x="602.3079999999999" y="538.6" type="curve"/>
      <point x="514.148" y="538.6" type="line"/>
      <point x="506.86799999999994" y="423.156"/>
      <point x="482.00399999999996" y="349.52"/>
      <point x="380.06399999999996" y="92.56" type="curve"/>
      <point x="378.168" y="511.896" type="line"/>
      <point x="276.516" y="511.896" type="line"/>
      <point x="229.632" y="368.12"/>
      <point x="183.748" y="231.91199999999998"/>
      <point x="135.83200000000002" y="91.74799999999999" type="curve"/>
      <point x="134.94" y="539.74" type="line"/>
      <point x="43.324" y="538.928" type="line"/>
      <point x="63.400000000000006" y="0.0" type="line"/>
      <point x="174.68400000000003" y="0.0" type="line"/>
      <point x="218.988" y="126.78000000000002"/>
      <point x="264.652" y="258.532"/>
      <point x="306.89199999999994" y="383.592" type="curve"/>
      <point x="314.512" y="0.0" type="line"/>
    </contour>
  </outline>
</glyph>
<glyph name="x" format="2">
  <advance width="390.55"/>
  <unicode hex="0078"/>
  <outline>
    <contour>
      <point x="316.175" y="538.6" type="line"/>
      <point x="307.535" y="466.885"/>
      <point x="279.665" y="407.72"/>
      <point x="213.66" y="328.00500000000005" type="curve"/>
      <point x="159.165" y="542.8100000000001" type="line"/>
      <point x="59.82" y="538.1700000000001" type="line"/>
      <point x="139.965" y="281.175" type="line"/>
      <point x="44.075" y="183.755"/>
      <point x="-5.355" y="94.32000000000001"/>
      <point x="-17.230000000000004" y="0.0" type="curve"/>
      <point x="78.1" y="0.0" type="line"/>
      <point x="87.88" y="78.11000000000001"/>
      <point x="123.58" y="143.375"/>
      <point x="187.02999999999997" y="216.80999999999997" type="curve"/>
      <point x="243.735" y="-1.85" type="line"/>
      <point x="343.65500000000003" y="1.2149999999999999" type="line"/>
      <point x="259.36499999999995" y="266.575" type="line"/>
      <point x="359.04" y="369.085"/>
      <point x="401.205" y="472.62"/>
      <point x="410.285" y="538.6" type="curve"/>
    </contour>
  </outline>
</glyph>
<glyph name="y" format="2">
  <advance width="379.07"/>
  <unicode hex="0079"/>
  <anchor x="125.3" y="-210.0" name="bottom"/>
  <anchor x="220.17999999999998" y="538.6" name="top"/>
  <outline>
    <contour>
      <point x="310.21" y="543.16" type="line"/>
      <point x="291.52" y="380.59"/>
      <point x="232.85999999999999" y="229.25"/>
      <point x="168.60999999999999" y="83.21000000000001" type="curve"/>
      <point x="132.8" y="544.3" type="line"/>
      <point x="39.84" y="542.5899999999999" type="line"/>
      <point x="88.9" y="-1.1400000000000001" type="line"/>
      <point x="122.57" y="-1.1400000000000001" type="line"/>
      <point x="89.3" y="-72.04"/>
      <point x="50.3" y="-139.1"/>
      <point x="6.84" y="-209.43" type="curve"/>
      <point x="101.1" y="-215.7" type="line"/>
      <point x="240.67000000000002" y="35.54"/>
      <point x="374.39" y="310.8"/>
      <point x="401.73999999999995" y="541.4499999999999" type="curve"/>
    </contour>
  </outline>
</glyph>
<glyph name="z" format="2">
  <advance width="373.036"/>
  <unicode hex="007A"/>
  <anchor x="155.898" y="0.0" name="bottom"/>
  <anchor x="184.246" y="275.0" name="center"/>
  <anchor x="230.768" y="538.6" name="top"/>
  <outline>
    <contour>
      <point x="-12.16" y="0.0" type="line"/>
      <point x="318.68800000000005" y="0.0" type="line"/>
      <point x="331.234" y="79.56" type="line"/>
      <point x="104.994" y="79.56" type="line"/>
      <point x="373.012" y="462.206" type="line"/>
      <point x="387.466" y="538.6" type="line"/>
      <point x="78.254" y="538.6" type="line"/>
      <point x="65.27799999999999" y="458.352" type="line"/>
      <point x="270.054" y="458.352" type="line"/>
      <point x="-1.3879999999999995" y="71.75000000000001" type="line"/>
    </contour>
  </outline>
</glyph>
<glyph name="braceleft" format="2">
  <advance width="262.016"/>
  <unicode hex="007B"/>
  <outline>
    <contour>
      <point x="18.46" y="-104.09" type="curve" smooth="yes"/>
      <point x="18.46" y="-172.72000000000003"/>
      <point x="52.047999999999995" y="-210.0"/>
      <point x="108.694" y="-210.0" type="curve" smooth="yes"/>
      <point x="159.804" y="-210.0" type="line"/>
      <point x="172.608" y="-134.1" type="line"/>
      <point x="144.116" y="-134.1" type="line" smooth="yes"/>
      <point x="112.718" y="-134.1"/>
      <point x="100.242" y="-111.87"/>
      <point x="100.242" y="-79.012" type="curve" smooth="yes"/>
      <point x="100.242" y="15.691999999999998"/>
      <point x="165.01" y="97.19399999999999"/>
      <point x="165.01" y="190.33200000000002" type="curve" smooth="yes"/>
      <point x="165.01" y="222.12"/>
      <point x="157.228" y="251.39200000000002"/>
      <point x="129.928" y="268.99" type="curve"/>
      <point x="181.118" y="290.272"/>
      <point x="203.11" y="360.186"/>
      <point x="203.11" y="421.96999999999997" type="curve" smooth="yes"/>
      <point x="203.11" y="462.31000000000006"/>
      <point x="199.076" y="489.898"/>
      <point x="199.076" y="538.14" type="curve" smooth="yes"/>
      <point x="199.076" y="595.7040000000001"/>
      <point x="215.46" y="664.1"/>
      <point x="273.86" y="664.1" type="curve" smooth="yes"/>
      <point x="299.84000000000003" y="664.1" type="line"/>
      <point x="311.956" y="740.0" type="line"/>
      <point x="263.126" y="740.0" type="line" smooth="yes"/>
      <point x="156.34000000000003" y="740.0"/>
      <point x="120.19000000000001" y="633.7239999999999"/>
      <point x="120.19000000000001" y="530.854" type="curve" smooth="yes"/>
      <point x="120.19000000000001" y="482.824"/>
      <point x="125.17" y="452.178"/>
      <point x="125.17" y="417.868" type="curve" smooth="yes"/>
      <point x="125.17" y="369.22"/>
      <point x="115.54599999999999" y="308.68600000000004"/>
      <point x="74.028" y="308.68600000000004" type="curve" smooth="yes"/>
      <point x="59.855999999999995" y="308.68600000000004" type="line"/>
      <point x="47.396" y="230.43200000000002" type="line"/>
      <point x="60.77" y="230.43200000000002" type="line" smooth="yes"/>
      <point x="82.932" y="230.43200000000002"/>
      <point x="89.474" y="213.39600000000002"/>
      <point x="89.474" y="190.38" type="curve" smooth="yes"/>
      <point x="89.474" y="97.35600000000001"/>
      <point x="18.46" y="11.04"/>
    </contour>
  </outline>
</glyph>
<glyph name="bar" format="2">
  <advance width="168.07599999999996"/>
  <unicode hex="007C"/>
  <outline>
    <contour>
      <point x="204.45" y="790.3439999999999" type="line"/>
      <point x="127.53999999999999" y="790.3439999999999" type="line"/>
      <point x="-31.717999999999996" y="-210.0" type="line"/>
      <point x="45.45" y="-210.0" type="line"/>
    </contour>
  </outline>
</glyph>
<glyph name="braceright" format="2">
  <advance width="262.016"/>
  <unicode hex="007D"/>
  <outline>
    <contour>
      <point x="240.442" y="634.0899999999999" type="curve" smooth="yes"/>
      <point x="240.442" y="703.064"/>
      <point x="206.51" y="740.3439999999999"/>
      <point x="149.86399999999998" y="740.3439999999999" type="curve" smooth="yes"/>
      <point x="98.75399999999999" y="740.3439999999999" type="line"/>
      <point x="85.95" y="664.444" type="line"/>
      <point x="111.00200000000001" y="664.444" type="line" smooth="yes"/>
      <point x="142.74400000000003" y="664.444"/>
      <point x="155.564" y="641.87"/>
      <point x="155.564" y="609.0120000000001" type="curve" smooth="yes"/>
      <point x="155.564" y="513.62"/>
      <point x="90.796" y="443.102"/>
      <point x="90.796" y="342.73999999999995" type="curve" smooth="yes"/>
      <point x="90.796" y="311.984"/>
      <point x="98.234" y="282.71200000000005"/>
      <point x="126.22200000000001" y="265.45799999999997" type="curve"/>
      <point x="75.03200000000001" y="243.832"/>
      <point x="52.696000000000005" y="174.606"/>
      <point x="52.696000000000005" y="112.47800000000001" type="curve" smooth="yes"/>
      <point x="52.696000000000005" y="72.138"/>
      <point x="56.730000000000004" y="40.446000000000005"/>
      <point x="56.730000000000004" y="-7.108" type="curve" smooth="yes"/>
      <point x="56.730000000000004" y="-64.672"/>
      <point x="40.69" y="-133.756"/>
      <point x="-17.71" y="-133.756" type="curve" smooth="yes"/>
      <point x="-40.937999999999995" y="-133.756" type="line"/>
      <point x="-53.054" y="-210.0" type="line"/>
      <point x="-4.5680000000000005" y="-210.0" type="line" smooth="yes"/>
      <point x="102.218" y="-210.0"/>
      <point x="138.368" y="-99.25200000000001"/>
      <point x="138.368" y="-7.390000000000001" type="curve" smooth="yes"/>
      <point x="138.368" y="49.928"/>
      <point x="133.388" y="86.054"/>
      <point x="133.388" y="117.956" type="curve" smooth="yes"/>
      <point x="133.388" y="165.916"/>
      <point x="143.7" y="225.762"/>
      <point x="184.53" y="225.762" type="curve" smooth="yes"/>
      <point x="198.702" y="225.762" type="line"/>
      <point x="211.16199999999998" y="303.67199999999997" type="line"/>
      <point x="197.788" y="303.67199999999997" type="line" smooth="yes"/>
      <point x="175.626" y="303.67199999999997"/>
      <point x="169.084" y="320.708"/>
      <point x="169.084" y="343.724" type="curve" smooth="yes"/>
      <point x="169.084" y="437.09200000000004"/>
      <point x="240.442" y="514.144"/>
    </contour>
  </outline>
</glyph>
<glyph name="asciitilde" format="2">
  <advance width="414.002"/>
  <unicode hex="007E"/>
  <outline>
    <contour>
      <point x="353.004" y="245.91000000000003" type="curve"/>
      <point x="366.11999999999995" y="331.42600000000004" type="line"/>
      <point x="342.108" y="306.54"/>
      <point x="320.20599999999996" y="294.748"/>
      <point x="293.794" y="294.748" type="curve" smooth="yes"/>
      <point x="227.42" y="294.748"/>
      <point x="208.206" y="390.62"/>
      <point x="143.74" y="390.62" type="curve" smooth="yes"/>
      <point x="111.11" y="390.62"/>
      <point x="84.192" y="372.914"/>
      <point x="70.296" y="357.25" type="curve"/>
      <point x="56.75" y="271.62" type="line"/>
      <point x="73.82400000000001" y="289.79999999999995"/>
      <point x="99.196" y="307.49600000000004"/>
      <point x="130.07999999999998" y="307.49600000000004" type="curve" smooth="yes"/>
      <point x="193.256" y="307.49600000000004"/>
      <point x="212.296" y="211.624"/>
      <point x="282.138" y="211.624" type="curve" smooth="yes"/>
      <point x="308.484" y="211.624"/>
      <point x="330.734" y="222.73600000000002"/>
    </contour>
  </outline>
</glyph>
<glyph name="cent" format="2">
  <advance width="466.656"/>
  <unicode hex="00A2"/>
  <outline>
    <contour>
      <point x="164.922" y="-105.25800000000001" type="line"/>
      <point x="241.144" y="-105.25800000000001" type="line"/>
      <point x="256.574" y="-7.048" type="line"/>
      <point x="294.25399999999996" y="-4.474"/>
      <point x="327.682" y="1.726"/>
      <point x="350.54799999999994" y="9.931999999999999" type="curve"/>
      <point x="348.61" y="95.41799999999999" type="line"/>
      <point x="320.76" y="88.732"/>
      <point x="286.812" y="82.47800000000001"/>
      <point x="260.99" y="82.47800000000001" type="curve" smooth="yes"/>
      <point x="199.78399999999996" y="82.47800000000001"/>
      <point x="174.75199999999998" y="120.76"/>
      <point x="174.75199999999998" y="183.71" type="curve" smooth="yes"/>
      <point x="174.75199999999998" y="329.42799999999994"/>
      <point x="232.096" y="454.436"/>
      <point x="319.254" y="454.436" type="curve" smooth="yes"/>
      <point x="347.474" y="454.436"/>
      <point x="371.036" y="449.58400000000006"/>
      <point x="396.992" y="442.096" type="curve"/>
      <point x="425.464" y="532.0480000000001" type="line"/>
      <point x="401.52" y="539.192"/>
      <point x="377.66200000000003" y="544.764"/>
      <point x="347.084" y="546.4240000000001" type="curve"/>
      <point x="363.056" y="643.256" type="line"/>
      <point x="286.834" y="643.256" type="line"/>
      <point x="269.91600000000005" y="539.86" type="line"/>
      <point x="148.36200000000002" y="508.692"/>
      <point x="78.696" y="337.302"/>
      <point x="78.696" y="151.67000000000002" type="curve" smooth="yes"/>
      <point x="78.696" y="53.068"/>
      <point x="120.214" y="9.903999999999998"/>
      <point x="180.29800000000003" y="-2.7220000000000004" type="curve"/>
    </contour>
  </outline>
</glyph>
<glyph name="sterling" format="2">
  <advance width="467.17199999999997"/>
  <unicode hex="00A3"/>
  <outline>
    <contour>
      <point x="35.391999999999996" y="0.0" type="line"/>
      <point x="363.16" y="0.0" type="line"/>
      <point x="376.05" y="83.21" type="line"/>
      <point x="156.10399999999998" y="83.21" type="line"/>
      <point x="209.76399999999998" y="144.91600000000003"/>
      <point x="243.93999999999997" y="204.21200000000002"/>
      <point x="243.93999999999997" y="292.506" type="curve" smooth="yes"/>
      <point x="243.93999999999997" y="346.84"/>
      <point x="223.408" y="401.448"/>
      <point x="223.408" y="456.61400000000003" type="curve" smooth="yes"/>
      <point x="223.408" y="572.212"/>
      <point x="282.796" y="619.9659999999999"/>
      <point x="345.972" y="619.9659999999999" type="curve" smooth="yes"/>
      <point x="378.47599999999994" y="619.9659999999999"/>
      <point x="407.26000000000005" y="615.256"/>
      <point x="439.27799999999996" y="602.0880000000001" type="curve"/>
      <point x="467.22599999999994" y="681.98" type="line"/>
      <point x="429.87" y="700.8219999999999"/>
      <point x="386.86" y="710.0"/>
      <point x="344.222" y="710.0" type="curve" smooth="yes"/>
      <point x="222.03" y="710.0"/>
      <point x="134.85999999999999" y="616.248"/>
      <point x="134.85999999999999" y="470.934" type="curve" smooth="yes"/>
      <point x="134.85999999999999" y="393.84200000000004"/>
      <point x="158.29" y="348.858"/>
      <point x="158.29" y="282.74799999999993" type="curve" smooth="yes"/>
      <point x="158.29" y="190.01399999999998"/>
      <point x="108.12200000000001" y="126.89399999999999"/>
      <point x="44.076" y="66.01" type="curve"/>
    </contour>
    <contour>
      <point x="74.28" y="324.692" type="line"/>
      <point x="372.606" y="324.748" type="line"/>
      <point x="382.486" y="392.71200000000005" type="line"/>
      <point x="84.58999999999999" y="392.71200000000005" type="line"/>
    </contour>
  </outline>
</glyph>
<glyph name="currency" format="2">
  <advance width="400.25399999999996"/>
  <unicode hex="00A4"/>
  <outline>
    <contour>
      <point x="58.14" y="104.916" type="line"/>
      <point x="129.484" y="172.34799999999998" type="line"/>
      <point x="142.986" y="160.088"/>
      <point x="161.33599999999998" y="153.732"/>
      <point x="182.994" y="153.732" type="curve" smooth="yes"/>
      <point x="204.022" y="153.732"/>
      <point x="224.50799999999998" y="160.202"/>
      <point x="242.144" y="172.09" type="curve"/>
      <point x="292.812" y="104.916" type="line"/>
      <point x="353.04600000000005" y="161.744" type="line"/>
      <point x="306.25" y="223.75799999999998" type="line"/>
      <point x="324.794" y="247.056"/>
      <point x="337.118" y="277.224"/>
      <point x="337.80600000000004" y="309.674" type="curve" smooth="yes"/>
      <point x="338.49399999999997" y="328.142"/>
      <point x="334.98800000000006" y="345.472"/>
      <point x="328.288" y="360.77799999999996" type="curve"/>
      <point x="394.41400000000004" y="422.79200000000003" type="line"/>
      <point x="352.31000000000006" y="479.62" type="line"/>
      <point x="281.368" y="413.47799999999995" type="line"/>
      <point x="267.352" y="425.48"/>
      <point x="248.688" y="432.75"/>
      <point x="227.23" y="432.75" type="curve" smooth="yes"/>
      <point x="205.22799999999998" y="432.75"/>
      <point x="184.25400000000002" y="425.136"/>
      <point x="166.102" y="413.22" type="curve"/>
      <point x="117.552" y="479.62" type="line"/>
      <point x="57.542" y="422.79200000000003" type="line"/>
      <point x="103.458" y="359.944" type="line"/>
      <point x="85.31600000000002" y="337.336"/>
      <point x="73.906" y="308.48400000000004"/>
      <point x="73.21800000000002" y="277.18" type="curve" smooth="yes"/>
      <point x="72.53000000000002" y="257.77"/>
      <point x="75.69200000000001" y="239.726"/>
      <point x="82.47800000000001" y="224.478" type="curve"/>
      <point x="16.088" y="161.744" type="line"/>
    </contour>
    <contour>
      <point x="193.52999999999997" y="215.87199999999999" type="curve" smooth="yes"/>
      <point x="157.80599999999998" y="215.87199999999999"/>
      <point x="133.816" y="243.058"/>
      <point x="134.84799999999998" y="280.83799999999997" type="curve" smooth="yes"/>
      <point x="135.88" y="329.59"/>
      <point x="175.298" y="370.266"/>
      <point x="217.522" y="370.266" type="curve" smooth="yes"/>
      <point x="253.788" y="370.266"/>
      <point x="276.978" y="341.98999999999995"/>
      <point x="275.946" y="304.642" type="curve" smooth="yes"/>
      <point x="274.914" y="255.4"/>
      <point x="236.266" y="215.87199999999999"/>
    </contour>
  </outline>
</glyph>
<glyph name="yen" format="2">
  <advance width="467.20000000000005"/>
  <unicode hex="00A5"/>
  <outline>
    <contour>
      <point x="85.32000000000001" y="322.86" type="line"/>
      <point x="195.59" y="322.86" type="line"/>
      <point x="183.76999999999998" y="250.74" type="line"/>
      <point x="74.57000000000001" y="250.74" type="line"/>
      <point x="64.55000000000001" y="190.03" type="line"/>
      <point x="174.32" y="190.03" type="line"/>
      <point x="144.47" y="0.0" type="line"/>
      <point x="237.71999999999997" y="0.0" type="line"/>
      <point x="268.0" y="190.03" type="line"/>
      <point x="380.90999999999997" y="190.03" type="line"/>
      <point x="389.92999999999995" y="250.74" type="line"/>
      <point x="277.02" y="250.74" type="line"/>
      <point x="288.84" y="322.86" type="line"/>
      <point x="401.61" y="322.86" type="line"/>
      <point x="411.20000000000005" y="382.78000000000003" type="line"/>
      <point x="299.36" y="382.78000000000003" type="line"/>
      <point x="483.17" y="699.86" type="line"/>
      <point x="385.9" y="704.56" type="line"/>
      <point x="263.33000000000004" y="451.34999999999997" type="line"/>
      <point x="216.44" y="701.71" type="line"/>
      <point x="118.53" y="699.36" type="line"/>
      <point x="205.04000000000002" y="382.78000000000003" type="line"/>
      <point x="95.34" y="382.78000000000003" type="line"/>
    </contour>
  </outline>
</glyph>
<glyph name="brokenbar" format="2">
  <advance width="170.252"/>
  <unicode hex="00A6"/>
  <outline>
    <contour>
      <point x="141.74" y="391.0" type="line"/>
      <point x="206.51399999999998" y="790.3439999999999" type="line"/>
      <point x="129.604" y="790.3439999999999" type="line"/>
      <point x="64.83" y="391.0" type="line"/>
    </contour>
    <contour>
      <point x="32.712" y="190.344" type="line"/>
      <point x="-31.261999999999993" y="-210.0" type="line"/>
      <point x="45.562" y="-210.0" type="line"/>
      <point x="109.88" y="190.344" type="line"/>
    </contour>
  </outline>
</glyph>
<glyph name="section" format="2">
  <advance width="421.36199999999997"/>
  <unicode hex="00A7"/>
  <outline>
    <contour>
      <point x="7.084" y="-88.54400000000001" type="curve"/>
      <point x="-29.674" y="-178.934" type="line"/>
      <point x="7.578" y="-206.08599999999998"/>
      <point x="55.584" y="-220.0"/>
      <point x="97.8" y="-220.0" type="curve" smooth="yes"/>
      <point x="257.84999999999997" y="-220.0"/>
      <point x="370.47400000000005" y="-45.328"/>
      <point x="370.47400000000005" y="145.212" type="curve" smooth="yes"/>
      <point x="370.47400000000005" y="303.084"/>
      <point x="279.57800000000003" y="411.99"/>
      <point x="279.57800000000003" y="543.658" type="curve" smooth="yes"/>
      <point x="279.57800000000003" y="604.2320000000001"/>
      <point x="306.558" y="649.826"/>
      <point x="351.528" y="649.826" type="curve" smooth="yes"/>
      <point x="366.276" y="649.826"/>
      <point x="377.99199999999996" y="645.084"/>
      <point x="393.186" y="637.6" type="curve"/>
      <point x="427.18" y="730.442" type="line"/>
      <point x="401.25600000000003" y="743.296"/>
      <point x="359.378" y="749.3439999999999"/>
      <point x="329.454" y="749.3439999999999" type="curve" smooth="yes"/>
      <point x="158.744" y="749.3439999999999"/>
      <point x="52.996" y="586.962"/>
      <point x="52.996" y="392.54" type="curve" smooth="yes"/>
      <point x="52.996" y="216.61999999999998"/>
      <point x="143.026" y="88.898"/>
      <point x="143.026" y="-29.968" type="curve" smooth="yes"/>
      <point x="143.026" y="-81.264"/>
      <point x="115.98" y="-120.858"/>
      <point x="76.408" y="-120.858" type="curve" smooth="yes"/>
      <point x="52.262" y="-120.858"/>
      <point x="27.272" y="-108.69"/>
    </contour>
    <contour>
      <point x="281.818" y="686.338" type="curve"/>
      <point x="234.246" y="651.744"/>
      <point x="214.246" y="590.5419999999999"/>
      <point x="214.246" y="533.242" type="curve" smooth="yes"/>
      <point x="214.246" y="386.094"/>
      <point x="301.21799999999996" y="275.45000000000005"/>
      <point x="301.21799999999996" y="124.182" type="curve" smooth="yes"/>
      <point x="301.21799999999996" y="-11.823999999999998"/>
      <point x="225.708" y="-151.686"/>
      <point x="121.312" y="-161.654" type="curve"/>
      <point x="183.236" y="-132.38"/>
      <point x="209.702" y="-67.422"/>
      <point x="209.702" y="-4.414000000000008" type="curve" smooth="yes"/>
      <point x="209.702" y="125.348"/>
      <point x="123.268" y="253.10999999999999"/>
      <point x="123.268" y="398.87" type="curve" smooth="yes"/>
      <point x="123.268" y="536.1160000000001"/>
      <point x="178.256" y="655.28"/>
    </contour>
  </outline>
</glyph>
<glyph name="copyright" format="2">
  <advance width="568.132"/>
  <unicode hex="00A9"/>
  <outline>
    <contour>
      <point x="256.924" y="-10.172" type="curve" smooth="yes"/>
      <point x="453.512" y="-10.516"/>
      <point x="545.396" y="222.072"/>
      <point x="545.396" y="460.05199999999996" type="curve" smooth="yes"/>
      <point x="545.396" y="618.184"/>
      <point x="475.804" y="710.296"/>
      <point x="336.224" y="710.6400000000001" type="curve" smooth="yes"/>
      <point x="140.512" y="710.984"/>
      <point x="46.391999999999996" y="480.116"/>
      <point x="46.391999999999996" y="240.588" type="curve" smooth="yes"/>
      <point x="46.391999999999996" y="82.972"/>
      <point x="115.63999999999999" y="-9.828"/>
    </contour>
    <contour>
      <point x="282.668" y="148.844" type="curve" smooth="yes"/>
      <point x="309.064" y="148.844"/>
      <point x="339.32" y="154.90800000000002"/>
      <point x="359.448" y="163.364" type="curve"/>
      <point x="357.24399999999997" y="218.0" type="line"/>
      <point x="340.99199999999996" y="212.64000000000001"/>
      <point x="318.492" y="209.124"/>
      <point x="301.00800000000004" y="209.124" type="curve" smooth="yes"/>
      <point x="264.432" y="209.124"/>
      <point x="243.48000000000002" y="237.04399999999998"/>
      <point x="243.48000000000002" y="283.56" type="curve" smooth="yes"/>
      <point x="243.48000000000002" y="383.408"/>
      <point x="282.708" y="479.924"/>
      <point x="339.7199999999999" y="479.924" type="curve" smooth="yes"/>
      <point x="358.21999999999997" y="479.924"/>
      <point x="373.39199999999994" y="478.08000000000004"/>
      <point x="390.236" y="472.58" type="curve"/>
      <point x="408.276" y="533.908" type="line"/>
      <point x="391.25999999999993" y="540.44"/>
      <point x="369.132" y="544.676"/>
      <point x="341.032" y="544.676" type="curve" smooth="yes"/>
      <point x="252.38000000000002" y="544.676"/>
      <point x="177.83599999999998" y="433.42800000000005"/>
      <point x="177.83599999999998" y="282.512" type="curve" smooth="yes"/>
      <point x="177.83599999999998" y="193.868"/>
      <point x="216.016" y="148.844"/>
    </contour>
    <contour>
      <point x="260.67600000000004" y="28.108" type="curve" smooth="yes"/>
      <point x="143.10399999999998" y="28.108"/>
      <point x="87.40800000000002" y="103.77600000000001"/>
      <point x="87.40800000000002" y="243.38400000000001" type="curve" smooth="yes"/>
      <point x="87.40800000000002" y="452.92"/>
      <point x="160.94" y="672.532"/>
      <point x="332.316" y="672.532" type="curve" smooth="yes"/>
      <point x="448.16799999999995" y="672.532"/>
      <point x="504.37999999999994" y="596.692"/>
      <point x="504.37999999999994" y="457.428" type="curve" smooth="yes"/>
      <point x="504.37999999999994" y="248.23600000000002"/>
      <point x="431.70799999999997" y="28.108"/>
    </contour>
  </outline>
</glyph>
<glyph name="ordfeminine" format="2">
  <advance width="294.42400000000004"/>
  <unicode hex="00AA"/>
  <outline>
    <contour>
      <point x="33.422" y="266.586" type="line"/>
      <point x="259.91" y="266.586" type="line"/>
      <point x="267.898" y="317.128" type="line"/>
      <point x="41.410000000000004" y="317.128" type="line"/>
    </contour>
    <component base="a.superior" xOffset="10.052"/>
  </outline>
</glyph>
<glyph name="logicalnot" format="2">
  <advance width="409.92"/>
  <unicode hex="00AC"/>
  <outline>
    <contour>
      <point x="57.205999999999996" y="346.12600000000003" type="line"/>
      <point x="294.64000000000004" y="346.12600000000003" type="line"/>
      <point x="268.37600000000003" y="175.538" type="line"/>
      <point x="347.978" y="175.538" type="line"/>
      <point x="387.47599999999994" y="425.61600000000004" type="line"/>
      <point x="70.44000000000001" y="425.61600000000004" type="line"/>
    </contour>
  </outline>
</glyph>
<glyph name="registered" format="2">
  <advance width="512.48"/>
  <unicode hex="00AE"/>
  <outline>
    <contour>
      <point x="254.148" y="208.65599999999998" type="curve" smooth="yes"/>
      <point x="416.28" y="208.65599999999998"/>
      <point x="523.76" y="412.3"/>
      <point x="523.76" y="670.024" type="curve" smooth="yes"/>
      <point x="523.76" y="811.4040000000001"/>
      <point x="462.34" y="893.656"/>
      <point x="344.98800000000006" y="893.656" type="curve" smooth="yes"/>
      <point x="182.856" y="893.656"/>
      <point x="76.548" y="689.512"/>
      <point x="76.548" y="432.28799999999995" type="curve" smooth="yes"/>
      <point x="76.548" y="291.08"/>
      <point x="136.624" y="208.65599999999998"/>
    </contour>
    <contour>
      <point x="256.9" y="244.092" type="curve" smooth="yes"/>
      <point x="161.72799999999998" y="244.092"/>
      <point x="113.828" y="315.12"/>
      <point x="113.828" y="432.24" type="curve" smooth="yes"/>
      <point x="113.828" y="667.9439999999998"/>
      <point x="203.66" y="857.892"/>
      <point x="342.40799999999996" y="857.892" type="curve" smooth="yes"/>
      <point x="437.58" y="857.892"/>
      <point x="486.47999999999996" y="787.1919999999999"/>
      <point x="486.47999999999996" y="669.572" type="curve" smooth="yes"/>
      <point x="486.47999999999996" y="433.868"/>
      <point x="395.476" y="244.092"/>
    </contour>
    <contour>
      <point x="182.952" y="381.93600000000004" type="line"/>
      <point x="241.404" y="381.93600000000004" type="line"/>
      <point x="261.856" y="509.19599999999997" type="line"/>
      <point x="272.94399999999996" y="508.056"/>
      <point x="283.64399999999995" y="506.744"/>
      <point x="298.824" y="507.40000000000003" type="curve"/>
      <point x="317.3" y="515.7479999999999" type="line"/>
      <point x="378.76399999999995" y="523.884"/>
      <point x="417.56" y="573.436"/>
      <point x="417.56" y="647.86" type="curve" smooth="yes"/>
      <point x="417.56" y="710.96"/>
      <point x="387.11600000000004" y="738.312"/>
      <point x="323.55600000000004" y="738.312" type="curve" smooth="yes"/>
      <point x="295.552" y="738.312"/>
      <point x="270.216" y="736.4680000000001"/>
      <point x="238.67600000000002" y="732.296" type="curve"/>
    </contour>
    <contour>
      <point x="296.91200000000003" y="554.0160000000001" type="curve" smooth="yes"/>
      <point x="287.27599999999995" y="554.0160000000001"/>
      <point x="279.57599999999996" y="555.1719999999999"/>
      <point x="269.172" y="556.0" type="curve"/>
      <point x="289.124" y="683.912" type="line"/>
      <point x="303.388" y="685.724"/>
      <point x="309.34" y="686.724"/>
      <point x="322.196" y="686.724" type="curve" smooth="yes"/>
      <point x="348.908" y="686.724"/>
      <point x="359.59200000000004" y="673.2879999999999"/>
      <point x="359.59200000000004" y="645.42" type="curve" smooth="yes"/>
      <point x="359.59200000000004" y="590.832"/>
      <point x="338.516" y="554.0160000000001"/>
    </contour>
    <contour>
      <point x="373.184" y="378.06000000000006" type="curve" smooth="yes"/>
      <point x="376.904" y="378.06000000000006"/>
      <point x="385.40799999999996" y="379.248"/>
      <point x="390.144" y="381.28000000000003" type="curve"/>
      <point x="397.148" y="440.93600000000004" type="line"/>
      <point x="394.804" y="440.124"/>
      <point x="392.804" y="440.124"/>
      <point x="391.288" y="440.124" type="curve" smooth="yes"/>
      <point x="373.428" y="440.124"/>
      <point x="357.316" y="467.212"/>
      <point x="343.896" y="535.396" type="curve"/>
      <point x="290.05600000000004" y="521.0440000000001" type="line"/>
      <point x="316.14" y="398.47999999999996"/>
      <point x="339.208" y="378.06000000000006"/>
    </contour>
  </outline>
</glyph>
<glyph name="degree" format="2">
  <advance width="262.34"/>
  <unicode hex="00B0"/>
  <outline>
    <contour>
      <point x="159.88000000000002" y="451.028" type="curve" smooth="yes"/>
      <point x="240.22800000000004" y="451.028"/>
      <point x="286.21599999999995" y="537.404"/>
      <point x="286.21599999999995" y="618.932" type="curve" smooth="yes"/>
      <point x="286.21599999999995" y="675.568"/>
      <point x="260.66" y="720.088"/>
      <point x="200.76399999999998" y="720.088" type="curve" smooth="yes"/>
      <point x="120.048" y="720.088"/>
      <point x="74.256" y="632.548"/>
      <point x="74.256" y="551.248" type="curve" smooth="yes"/>
      <point x="74.256" y="494.348"/>
      <point x="100.904" y="451.028"/>
    </contour>
    <contour>
      <point x="169.76000000000002" y="519.532" type="curve" smooth="yes"/>
      <point x="146.272" y="519.532"/>
      <point x="135.11200000000002" y="538.3679999999999"/>
      <point x="135.11200000000002" y="565.1719999999999" type="curve" smooth="yes"/>
      <point x="135.11200000000002" y="607.64"/>
      <point x="155.912" y="650.208"/>
      <point x="190.36799999999997" y="650.208" type="curve" smooth="yes"/>
      <point x="214.456" y="650.208"/>
      <point x="225.388" y="630.432"/>
      <point x="225.388" y="603.7719999999999" type="curve" smooth="yes"/>
      <point x="225.388" y="561.62"/>
      <point x="204.044" y="519.532"/>
    </contour>
  </outline>
</glyph>
<glyph name="plusminus" format="2">
  <advance width="411.00399999999996"/>
  <unicode hex="00B1"/>
  <outline>
    <contour>
      <point x="329.012" y="42.094" type="line"/>
      <point x="342.24600000000004" y="125.48" type="line"/>
      <point x="221.606" y="125.48" type="line"/>
      <point x="246.23600000000002" y="279.908" type="line"/>
      <point x="366.42" y="279.908" type="line"/>
      <point x="379.654" y="363.294" type="line"/>
      <point x="259.46999999999997" y="363.294" type="line"/>
      <point x="284.81600000000003" y="512.19" type="line"/>
      <point x="204.86999999999998" y="512.19" type="line"/>
      <point x="179.80800000000002" y="363.294" type="line"/>
      <point x="58.970000000000006" y="363.294" type="line"/>
      <point x="45.736" y="279.908" type="line"/>
      <point x="166.29" y="279.908" type="line"/>
      <point x="141.488" y="125.48" type="line"/>
      <point x="21.562" y="125.48" type="line"/>
      <point x="8.328" y="42.094" type="line"/>
    </contour>
  </outline>
</glyph>
<glyph name="uni00B2" format="2">
  <advance width="286.27"/>
  <unicode hex="00B2"/>
  <outline>
    <contour>
      <point x="49.04" y="368.53200000000004" type="line"/>
      <point x="263.71400000000006" y="368.53200000000004" type="line"/>
      <point x="271.492" y="416.062" type="line"/>
      <point x="133.944" y="416.062" type="line"/>
      <point x="214.822" y="506.08799999999997"/>
      <point x="291.174" y="596.824"/>
      <point x="291.174" y="692.508" type="curve" smooth="yes"/>
      <point x="291.174" y="743.732"/>
      <point x="258.806" y="773.102"/>
      <point x="208.072" y="773.102" type="curve" smooth="yes"/>
      <point x="171.36999999999998" y="773.102"/>
      <point x="132.206" y="759.796"/>
      <point x="102.46000000000001" y="737.468" type="curve"/>
      <point x="116.53399999999999" y="684.7040000000001" type="line"/>
      <point x="141.314" y="702.232"/>
      <point x="161.314" y="709.732"/>
      <point x="183.61" y="709.732" type="curve" smooth="yes"/>
      <point x="209.12199999999999" y="709.732"/>
      <point x="222.456" y="692.774"/>
      <point x="222.456" y="665.202" type="curve" smooth="yes"/>
      <point x="221.8" y="593.24"/>
      <point x="138.50400000000002" y="489.2"/>
      <point x="54.474000000000004" y="409.70799999999997" type="curve"/>
    </contour>
  </outline>
</glyph>
<glyph name="uni00B3" format="2">
  <advance width="294.165"/>
  <unicode hex="00B3"/>
  <outline>
    <contour>
      <point x="42.419999999999995" y="395.565" type="line"/>
      <point x="68.295" y="374.71500000000003"/>
      <point x="102.30499999999999" y="364.43"/>
      <point x="141.62" y="364.43" type="curve" smooth="yes"/>
      <point x="224.475" y="364.43"/>
      <point x="288.335" y="418.245"/>
      <point x="288.335" y="503.77500000000003" type="curve" smooth="yes"/>
      <point x="288.335" y="542.7850000000001"/>
      <point x="270.395" y="567.99"/>
      <point x="245.82" y="577.855" type="curve"/>
      <point x="281.77" y="596.655"/>
      <point x="308.85" y="634.28"/>
      <point x="308.85" y="687.14" type="curve" smooth="yes"/>
      <point x="308.85" y="740.8549999999999"/>
      <point x="270.035" y="774.075"/>
      <point x="208.065" y="774.075" type="curve" smooth="yes"/>
      <point x="172.60000000000002" y="774.075"/>
      <point x="136.635" y="765.635"/>
      <point x="107.7" y="748.2750000000001" type="curve"/>
      <point x="118.42" y="703.025" type="line"/>
      <point x="139.845" y="713.23"/>
      <point x="165.855" y="718.23"/>
      <point x="188.64499999999998" y="718.23" type="curve" smooth="yes"/>
      <point x="224.21" y="718.23"/>
      <point x="245.41" y="700.105"/>
      <point x="245.41" y="667.295" type="curve" smooth="yes"/>
      <point x="245.41" y="626.71"/>
      <point x="218.14000000000001" y="597.18"/>
      <point x="181.93" y="597.18" type="curve" smooth="yes"/>
      <point x="136.87" y="597.18" type="line"/>
      <point x="129.28" y="553.8" type="line"/>
      <point x="174.625" y="553.8" type="line" smooth="yes"/>
      <point x="211.98999999999998" y="553.8"/>
      <point x="229.55" y="536.525"/>
      <point x="229.55" y="503.285" type="curve" smooth="yes"/>
      <point x="229.55" y="458.06"/>
      <point x="198.785" y="417.91"/>
      <point x="140.69" y="417.91" type="curve" smooth="yes"/>
      <point x="113.33500000000001" y="417.91"/>
      <point x="90.19" y="425.47499999999997"/>
      <point x="70.39999999999999" y="440.89" type="curve"/>
    </contour>
  </outline>
</glyph>
<glyph name="uni00B5" format="2">
  <advance width="420.138"/>
  <unicode hex="00B5"/>
  <outline>
    <contour>
      <point x="-28.682000000000002" y="-210.0" type="line"/>
      <point x="61.07" y="-210.0" type="line"/>
      <point x="96.69" y="14.226000000000003" type="line"/>
      <point x="103.936" y="-1.8199999999999994"/>
      <point x="119.35999999999999" y="-10.0"/>
      <point x="141.626" y="-10.0" type="curve" smooth="yes"/>
      <point x="178.622" y="-10.0"/>
      <point x="214.61" y="4.5120000000000005"/>
      <point x="253.81000000000006" y="36.81" type="curve"/>
      <point x="261.112" y="8.19"/>
      <point x="285.10799999999995" y="-10.0"/>
      <point x="318.564" y="-10.0" type="curve" smooth="yes"/>
      <point x="337.572" y="-10.0"/>
      <point x="364.228" y="-3.018"/>
      <point x="381.358" y="8.342" type="curve"/>
      <point x="386.13199999999995" y="79.1" type="line"/>
      <point x="376.914" y="75.562"/>
      <point x="367.612" y="73.85199999999999"/>
      <point x="362.67600000000004" y="73.85199999999999" type="curve" smooth="yes"/>
      <point x="347.324" y="73.85199999999999"/>
      <point x="341.214" y="82.81400000000001"/>
      <point x="341.214" y="99.688" type="curve" smooth="yes"/>
      <point x="341.214" y="108.36399999999999"/>
      <point x="343.12600000000003" y="124.8"/>
      <point x="409.56200000000007" y="538.6" type="curve"/>
      <point x="319.41200000000003" y="538.6" type="line"/>
      <point x="250.63" y="103.084" type="line"/>
      <point x="219.768" y="83.574"/>
      <point x="188.474" y="73.10400000000001"/>
      <point x="161.398" y="73.10400000000001" type="curve" smooth="yes"/>
      <point x="130.014" y="73.10400000000001"/>
      <point x="114.064" y="90.11"/>
      <point x="114.752" y="118.25" type="curve" smooth="yes"/>
      <point x="122.664" y="170.366"/>
      <point x="139.974" y="290.108"/>
      <point x="179.536" y="538.6" type="curve"/>
      <point x="89.156" y="538.6" type="line"/>
    </contour>
  </outline>
</glyph>
<glyph name="paragraph" format="2">
  <advance width="493.424"/>
  <unicode hex="00B6"/>
  <outline>
    <contour>
      <point x="296.116" y="-210.0" type="line"/>
      <point x="366.834" y="-210.0" type="line"/>
      <point x="517.9519999999999" y="740.0" type="line"/>
      <point x="447.234" y="740.0" type="line"/>
    </contour>
    <contour>
      <point x="202.26" y="270.846" type="line"/>
      <point x="159.27599999999998" y="280.34799999999996"/>
      <point x="132.906" y="325.842"/>
      <point x="132.906" y="395.432" type="curve" smooth="yes"/>
      <point x="132.906" y="523.146"/>
      <point x="187.006" y="652.958"/>
      <point x="295.018" y="656.724" type="curve"/>
      <point x="157.73600000000002" y="-210.0" type="line"/>
      <point x="228.454" y="-210.0" type="line"/>
      <point x="379.57199999999995" y="740.0" type="line"/>
      <point x="332.632" y="740.0" type="line" smooth="yes"/>
      <point x="153.81000000000003" y="740.0"/>
      <point x="53.876000000000005" y="580.504"/>
      <point x="53.876000000000005" y="390.44800000000004" type="curve" smooth="yes"/>
      <point x="53.876000000000005" y="292.622"/>
      <point x="96.48599999999999" y="224.706"/>
      <point x="182.64" y="206.612" type="curve"/>
    </contour>
  </outline>
</glyph>
<glyph name="periodcentered" format="2">
  <advance width="164.45000000000002"/>
  <unicode hex="00B7"/>
  <outline>
    <contour>
      <point x="33.577" y="287.449" type="curve" smooth="yes"/>
      <point x="32.465" y="256.81899999999996"/>
      <point x="44.513999999999996" y="243.555"/>
      <point x="76.88300000000001" y="243.555" type="curve" smooth="yes"/>
      <point x="122.80600000000001" y="243.555"/>
      <point x="137.781" y="280.675"/>
      <point x="138.949" y="320.736" type="curve" smooth="yes"/>
      <point x="140.061" y="350.609"/>
      <point x="127.90899999999999" y="364.2"/>
      <point x="96.185" y="364.2" type="curve" smooth="yes"/>
      <point x="51.337" y="364.2"/>
      <point x="34.745000000000005" y="327.08"/>
    </contour>
  </outline>
</glyph>
<glyph name="uni00B9" format="2">
  <advance width="275.002"/>
  <unicode hex="00B9"/>
  <outline>
    <contour>
      <point x="43.396" y="370.0" type="line"/>
      <point x="267.72799999999995" y="370.0" type="line"/>
      <point x="276.43600000000004" y="420.77" type="line"/>
      <point x="201.112" y="420.77" type="line"/>
      <point x="258.7" y="768.568" type="line"/>
      <point x="224.852" y="768.568" type="line"/>
      <point x="93.336" y="706.194" type="line"/>
      <point x="99.104" y="650.7719999999999" type="line"/>
      <point x="183.464" y="694.328" type="line"/>
      <point x="138.274" y="420.77" type="line"/>
      <point x="51.758" y="420.77" type="line"/>
    </contour>
  </outline>
</glyph>
<glyph name="ordmasculine" format="2">
  <advance width="277.51800000000003"/>
  <unicode hex="00BA"/>
  <outline>
    <contour>
      <point x="32.681999999999995" y="266.586" type="line"/>
      <point x="240.50400000000002" y="266.586" type="line"/>
      <point x="248.036" y="317.128" type="line"/>
      <point x="40.214000000000006" y="317.128" type="line"/>
    </contour>
    <component base="o.superior" xOffset="12.559999999999999"/>
  </outline>
</glyph>
<glyph name="AE" format="2">
  <advance width="654.883"/>
  <unicode hex="00C6"/>
  <anchor x="294.7498920000001" y="0.0" name="bottom"/>
  <anchor x="417.65299999999996" y="700.0" name="top"/>
  <outline>
    <contour>
      <point x="257.50699999999995" y="0.0" type="line"/>
      <point x="591.874" y="0.0" type="line"/>
      <point x="605.1940000000001" y="85.005" type="line"/>
      <point x="360.562" y="85.005" type="line"/>
      <point x="395.671" y="307.704" type="line"/>
      <point x="605.1719999999999" y="307.704" type="line"/>
      <point x="618.922" y="390.5590000000001" type="line"/>
      <point x="409.206" y="390.5590000000001" type="line"/>
      <point x="444.38000000000005" y="613.9200000000001" type="line"/>
      <point x="676.498" y="613.9200000000001" type="line"/>
      <point x="691.0049999999999" y="700.0" type="line"/>
      <point x="305.30899999999997" y="700.0" type="line"/>
      <point x="-39.95399999999999" y="0.0" type="line"/>
      <point x="61.40899999999999" y="0.0" type="line"/>
      <point x="177.84300000000002" y="237.184" type="line"/>
      <point x="294.32599999999996" y="237.184" type="line"/>
    </contour>
    <contour>
      <point x="213.484" y="318.749" type="line"/>
      <point x="354.533" y="621.754" type="line"/>
      <point x="307.21599999999995" y="318.749" type="line"/>
    </contour>
  </outline>
</glyph>
<glyph name="multiply" format="2">
  <advance width="389.044"/>
  <unicode hex="00D7"/>
  <outline>
    <contour>
      <point x="75.176" y="106.88499999999999" type="line"/>
      <point x="191.54500000000002" y="247.70600000000002" type="line"/>
      <point x="260.61800000000005" y="107.053" type="line"/>
      <point x="323.84299999999996" y="165.64299999999997" type="line"/>
      <point x="253.35" y="308.39700000000005" type="line"/>
      <point x="372.512" y="454.553" type="line"/>
      <point x="325.262" y="512.311" type="line"/>
      <point x="209.90299999999996" y="371.266" type="line"/>
      <point x="138.97" y="512.311" type="line"/>
      <point x="75.53" y="454.58099999999996" type="line"/>
      <point x="147.341" y="310.04200000000003" type="line"/>
      <point x="27.711000000000002" y="164.21299999999997" type="line"/>
    </contour>
  </outline>
</glyph>
<glyph name="Oslash" format="2">
  <advance width="501.69999999999993"/>
  <unicode hex="00D8"/>
  <anchor x="309.06" y="700.0" name="top"/>
  <outline>
    <contour>
      <point x="532.22" y="710.0" type="line"/>
      <point x="457.76" y="710.0" type="line"/>
      <point x="401.11" y="626.76" type="line"/>
      <point x="397.89" y="627.62" type="line"/>
      <point x="88.13" y="138.95999999999998" type="line"/>
      <point x="85.34" y="140.25" type="line"/>
      <point x="-11.76" y="-5.7" type="line"/>
      <point x="63.059999999999995" y="-5.7" type="line"/>
      <point x="117.34" y="74.02000000000001" type="line"/>
      <point x="120.56" y="73.16" type="line"/>
      <point x="432.54" y="565.62" type="line"/>
      <point x="435.33000000000004" y="564.3299999999999" type="line"/>
    </contour>
    <contour>
      <point x="218.5" y="-9.14" type="curve" smooth="yes"/>
      <point x="400.17" y="-9.14"/>
      <point x="489.71" y="252.99"/>
      <point x="489.71" y="478.86" type="curve" smooth="yes"/>
      <point x="489.71" y="632.25"/>
      <point x="427.32" y="709.14"/>
      <point x="302.46" y="709.14" type="curve" smooth="yes"/>
      <point x="122.94" y="709.14"/>
      <point x="31.250000000000004" y="447.44"/>
      <point x="31.250000000000004" y="221.14000000000001" type="curve" smooth="yes"/>
      <point x="31.250000000000004" y="67.32"/>
      <point x="93.64" y="-9.14"/>
    </contour>
    <contour>
      <point x="225.38" y="75.08" type="curve" smooth="yes"/>
      <point x="163.4" y="75.08"/>
      <point x="123.35" y="115.22"/>
      <point x="123.35" y="213.61" type="curve" smooth="yes"/>
      <point x="123.35" y="390.21"/>
      <point x="189.82" y="624.9200000000001"/>
      <point x="298.15999999999997" y="624.9200000000001" type="curve" smooth="yes"/>
      <point x="358.42" y="624.9200000000001"/>
      <point x="398.03999999999996" y="585.21"/>
      <point x="398.03999999999996" y="487.24999999999994" type="curve" smooth="yes"/>
      <point x="398.03999999999996" y="320.97"/>
      <point x="332.0" y="75.08"/>
    </contour>
  </outline>
</glyph>
<glyph name="Thorn" format="2">
  <advance width="455.07000000000005"/>
  <unicode hex="00DE"/>
  <outline>
    <contour>
      <point x="5.1000000000000005" y="0.0" type="line"/>
      <point x="97.415" y="0.0" type="line"/>
      <point x="119.82" y="139.20999999999998" type="line"/>
      <point x="156.755" y="136.635"/>
      <point x="179.50500000000002" y="136.42"/>
      <point x="212.12499999999997" y="136.42" type="curve" smooth="yes"/>
      <point x="364.125" y="136.42"/>
      <point x="454.585" y="252.19"/>
      <point x="454.585" y="443.22999999999996" type="curve" smooth="yes"/>
      <point x="454.585" y="556.0699999999999"/>
      <point x="401.995" y="617.8199999999999"/>
      <point x="267.77" y="617.8199999999999" type="curve" smooth="yes"/>
      <point x="251.075" y="617.8199999999999"/>
      <point x="229.595" y="617.0350000000001"/>
      <point x="195.14" y="615.0400000000001" type="curve"/>
      <point x="208.70499999999998" y="700.0" type="line"/>
      <point x="116.39" y="700.0" type="line"/>
    </contour>
    <contour>
      <point x="207.115" y="218.13" type="curve" smooth="yes"/>
      <point x="176.74" y="218.13"/>
      <point x="160.405" y="218.70000000000002"/>
      <point x="133.785" y="220.915" type="curve"/>
      <point x="182.175" y="531.6850000000001" type="line"/>
      <point x="221.07" y="535.04"/>
      <point x="238.4" y="536.04"/>
      <point x="259.18" y="536.04" type="curve" smooth="yes"/>
      <point x="332.31" y="536.04"/>
      <point x="362.485" y="501.70500000000004"/>
      <point x="362.485" y="433.07" type="curve" smooth="yes"/>
      <point x="362.485" y="300.3"/>
      <point x="307.60499999999996" y="218.13"/>
    </contour>
  </outline>
</glyph>
<glyph name="germandbls" format="2">
  <advance width="509.365"/>
  <unicode hex="00DF"/>
  <outline>
    <contour>
      <point x="21.91" y="-32.89000000000001" type="line" smooth="yes"/>
      <point x="11.420000000000002" y="-97.4"/>
      <point x="-7.285" y="-135.055"/>
      <point x="-49.23" y="-135.055" type="curve" smooth="yes"/>
      <point x="-61.43499999999999" y="-135.055"/>
      <point x="-73.0" y="-133.485"/>
      <point x="-89.065" y="-128.345" type="curve"/>
      <point x="-111.77000000000001" y="-206.625" type="line"/>
      <point x="-88.81500000000001" y="-215.85"/>
      <point x="-63.295" y="-220.0"/>
      <point x="-37.41" y="-220.0" type="curve" smooth="yes"/>
      <point x="49.235" y="-220.0"/>
      <point x="92.41999999999999" y="-158.83"/>
      <point x="111.075" y="-40.254999999999995" type="curve" smooth="yes"/>
      <point x="199.335" y="518.295" type="line" smooth="yes"/>
      <point x="214.675" y="614.6249999999999"/>
      <point x="257.10499999999996" y="667.2149999999999"/>
      <point x="334.575" y="667.2149999999999" type="curve" smooth="yes"/>
      <point x="380.56" y="667.2149999999999"/>
      <point x="404.545" y="651.3800000000001"/>
      <point x="404.545" y="617.2149999999999" type="curve" smooth="yes"/>
      <point x="404.545" y="583.12"/>
      <point x="387.845" y="561.145"/>
      <point x="331.93499999999995" y="528.895" type="curve" smooth="yes"/>
      <point x="262.93" y="489.71"/>
      <point x="226.97499999999997" y="448.405"/>
      <point x="226.97499999999997" y="373.01" type="curve" smooth="yes"/>
      <point x="226.97499999999997" y="307.39000000000004"/>
      <point x="264.07" y="268.675"/>
      <point x="329.01000000000005" y="232.35999999999999" type="curve" smooth="yes"/>
      <point x="381.58" y="202.97"/>
      <point x="398.78499999999997" y="183.425"/>
      <point x="398.78499999999997" y="152.20000000000002" type="curve" smooth="yes"/>
      <point x="398.78499999999997" y="104.99"/>
      <point x="356.90000000000003" y="70.34499999999998"/>
      <point x="297.465" y="70.34499999999998" type="curve" smooth="yes"/>
      <point x="259.59999999999997" y="70.34499999999998"/>
      <point x="216.085" y="78.985"/>
      <point x="182.22" y="91.91" type="curve"/>
      <point x="159.67499999999998" y="17.435000000000002" type="line"/>
      <point x="195.97499999999997" y="1.22"/>
      <point x="244.06" y="-10.0"/>
      <point x="295.32" y="-10.0" type="curve" smooth="yes"/>
      <point x="419.9200000000001" y="-10.0"/>
      <point x="489.235" y="54.505"/>
      <point x="489.235" y="162.005" type="curve" smooth="yes"/>
      <point x="489.235" y="224.82999999999998"/>
      <point x="458.64000000000004" y="263.34999999999997"/>
      <point x="395.63500000000005" y="299.59000000000003" type="curve" smooth="yes"/>
      <point x="333.98" y="335.62"/>
      <point x="313.63" y="352.65500000000003"/>
      <point x="313.63" y="384.68" type="curve" smooth="yes"/>
      <point x="313.63" y="419.695"/>
      <point x="334.26" y="440.09"/>
      <point x="398.555" y="475.84000000000003" type="curve" smooth="yes"/>
      <point x="465.545" y="513.65"/>
      <point x="495.5" y="551.8149999999999"/>
      <point x="495.5" y="624.87" type="curve" smooth="yes"/>
      <point x="495.5" y="706.09"/>
      <point x="437.28" y="750.0"/>
      <point x="341.16999999999996" y="750.0" type="curve" smooth="yes"/>
      <point x="201.95499999999998" y="750.0"/>
      <point x="134.53500000000003" y="676.125"/>
      <point x="111.39" y="531.835" type="curve" smooth="yes"/>
      <point x="106.4" y="499.695" type="line"/>
      <point x="42.935" y="491.69" type="line"/>
      <point x="30.545" y="421.06999999999994" type="line"/>
      <point x="93.3" y="421.06999999999994" type="line"/>
    </contour>
  </outline>
</glyph>
<glyph name="ae" format="2">
  <advance width="645.25"/>
  <unicode hex="00E6"/>
  <anchor x="288.58" y="0.0" name="bottom"/>
  <anchor x="366.53000000000003" y="538.6" name="top"/>
  <outline>
    <contour>
      <point x="138.85999999999999" y="-10.0" type="curve" smooth="yes"/>
      <point x="177.28" y="-10.0"/>
      <point x="211.63" y="2.8500000000000005"/>
      <point x="241.00000000000003" y="28.59" type="curve"/>
      <point x="235.14" y="-4.35" type="line"/>
      <point x="318.93" y="-4.35" type="line"/>
      <point x="331.96999999999997" y="76.53000000000002" type="line"/>
      <point x="351.21999999999997" y="24.799999999999997"/>
      <point x="396.93" y="-9.14"/>
      <point x="460.88" y="-9.14" type="curve" smooth="yes"/>
      <point x="505.73999999999995" y="-9.14"/>
      <point x="554.45" y="0.9999999999999998"/>
      <point x="592.3199999999999" y="21.87" type="curve"/>
      <point x="580.16" y="99.36" type="line"/>
      <point x="540.66" y="82.36"/>
      <point x="506.4" y="73.29"/>
      <point x="468.11" y="73.29" type="curve" smooth="yes"/>
      <point x="400.93" y="73.29"/>
      <point x="358.94" y="122.39000000000001"/>
      <point x="358.94" y="200.16" type="curve" smooth="yes"/>
      <point x="358.94" y="346.33"/>
      <point x="416.5" y="470.9"/>
      <point x="501.5400000000001" y="470.9" type="curve" smooth="yes"/>
      <point x="539.26" y="470.9"/>
      <point x="557.16" y="455.01"/>
      <point x="557.16" y="420.76" type="curve" smooth="yes"/>
      <point x="557.16" y="367.66999999999996"/>
      <point x="511.86" y="326.17"/>
      <point x="437.58000000000004" y="301.76" type="curve" smooth="yes"/>
      <point x="406.4" y="291.2"/>
      <point x="372.94" y="285.99"/>
      <point x="339.11" y="285.78" type="curve"/>
      <point x="329.87" y="220.05" type="line"/>
      <point x="369.73" y="219.33"/>
      <point x="415.21999999999997" y="224.47"/>
      <point x="458.01" y="237.18" type="curve" smooth="yes"/>
      <point x="573.1700000000001" y="268.39"/>
      <point x="645.25" y="342.34"/>
      <point x="645.25" y="436.09000000000003" type="curve" smooth="yes"/>
      <point x="645.25" y="504.92"/>
      <point x="605.31" y="548.6"/>
      <point x="533.21" y="548.6" type="curve" smooth="yes"/>
      <point x="475.40000000000003" y="548.6"/>
      <point x="425.01" y="520.4399999999999"/>
      <point x="391.74" y="467.90000000000003" type="curve"/>
      <point x="404.42999999999995" y="546.6" type="line"/>
      <point x="322.43" y="546.6" type="line"/>
      <point x="319.0" y="525.0200000000001" type="line"/>
      <point x="298.71999999999997" y="541.6"/>
      <point x="272.44" y="548.6"/>
      <point x="244.43" y="548.6" type="curve" smooth="yes"/>
      <point x="112.69" y="548.6"/>
      <point x="18.05" y="388.51"/>
      <point x="18.05" y="157.38" type="curve" smooth="yes"/>
      <point x="18.05" y="49.37"/>
      <point x="62.85" y="-10.0"/>
    </contour>
    <contour>
      <point x="178.06" y="65.62" type="curve" smooth="yes"/>
      <point x="138.34" y="65.62"/>
      <point x="112.3" y="99.35000000000001"/>
      <point x="112.3" y="164.47" type="curve" smooth="yes"/>
      <point x="112.3" y="325.58000000000004"/>
      <point x="179.16" y="470.53999999999996"/>
      <point x="256.62" y="470.53999999999996" type="curve" smooth="yes"/>
      <point x="276.23999999999995" y="470.53999999999996"/>
      <point x="293.28000000000003" y="467.05"/>
      <point x="308.26" y="455.14000000000004" type="curve"/>
      <point x="250.88" y="89.58" type="line"/>
      <point x="230.12" y="75.03"/>
      <point x="202.95" y="65.62"/>
    </contour>
  </outline>
</glyph>
<glyph name="eth" format="2">
  <advance width="420.71"/>
  <unicode hex="00F0"/>
  <outline>
    <contour>
      <point x="338.37" y="430.51000000000005" type="curve"/>
      <point x="353.19" y="500.31999999999994" type="line"/>
      <point x="324.61" y="523.6600000000001"/>
      <point x="283.03999999999996" y="534.0"/>
      <point x="244.71" y="534.0" type="curve" smooth="yes"/>
      <point x="93.24" y="534.0"/>
      <point x="17.97" y="342.32"/>
      <point x="17.97" y="166.01000000000002" type="curve" smooth="yes"/>
      <point x="17.97" y="42.29"/>
      <point x="79.32000000000001" y="-9.57"/>
      <point x="170.29000000000002" y="-9.57" type="curve" smooth="yes"/>
      <point x="295.44" y="-9.57"/>
      <point x="362.33" y="73.35"/>
      <point x="401.47999999999996" y="313.76" type="curve" smooth="yes"/>
      <point x="412.54" y="383.27000000000004"/>
      <point x="419.18" y="439.81"/>
      <point x="419.18" y="488.07" type="curve" smooth="yes"/>
      <point x="419.18" y="649.7399999999999"/>
      <point x="337.82" y="730.2099999999999"/>
      <point x="190.28" y="730.2099999999999" type="curve" smooth="yes"/>
      <point x="153.95999999999998" y="730.2099999999999"/>
      <point x="119.80000000000001" y="722.91"/>
      <point x="87.22999999999999" y="715.48" type="curve"/>
      <point x="89.8" y="648.96" type="line"/>
      <point x="116.05999999999999" y="653.81"/>
      <point x="139.35" y="658.96"/>
      <point x="174.73" y="658.96" type="curve" smooth="yes"/>
      <point x="280.96000000000004" y="658.96"/>
      <point x="328.37" y="612.72"/>
      <point x="328.37" y="504.2" type="curve" smooth="yes"/>
      <point x="328.37" y="459.24"/>
      <point x="323.95" y="403.14000000000004"/>
      <point x="312.03000000000003" y="331.75" type="curve" smooth="yes"/>
      <point x="276.39" y="118.31"/>
      <point x="238.22" y="61.67999999999999"/>
      <point x="177.31" y="61.67999999999999" type="curve" smooth="yes"/>
      <point x="132.17000000000002" y="61.67999999999999"/>
      <point x="106.13" y="91.92"/>
      <point x="106.13" y="153.76" type="curve" smooth="yes"/>
      <point x="106.13" y="285.54"/>
      <point x="161.57" y="462.39000000000004"/>
      <point x="257.54" y="462.39000000000004" type="curve" smooth="yes"/>
      <point x="285.49" y="462.39000000000004"/>
      <point x="314.6" y="453.69"/>
    </contour>
    <contour>
      <point x="178.78" y="558.3100000000001" type="line"/>
      <point x="323.63" y="644.3299999999999" type="line"/>
      <point x="321.41" y="647.77" type="line"/>
      <point x="465.41999999999996" y="733.77" type="line"/>
      <point x="376.80999999999995" y="733.77" type="line"/>
      <point x="281.88" y="677.25" type="line"/>
      <point x="284.89" y="674.24" type="line"/>
      <point x="91.82" y="558.3100000000001" type="line"/>
    </contour>
  </outline>
</glyph>
<glyph name="divide" format="2">
  <advance width="411.49399999999997"/>
  <unicode hex="00F7"/>
  <outline>
    <contour>
      <point x="133.80200000000002" y="113.36199999999998" type="curve" smooth="yes"/>
      <point x="132.802" y="90.28399999999999"/>
      <point x="144.636" y="79.71199999999999"/>
      <point x="173.66799999999998" y="79.71199999999999" type="curve" smooth="yes"/>
      <point x="210.36399999999998" y="79.71199999999999"/>
      <point x="227.59199999999998" y="96.192"/>
      <point x="229.73199999999997" y="141.98200000000003" type="curve" smooth="yes"/>
      <point x="230.73199999999997" y="165.602"/>
      <point x="217.814" y="175.63199999999998"/>
      <point x="190.18399999999997" y="175.63199999999998" type="curve" smooth="yes"/>
      <point x="152.422" y="175.63199999999998"/>
      <point x="135.942" y="153.56200000000004"/>
    </contour>
    <contour>
      <point x="191.38" y="469.55799999999994" type="curve" smooth="yes"/>
      <point x="190.38" y="446.90999999999997"/>
      <point x="201.784" y="436.338"/>
      <point x="230.816" y="436.338" type="curve" smooth="yes"/>
      <point x="267.51199999999994" y="436.338"/>
      <point x="284.73999999999995" y="453.248"/>
      <point x="286.87999999999994" y="498.178" type="curve" smooth="yes"/>
      <point x="287.87999999999994" y="522.2280000000001"/>
      <point x="275.392" y="532.258"/>
      <point x="247.332" y="532.258" type="curve" smooth="yes"/>
      <point x="208.28" y="532.258"/>
      <point x="193.51999999999998" y="508.46799999999996"/>
    </contour>
    <contour>
      <point x="43.682" y="263.95" type="line"/>
      <point x="364.624" y="263.95" type="line"/>
      <point x="378.402" y="348.45" type="line"/>
      <point x="57.03" y="348.45" type="line"/>
    </contour>
  </outline>
</glyph>
<glyph name="oslash" format="2">
  <advance width="408.95"/>
  <unicode hex="00F8"/>
  <anchor x="242.93" y="538.6" name="top"/>
  <outline>
    <contour>
      <point x="364.91999999999996" y="548.96" type="line"/>
      <point x="316.24" y="477.34" type="line"/>
      <point x="313.02" y="478.63" type="line"/>
      <point x="73.45" y="119.32000000000001" type="line"/>
      <point x="70.66" y="121.47" type="line"/>
      <point x="-18.759999999999998" y="-10.0" type="line"/>
      <point x="47.39" y="-10.0" type="line"/>
      <point x="101.45" y="68.44000000000001" type="line"/>
      <point x="105.1" y="67.14999999999999" type="line"/>
      <point x="341.73" y="422.37" type="line"/>
      <point x="344.09000000000003" y="420.22" type="line"/>
      <point x="431.07" y="548.96" type="line"/>
    </contour>
    <contour>
      <point x="179.84" y="-10.0" type="curve" smooth="yes"/>
      <point x="332.06" y="-10.0"/>
      <point x="389.76" y="210.70000000000002"/>
      <point x="389.76" y="384.17" type="curve" smooth="yes"/>
      <point x="389.76" y="500.07"/>
      <point x="337.01" y="548.96"/>
      <point x="233.91" y="548.96" type="curve" smooth="yes"/>
      <point x="79.32" y="548.96"/>
      <point x="22.270000000000003" y="321.82"/>
      <point x="22.270000000000003" y="154.22" type="curve" smooth="yes"/>
      <point x="22.270000000000003" y="39.04"/>
      <point x="73.52" y="-10.0"/>
    </contour>
    <contour>
      <point x="179.54999999999998" y="67.7" type="curve" smooth="yes"/>
      <point x="133.25" y="67.27000000000001"/>
      <point x="108.71000000000001" y="91.02999999999999"/>
      <point x="108.28" y="151.35" type="curve" smooth="yes"/>
      <point x="107.42" y="244.90999999999997"/>
      <point x="145.13" y="470.40000000000003"/>
      <point x="232.98000000000002" y="471.26000000000005" type="curve" smooth="yes"/>
      <point x="278.14" y="471.69000000000005"/>
      <point x="302.89" y="446.28999999999996"/>
      <point x="303.31999999999994" y="386.96999999999997" type="curve" smooth="yes"/>
      <point x="304.17999999999995" y="285.32"/>
      <point x="265.46000000000004" y="68.56"/>
    </contour>
  </outline>
</glyph>
<glyph name="thorn" format="2">
  <advance width="417.96500000000003"/>
  <unicode hex="00FE"/>
  <outline>
    <contour>
      <point x="-28.822" y="-210.0" type="line"/>
      <point x="61.317" y="-210.0" type="line"/>
      <point x="94.65899999999999" y="-0.4039999999999999" type="line"/>
      <point x="113.649" y="-5.342"/>
      <point x="136.90299999999996" y="-9.355"/>
      <point x="166.131" y="-9.355" type="curve" smooth="yes"/>
      <point x="315.65000000000003" y="-9.355"/>
      <point x="399.604" y="174.13"/>
      <point x="399.604" y="376.257" type="curve" smooth="yes"/>
      <point x="399.604" y="493.844"/>
      <point x="364.14799999999997" y="548.6"/>
      <point x="287.962" y="548.6" type="curve" smooth="yes"/>
      <point x="240.157" y="548.6"/>
      <point x="206.688" y="529.147"/>
      <point x="174.83499999999998" y="506.80500000000006" type="curve"/>
      <point x="211.773" y="740.0" type="line"/>
      <point x="121.17800000000001" y="740.0" type="line"/>
    </contour>
    <contour>
      <point x="157.593" y="68.31400000000001" type="curve" smooth="yes"/>
      <point x="138.29399999999998" y="68.31400000000001"/>
      <point x="121.05999999999999" y="71.594"/>
      <point x="107.119" y="76.65899999999999" type="curve"/>
      <point x="163.981" y="435.14" type="line"/>
      <point x="188.055" y="451.351"/>
      <point x="217.61100000000002" y="462.546"/>
      <point x="242.607" y="462.546" type="curve" smooth="yes"/>
      <point x="285.42" y="462.546"/>
      <point x="306.859" y="431.0"/>
      <point x="306.859" y="359.813" type="curve" smooth="yes"/>
      <point x="306.859" y="215.95"/>
      <point x="248.47" y="68.31400000000001"/>
    </contour>
  </outline>
</glyph>
<glyph name="Dcroat" format="2">
  <advance width="496.07599999999996"/>
  <unicode hex="0110"/>
  <outline>
    <contour>
      <point x="15.634" y="315.77700000000004" type="line"/>
      <point x="253.98999999999998" y="315.77700000000004" type="line"/>
      <point x="268.17" y="397.735" type="line"/>
      <point x="29.869999999999997" y="397.735" type="line"/>
    </contour>
    <component base="D" xOffset="8.309"/>
  </outline>
</glyph>
<glyph name="dcroat" format="2">
  <advance width="426.04099999999994"/>
  <unicode hex="0111"/>
  <outline>
    <contour>
      <point x="216.506" y="613.821" type="line"/>
      <point x="479.75" y="613.821" type="line"/>
      <point x="488.77000000000004" y="666.96" type="line"/>
      <point x="225.741" y="666.96" type="line"/>
    </contour>
    <component base="d"/>
  </outline>
</glyph>
<glyph name="Hbar" format="2">
  <advance width="499.20799999999997"/>
  <unicode hex="0126"/>
  <outline>
    <contour>
      <point x="43.068" y="500.482" type="line"/>
      <point x="528.054" y="500.482" type="line"/>
      <point x="539.886" y="574.876" type="line"/>
      <point x="54.9" y="574.876" type="line"/>
    </contour>
    <component base="H" xOffset="2.376"/>
  </outline>
</glyph>
<glyph name="hbar" format="2">
  <advance width="424.31"/>
  <unicode hex="0127"/>
  <outline>
    <contour>
      <point x="52.532" y="613.821" type="line"/>
      <point x="293.813" y="613.821" type="line"/>
      <point x="302.40299999999996" y="666.96" type="line"/>
      <point x="61.12199999999999" y="666.96" type="line"/>
    </contour>
    <component base="h" xOffset="2.15"/>
  </outline>
</glyph>
<glyph name="Idotaccent" format="2">
  <advance width="192.04199999999997"/>
  <unicode hex="0130"/>
  <outline>
    <contour>
      <point x="193.786" y="886.99" type="curve" smooth="yes"/>
      <point x="147.478" y="886.99"/>
      <point x="130.912" y="857.4399999999999"/>
      <point x="129.43000000000004" y="812.4000000000001" type="curve" smooth="yes"/>
      <point x="128.974" y="784.734"/>
      <point x="144.75199999999998" y="772.6659999999999"/>
      <point x="174.116" y="772.6659999999999" type="curve" smooth="yes"/>
      <point x="218.93" y="772.6659999999999"/>
      <point x="237.018" y="801.6999999999999"/>
      <point x="238.61399999999998" y="847.8000000000001" type="curve" smooth="yes"/>
      <point x="239.07" y="875.266"/>
      <point x="223.29" y="886.99"/>
    </contour>
    <component base="I"/>
  </outline>
</glyph>
<glyph name="dotlessi" format="2">
  <advance width="185.68200000000002"/>
  <unicode hex="0131"/>
  <anchor x="48.766183999999996" y="0.0" name="bottom"/>
  <anchor x="94.59" y="0.0" name="ogonek"/>
  <anchor x="134.17981600000002" y="538.6" name="top"/>
  <outline>
    <contour>
      <point x="94.59" y="0.0" type="line"/>
      <point x="179.794" y="538.6" type="line"/>
      <point x="88.89800000000001" y="538.6" type="line"/>
      <point x="3.9780000000000015" y="0.08600000000000001" type="line"/>
    </contour>
  </outline>
</glyph>
<glyph name="kgreenlandic" format="2">
  <advance width="396.33"/>
  <unicode hex="0138"/>
  <anchor x="171.05" y="0.0" name="bottom"/>
  <anchor x="245.11" y="538.6" name="top"/>
  <outline>
    <contour>
      <point x="3.95" y="0.0" type="line"/>
      <point x="95.55" y="0.0" type="line"/>
      <point x="180.77" y="538.6" type="line"/>
      <point x="88.74000000000001" y="538.6" type="line"/>
    </contour>
    <contour>
      <point x="327.17" y="-10.0" type="curve" smooth="yes"/>
      <point x="338.03999999999996" y="-10.0"/>
      <point x="348.91" y="-8.5"/>
      <point x="360.21000000000004" y="-4.21" type="curve"/>
      <point x="370.4" y="85.25" type="line"/>
      <point x="363.53999999999996" y="84.11"/>
      <point x="357.60999999999996" y="83.97"/>
      <point x="352.25" y="84.39999999999999" type="curve" smooth="yes"/>
      <point x="322.96" y="86.55000000000001"/>
      <point x="294.24" y="112.09"/>
      <point x="235.25" y="213.95000000000002" type="curve" smooth="yes"/>
      <point x="142.4" y="371.8" type="line"/>
      <point x="120.72" y="254.62" type="line"/>
      <point x="201.59" y="113.36" type="line" smooth="yes"/>
      <point x="251.85000000000002" y="24.44"/>
      <point x="283.21999999999997" y="-10.0"/>
    </contour>
    <contour>
      <point x="209.12" y="243.84" type="line"/>
      <point x="300.96999999999997" y="316.02000000000004"/>
      <point x="381.32" y="427.76"/>
      <point x="420.78999999999996" y="537.88" type="curve"/>
      <point x="331.62" y="548.46" type="line"/>
      <point x="290.88" y="436.71000000000004"/>
      <point x="236.9" y="365.39000000000004"/>
      <point x="157.76" y="301.76" type="curve"/>
    </contour>
  </outline>
</glyph>
<glyph name="Ldot" format="2">
  <advance width="369.99399999999997"/>
  <unicode hex="013F"/>
  <outline>
    <contour>
      <point x="255.19331199999996" y="368.908928" type="curve" smooth="yes"/>
      <point x="254.16731199999998" y="344.329888"/>
      <point x="263.821728" y="334.105816"/>
      <point x="289.95331999999996" y="334.105816" type="curve" smooth="yes"/>
      <point x="325.652984" y="334.105816"/>
      <point x="337.659952" y="359.98389599999996"/>
      <point x="338.913952" y="392.545696" type="curve" smooth="yes"/>
      <point x="339.939952" y="416.382184"/>
      <point x="330.741536" y="427.062256"/>
      <point x="304.92504800000006" y="427.062256" type="curve" smooth="yes"/>
      <point x="269.540832" y="427.062256"/>
      <point x="256.447312" y="401.126728"/>
    </contour>
    <component base="L"/>
  </outline>
</glyph>
<glyph name="ldot" format="2">
  <advance width="269.868"/>
  <unicode hex="0140"/>
  <outline>
    <contour>
      <point x="208.73591" y="358.54636" type="curve" smooth="yes"/>
      <point x="207.70991" y="335.8225120000001"/>
      <point x="215.670814" y="326.64781200000004"/>
      <point x="238.196426" y="326.64781200000004" type="curve" smooth="yes"/>
      <point x="269.748568" y="326.64781200000004"/>
      <point x="279.0959" y="351.094766"/>
      <point x="280.3499" y="380.95556400000004" type="curve" smooth="yes"/>
      <point x="281.3759" y="402.887582"/>
      <point x="273.870996" y="412.518282"/>
      <point x="251.61895" y="412.518282" type="curve" smooth="yes"/>
      <point x="220.33994399999997" y="412.518282"/>
      <point x="209.98991" y="388.174356"/>
    </contour>
    <component base="l"/>
  </outline>
</glyph>
<glyph name="Lslash" format="2">
  <advance width="380.38399999999996"/>
  <unicode hex="0141"/>
  <outline>
    <contour>
      <point x="14.92" y="0.0" type="line"/>
      <point x="325.17400000000004" y="0.0" type="line"/>
      <point x="338.92400000000004" y="84.532" type="line"/>
      <point x="120.512" y="84.532" type="line"/>
      <point x="153.60399999999998" y="293.024" type="line"/>
      <point x="304.388" y="390.318" type="line"/>
      <point x="319.82599999999996" y="482.77" type="line"/>
      <point x="168.35399999999998" y="385.132" type="line"/>
      <point x="218.622" y="700.0" type="line"/>
      <point x="126.60800000000002" y="700.0" type="line"/>
      <point x="68.294" y="334.48199999999997" type="line"/>
      <point x="16.072" y="300.252" type="line"/>
      <point x="1.3820000000000006" y="207.774" type="line"/>
      <point x="53.088" y="241.918" type="line"/>
    </contour>
  </outline>
</glyph>
<glyph name="lslash" format="2">
  <advance width="220.96000000000004"/>
  <unicode hex="0142"/>
  <outline>
    <contour>
      <point x="-1.2120000000000002" y="198.01399999999998" type="line"/>
      <point x="227.27" y="376.126" type="line"/>
      <point x="240.38600000000002" y="459.68199999999996" type="line"/>
      <point x="11.474" y="281.57" type="line"/>
    </contour>
    <component base="l" xOffset="6.879999999999999"/>
  </outline>
</glyph>
<glyph name="Eng" format="2">
  <advance width="491.40500000000003"/>
  <unicode hex="014A"/>
  <outline>
    <contour>
      <point x="4.885000000000001" y="0.0" type="line"/>
      <point x="92.32500000000002" y="0.0" type="line"/>
      <point x="170.67" y="494.73" type="line"/>
      <point x="311.15000000000003" y="-1.5800000000000003" type="line"/>
      <point x="301.02500000000003" y="-63.88999999999999"/>
      <point x="267.88" y="-84.5"/>
      <point x="221.73999999999998" y="-84.5" type="curve" smooth="yes"/>
      <point x="204.975" y="-85.36"/>
      <point x="187.21" y="-84.085"/>
      <point x="166.715" y="-79.16" type="curve"/>
      <point x="150.32" y="-170.11" type="line"/>
      <point x="172.885" y="-175.895"/>
      <point x="197.74499999999998" y="-178.105"/>
      <point x="217.80499999999998" y="-178.105" type="curve" smooth="yes"/>
      <point x="322.885" y="-176.815"/>
      <point x="379.43" y="-118.60000000000001"/>
      <point x="397.725" y="-2.03" type="curve" smooth="yes"/>
      <point x="509.8750000000001" y="700.0" type="line"/>
      <point x="422.505" y="700.0" type="line"/>
      <point x="342.36499999999995" y="194.365" type="line"/>
      <point x="206.185" y="701.14" type="line"/>
      <point x="116.03" y="701.14" type="line"/>
    </contour>
  </outline>
</glyph>
<glyph name="eng" format="2">
  <advance width="418.412"/>
  <unicode hex="014B"/>
  <outline>
    <contour>
      <point x="321.052" y="-28.168" type="curve" smooth="yes"/>
      <point x="360.586" y="226.14000000000001"/>
      <point x="398.49199999999996" y="444.8"/>
      <point x="398.49199999999996" y="460.906" type="curve" smooth="yes"/>
      <point x="398.49199999999996" y="514.36"/>
      <point x="365.53600000000006" y="548.6"/>
      <point x="303.11600000000004" y="548.6" type="curve" smooth="yes"/>
      <point x="257.32" y="548.6"/>
      <point x="213.75400000000002" y="532.838"/>
      <point x="165.536" y="502.8140000000001" type="curve"/>
      <point x="171.19400000000002" y="538.6" type="line"/>
      <point x="88.81200000000001" y="538.6" type="line"/>
      <point x="3.636000000000002" y="0.0" type="line"/>
      <point x="93.646" y="0.0" type="line"/>
      <point x="163.568" y="435.57" type="line"/>
      <point x="193.61" y="452.658"/>
      <point x="223.988" y="464.722"/>
      <point x="252.51399999999995" y="464.722" type="curve" smooth="yes"/>
      <point x="287.37399999999997" y="464.722"/>
      <point x="303.154" y="448.746"/>
      <point x="302.46599999999995" y="419.35599999999994" type="curve" smooth="yes"/>
      <point x="301.43399999999997" y="405.632"/>
      <point x="291.734" y="346.748"/>
      <point x="232.446" y="-26.780000000000005" type="curve" smooth="yes"/>
      <point x="222.858" y="-86.932"/>
      <point x="204.61800000000002" y="-125.76800000000001"/>
      <point x="163.218" y="-125.76800000000001" type="curve" smooth="yes"/>
      <point x="156.174" y="-125.76800000000001"/>
      <point x="148.66800000000003" y="-125.084"/>
      <point x="139.682" y="-122.23" type="curve"/>
      <point x="119.37400000000001" y="-214.99599999999998" type="line"/>
      <point x="133.668" y="-218.596"/>
      <point x="154.138" y="-220.684"/>
      <point x="173.962" y="-220.684" type="curve" smooth="yes"/>
      <point x="248.70999999999998" y="-220.684"/>
      <point x="301.236" y="-167.51000000000002"/>
    </contour>
  </outline>
</glyph>
<glyph name="OE" format="2">
  <advance width="700.625"/>
  <unicode hex="0152"/>
  <outline>
    <contour>
      <point x="637.6160000000001" y="0.0" type="line"/>
      <point x="651.366" y="85.00500000000001" type="line"/>
      <point x="406.1170000000001" y="85.00500000000001" type="line"/>
      <point x="442.21600000000007" y="316.71999999999997" type="line"/>
      <point x="654.941" y="316.71999999999997" type="line"/>
      <point x="669.1210000000001" y="399.575" type="line"/>
      <point x="455.966" y="399.575" type="line"/>
      <point x="490.15" y="613.9200000000001" type="line"/>
      <point x="722.2399999999999" y="613.9200000000001" type="line"/>
      <point x="736.7470000000001" y="700.0" type="line"/>
      <point x="500.76" y="700.0" type="line"/>
      <point x="454.337" y="704.1869999999999"/>
      <point x="398.212" y="710.0"/>
      <point x="345.48900000000003" y="710.0" type="curve" smooth="yes"/>
      <point x="141.83800000000005" y="710.0"/>
      <point x="31.269" y="476.36400000000003"/>
      <point x="31.269" y="205.629" type="curve" smooth="yes"/>
      <point x="31.269" y="57.358000000000004"/>
      <point x="92.74600000000001" y="-10.0"/>
      <point x="241.74099999999999" y="-10.0" type="curve" smooth="yes"/>
      <point x="283.39799999999997" y="-10.0"/>
      <point x="329.53100000000006" y="-6.243"/>
      <point x="386.01099999999997" y="0.0" type="curve"/>
    </contour>
    <contour>
      <point x="312.4000000000001" y="77.378" type="line"/>
      <point x="288.23400000000004" y="73.82699999999998"/>
      <point x="266.422" y="72.31299999999999"/>
      <point x="241.965" y="72.31299999999999" type="curve" smooth="yes"/>
      <point x="157.46" y="72.31299999999999"/>
      <point x="123.39699999999999" y="121.46"/>
      <point x="123.39699999999999" y="214.45200000000003" type="curve" smooth="yes"/>
      <point x="123.39699999999999" y="428.48"/>
      <point x="207.859" y="625.6490000000001"/>
      <point x="329.401" y="625.6490000000001" type="curve" smooth="yes"/>
      <point x="349.55" y="625.6490000000001"/>
      <point x="384.789" y="622.3969999999999"/>
      <point x="398.807" y="620.743" type="curve"/>
    </contour>
  </outline>
</glyph>
<glyph name="oe" format="2">
  <advance width="660.4399999999999"/>
  <unicode hex="0153"/>
  <outline>
    <contour>
      <point x="175.46" y="-10.0" type="curve" smooth="yes"/>
      <point x="239.09" y="-10.0"/>
      <point x="286.85999999999996" y="36.57000000000001"/>
      <point x="312.2" y="89.69" type="curve"/>
      <point x="335.98" y="27.14"/>
      <point x="383.54999999999995" y="-10.0"/>
      <point x="457.51" y="-10.0" type="curve" smooth="yes"/>
      <point x="507.96" y="-10.0"/>
      <point x="564.4100000000001" y="0.9999999999999998"/>
      <point x="607.4399999999999" y="21.87" type="curve"/>
      <point x="591.8399999999999" y="101.50999999999999" type="line"/>
      <point x="548.04" y="83.64999999999999"/>
      <point x="504.32" y="74.58"/>
      <point x="471.62" y="74.58" type="curve" smooth="yes"/>
      <point x="407.95" y="74.58"/>
      <point x="374.91999999999996" y="112.79"/>
      <point x="374.91999999999996" y="199.59" type="curve" smooth="yes"/>
      <point x="374.91999999999996" y="360.45"/>
      <point x="438.28" y="470.9"/>
      <point x="516.66" y="470.9" type="curve" smooth="yes"/>
      <point x="553.8100000000001" y="470.9"/>
      <point x="572.71" y="455.08"/>
      <point x="572.71" y="420.62" type="curve" smooth="yes"/>
      <point x="572.71" y="367.16999999999996"/>
      <point x="527.3399999999999" y="328.25"/>
      <point x="452.7" y="304.2" type="curve" smooth="yes"/>
      <point x="423.29999999999995" y="294.78000000000003"/>
      <point x="390.12" y="289.5"/>
      <point x="359.15000000000003" y="289.29" type="curve"/>
      <point x="348.40999999999997" y="220.04999999999998" type="line"/>
      <point x="388.33" y="219.9"/>
      <point x="432.11" y="225.54000000000002"/>
      <point x="472.7" y="236.60999999999999" type="curve" smooth="yes"/>
      <point x="587.86" y="267.96000000000004"/>
      <point x="660.37" y="342.40999999999997"/>
      <point x="660.37" y="436.09000000000003" type="curve" smooth="yes"/>
      <point x="660.37" y="504.92"/>
      <point x="613.5500000000001" y="548.6"/>
      <point x="528.5500000000001" y="548.6" type="curve" smooth="yes"/>
      <point x="457.65" y="548.6"/>
      <point x="402.76" y="511.52"/>
      <point x="365.76000000000005" y="458.52" type="curve"/>
      <point x="351.21" y="516.8"/>
      <point x="306.25" y="548.96"/>
      <point x="231.14000000000001" y="548.96" type="curve" smooth="yes"/>
      <point x="78.02" y="548.96"/>
      <point x="19.340000000000003" y="321.39"/>
      <point x="19.340000000000003" y="156.37" type="curve" smooth="yes"/>
      <point x="19.340000000000003" y="41.620000000000005"/>
      <point x="68.44" y="-10.0"/>
    </contour>
    <contour>
      <point x="178.18" y="69.42" type="curve" smooth="yes"/>
      <point x="132.04" y="69.42"/>
      <point x="108.79" y="91.46"/>
      <point x="108.36" y="152.20999999999998" type="curve" smooth="yes"/>
      <point x="107.5" y="249.21"/>
      <point x="149.06" y="469.10999999999996"/>
      <point x="228.49" y="469.53999999999996" type="curve" smooth="yes"/>
      <point x="273.48999999999995" y="469.53999999999996"/>
      <point x="297.38" y="446.29"/>
      <point x="297.80999999999995" y="386.11" type="curve" smooth="yes"/>
      <point x="298.66999999999996" y="287.9"/>
      <point x="255.67000000000002" y="69.85000000000001"/>
    </contour>
  </outline>
</glyph>
<glyph name="uni0162" format="2">
  <advance width="396.108"/>
  <unicode hex="0162"/>
  <anchor x="154.222216" y="0.0" name="_bottom"/>
  <anchor x="101.956" y="-220.0" name="bottom"/>
  <outline>
    <contour>
      <point x="42.528000000000006" y="-206.064" type="line"/>
      <point x="61.62200000000001" y="-216.0"/>
      <point x="80.57" y="-220.0"/>
      <point x="102.98200000000001" y="-220.0" type="curve" smooth="yes"/>
      <point x="169.118" y="-220.0"/>
      <point x="210.32" y="-163.08199999999997"/>
      <point x="210.32" y="-89.682" type="curve" smooth="yes"/>
      <point x="210.32" y="-55.186"/>
      <point x="202.21800000000002" y="-22.061999999999998"/>
      <point x="188.80200000000002" y="4.1819999999999995" type="curve"/>
      <point x="126.79599999999999" y="3.268" type="line"/>
      <point x="139.808" y="-24.102"/>
      <point x="146.76999999999998" y="-48.838"/>
      <point x="146.76999999999998" y="-78.27399999999999" type="curve" smooth="yes"/>
      <point x="146.76999999999998" y="-127.756"/>
      <point x="124.31200000000003" y="-153.60800000000003"/>
      <point x="92.75" y="-153.60800000000003" type="curve" smooth="yes"/>
      <point x="79.474" y="-153.60800000000003"/>
      <point x="68.34" y="-150.214"/>
      <point x="56.662" y="-143.966" type="curve"/>
    </contour>
    <component base="T"/>
  </outline>
</glyph>
